<?xml version="1.0" encoding="UTF-8"?>
<svg version="1.1" xmlns="http://www.w3.org/2000/svg" width="1254" height="1254">
<path d="M0 0 C413.82 0 827.64 0 1254 0 C1254 413.82 1254 827.64 1254 1254 C840.18 1254 426.36 1254 0 1254 C0 840.18 0 426.36 0 0 Z " fill="#6FBE06" transform="translate(0,0)"/>
<path d="M0 0 C1.06400528 0.00223572 1.06400528 0.00223572 2.14950562 0.0045166 C22.12792223 0.07929093 41.53434879 2.89364871 61 7.3125 C62.21945312 7.58578125 63.43890625 7.8590625 64.6953125 8.140625 C97.08858698 16.11212431 127.05774842 30.87063576 154 50.3125 C154.68497559 50.80234375 155.36995117 51.2921875 156.07568359 51.796875 C163.56644073 57.19704977 170.38238166 63.25264806 177.0859375 69.5859375 C179.32405106 71.68004376 181.58132395 73.66987519 183.9375 75.625 C211.29780226 99.5509547 233.43882673 134.3282899 246 168.25 C246.2475 168.91451172 246.495 169.57902344 246.75 170.26367188 C247.25202195 171.61154851 247.7533184 172.95969557 248.25390625 174.30810547 C248.97683447 176.25026537 249.70666031 178.18971201 250.4375 180.12890625 C250.68314697 180.78810059 250.92879395 181.44729492 251.18188477 182.12646484 C251.77614903 183.71436166 252.3793943 185.29890643 252.98803711 186.88134766 C255.37948074 193.22145402 257.16184994 199.4990292 258.5625 206.125 C258.85543945 207.41954102 258.85543945 207.41954102 259.15429688 208.74023438 C263.10189846 227.03807494 264.51579342 245.14236225 264.44604492 263.83496094 C264.43750653 267.30984337 264.46648962 270.78308949 264.49804688 274.2578125 C264.54303539 288.72069227 263.10449956 302.19981945 260 316.3125 C259.58706503 318.37496506 259.17426373 320.4374569 258.76171875 322.5 C254.92538066 340.08584388 250.06213281 357.24932878 241.95654297 373.36962891 C240.90062627 375.5143418 239.90244556 377.68060673 238.91015625 379.85546875 C226.98981063 405.88398761 211.05536235 430.64767771 190.5378418 450.78076172 C188.77032435 452.54126409 187.15506647 454.39314716 185.5625 456.3125 C182.00801335 460.40483661 178.16981002 463.85806697 174 467.3125 C173.46262207 467.76753906 172.92524414 468.22257812 172.37158203 468.69140625 C157.37165794 481.38271341 141.3560186 492.11302795 124 501.3125 C123.36416992 501.6523291 122.72833984 501.9921582 122.07324219 502.34228516 C111.05703763 508.18573613 99.67355538 512.94541453 88 517.3125 C86.89881836 517.72628906 86.89881836 517.72628906 85.77539062 518.1484375 C76.35262883 521.63132475 66.77087364 524.24232599 57 526.5625 C55.98083496 526.80887207 54.96166992 527.05524414 53.91162109 527.30908203 C37.39926461 531.07359752 21.02894262 531.63879689 4.15869141 531.57324219 C0.87253474 531.56249194 -2.41307822 531.57321759 -5.69921875 531.5859375 C-20.47049241 531.59587957 -34.56899677 530.98694428 -48.8984375 527.0859375 C-51.791641 526.36445854 -54.67814274 525.82850564 -57.61816406 525.33813477 C-71.72951688 522.96049198 -84.90593779 517.98964585 -98 512.3125 C-100.02082398 511.49997674 -102.04165743 510.68747704 -104.0625 509.875 C-108.9773753 507.8319538 -113.60737573 505.4661751 -118.234375 502.83984375 C-120.41340354 501.63645369 -122.59158848 500.5285812 -124.828125 499.44140625 C-129.07125181 497.33329569 -133.03466015 494.89997682 -137 492.3125 C-137.73130127 491.83611084 -138.46260254 491.35972168 -139.21606445 490.86889648 C-163.43397499 474.90490367 -186.53383782 455.51141657 -203.7421875 432.01904297 C-205.03419295 430.26610856 -206.35744528 428.54060434 -207.6875 426.81640625 C-215.31248073 416.82481822 -221.76266262 406.21242327 -228 395.3125 C-228.40992188 394.60399902 -228.81984375 393.89549805 -229.2421875 393.16552734 C-236.53421822 380.45647212 -241.78776532 366.97954829 -247 353.3125 C-247.42587402 352.21881104 -247.42587402 352.21881104 -247.86035156 351.10302734 C-257.99450698 325.07333567 -261.37173406 296.63408425 -261.31567383 268.89672852 C-261.31252193 265.64760481 -261.33603157 262.39940209 -261.36132812 259.15039062 C-261.41944201 239.91496995 -259.07052612 221.85282071 -254 203.3125 C-253.55527344 201.52199219 -253.55527344 201.52199219 -253.1015625 199.6953125 C-239.17225068 144.33522706 -204.85144525 90.73374166 -159 56.3125 C-158.46407227 55.90016113 -157.92814453 55.48782227 -157.37597656 55.06298828 C-120.82211905 26.95645078 -77.63208993 8.77511157 -32 2.3125 C-30.824375 2.14113525 -29.64875 1.96977051 -28.4375 1.79321289 C-18.94599009 0.46737129 -9.59327624 -0.05056044 0 0 Z " fill="#6FBE07" transform="translate(500,210.6875)"/>
<path d="M0 0 C1.06400528 0.00223572 1.06400528 0.00223572 2.14950562 0.0045166 C22.12792223 0.07929093 41.53434879 2.89364871 61 7.3125 C62.21945312 7.58578125 63.43890625 7.8590625 64.6953125 8.140625 C97.08858698 16.11212431 127.05774842 30.87063576 154 50.3125 C154.68497559 50.80234375 155.36995117 51.2921875 156.07568359 51.796875 C163.56644073 57.19704977 170.38238166 63.25264806 177.0859375 69.5859375 C179.32405106 71.68004376 181.58132395 73.66987519 183.9375 75.625 C211.29780226 99.5509547 233.43882673 134.3282899 246 168.25 C246.2475 168.91451172 246.495 169.57902344 246.75 170.26367188 C247.25202195 171.61154851 247.7533184 172.95969557 248.25390625 174.30810547 C248.97683447 176.25026537 249.70666031 178.18971201 250.4375 180.12890625 C250.68314697 180.78810059 250.92879395 181.44729492 251.18188477 182.12646484 C251.77614903 183.71436166 252.3793943 185.29890643 252.98803711 186.88134766 C255.37948074 193.22145402 257.16184994 199.4990292 258.5625 206.125 C258.85543945 207.41954102 258.85543945 207.41954102 259.15429688 208.74023438 C263.10189846 227.03807494 264.51579342 245.14236225 264.44604492 263.83496094 C264.43750653 267.30984337 264.46648962 270.78308949 264.49804688 274.2578125 C264.54303539 288.72069227 263.10449956 302.19981945 260 316.3125 C259.58706503 318.37496506 259.17426373 320.4374569 258.76171875 322.5 C254.92538066 340.08584388 250.06213281 357.24932878 241.95654297 373.36962891 C240.90062627 375.5143418 239.90244556 377.68060673 238.91015625 379.85546875 C226.98981063 405.88398761 211.05536235 430.64767771 190.5378418 450.78076172 C188.77032435 452.54126409 187.15506647 454.39314716 185.5625 456.3125 C182.00801335 460.40483661 178.16981002 463.85806697 174 467.3125 C173.46262207 467.76753906 172.92524414 468.22257812 172.37158203 468.69140625 C157.37165794 481.38271341 141.3560186 492.11302795 124 501.3125 C123.36416992 501.6523291 122.72833984 501.9921582 122.07324219 502.34228516 C111.05703763 508.18573613 99.67355538 512.94541453 88 517.3125 C86.89881836 517.72628906 86.89881836 517.72628906 85.77539062 518.1484375 C76.35262883 521.63132475 66.77087364 524.24232599 57 526.5625 C55.98083496 526.80887207 54.96166992 527.05524414 53.91162109 527.30908203 C37.39926461 531.07359752 21.02894262 531.63879689 4.15869141 531.57324219 C0.87253474 531.56249194 -2.41307822 531.57321759 -5.69921875 531.5859375 C-20.47049241 531.59587957 -34.56899677 530.98694428 -48.8984375 527.0859375 C-51.791641 526.36445854 -54.67814274 525.82850564 -57.61816406 525.33813477 C-71.72951688 522.96049198 -84.90593779 517.98964585 -98 512.3125 C-100.02082398 511.49997674 -102.04165743 510.68747704 -104.0625 509.875 C-108.9773753 507.8319538 -113.60737573 505.4661751 -118.234375 502.83984375 C-120.41340354 501.63645369 -122.59158848 500.5285812 -124.828125 499.44140625 C-129.07125181 497.33329569 -133.03466015 494.89997682 -137 492.3125 C-137.73130127 491.83611084 -138.46260254 491.35972168 -139.21606445 490.86889648 C-163.43397499 474.90490367 -186.53383782 455.51141657 -203.7421875 432.01904297 C-205.03419295 430.26610856 -206.35744528 428.54060434 -207.6875 426.81640625 C-215.31248073 416.82481822 -221.76266262 406.21242327 -228 395.3125 C-228.40992188 394.60399902 -228.81984375 393.89549805 -229.2421875 393.16552734 C-236.53421822 380.45647212 -241.78776532 366.97954829 -247 353.3125 C-247.42587402 352.21881104 -247.42587402 352.21881104 -247.86035156 351.10302734 C-257.99450698 325.07333567 -261.37173406 296.63408425 -261.31567383 268.89672852 C-261.31252193 265.64760481 -261.33603157 262.39940209 -261.36132812 259.15039062 C-261.41944201 239.91496995 -259.07052612 221.85282071 -254 203.3125 C-253.55527344 201.52199219 -253.55527344 201.52199219 -253.1015625 199.6953125 C-239.17225068 144.33522706 -204.85144525 90.73374166 -159 56.3125 C-158.46407227 55.90016113 -157.92814453 55.48782227 -157.37597656 55.06298828 C-120.82211905 26.95645078 -77.63208993 8.77511157 -32 2.3125 C-30.824375 2.14113525 -29.64875 1.96977051 -28.4375 1.79321289 C-18.94599009 0.46737129 -9.59327624 -0.05056044 0 0 Z M-37 54.3125 C-38.27689697 54.56990967 -38.27689697 54.56990967 -39.57958984 54.83251953 C-68.40853532 60.77460647 -96.01630144 72.12717852 -120 89.3125 C-120.58136719 89.72709473 -121.16273438 90.14168945 -121.76171875 90.56884766 C-130.44345759 96.83430163 -138.29313445 103.90276106 -146 111.3125 C-146.54688477 111.83215332 -147.09376953 112.35180664 -147.65722656 112.88720703 C-179.5998327 143.33865804 -198.90496172 183.14632813 -208.125 225.9375 C-208.29604248 226.72592285 -208.46708496 227.5143457 -208.64331055 228.32666016 C-208.80484619 229.09800293 -208.96638184 229.8693457 -209.1328125 230.6640625 C-209.27605957 231.34291504 -209.41930664 232.02176758 -209.56689453 232.72119141 C-210.75450916 239.82679552 -211.15847888 246.8383539 -211.16796875 254.03515625 C-211.17129715 254.93890488 -211.17462555 255.8426535 -211.17805481 256.77378845 C-211.18308747 258.6772308 -211.18546428 260.58068186 -211.18530273 262.48413086 C-211.18747575 265.3430908 -211.20563389 268.20165562 -211.22460938 271.06054688 C-211.25770336 281.99567776 -210.65683102 292.49937089 -209 303.3125 C-208.749783 305.22913835 -208.49973997 307.14579943 -208.25 309.0625 C-206.2997769 320.40499758 -202.69219829 331.81274481 -198 342.3125 C-197.03965273 344.70058788 -196.09855484 347.09541187 -195.16015625 349.4921875 C-180.3188045 385.57116381 -155.68418781 418.37657946 -124 441.3125 C-122.43572266 442.45912109 -122.43572266 442.45912109 -120.83984375 443.62890625 C-84.44409383 469.56144182 -42.90850037 483.03135603 1.75 482.75 C3.26537857 482.74593643 3.26537857 482.74593643 4.81137085 482.74179077 C19.55956742 482.68180731 33.67842454 482.14366987 48 478.3125 C48.74233887 478.12526367 49.48467773 477.93802734 50.24951172 477.74511719 C55.23983955 476.47141218 60.12530479 474.97177988 65 473.3125 C66.13598633 472.92771484 66.13598633 472.92771484 67.29492188 472.53515625 C91.47567287 464.22985311 114.28960823 452.76128394 134 436.3125 C134.57443848 435.838125 135.14887695 435.36375 135.74072266 434.875 C147.30241748 425.29379512 157.73675485 415.17796419 167 403.3125 C167.72960937 402.38824219 168.45921875 401.46398437 169.2109375 400.51171875 C187.97390928 376.18569042 202.14322425 347.90074297 208.625 317.8125 C209.05137988 315.84303101 209.48089156 313.8742365 209.9140625 311.90625 C210.0992041 311.04708984 210.2843457 310.18792969 210.47509766 309.30273438 C211 307.3125 211 307.3125 212 306.3125 C215.30950663 293.46230629 215.08363859 279.86209292 215.125 266.6875 C215.12967285 265.6754248 215.1343457 264.66334961 215.13916016 263.62060547 C215.11175258 250.51767745 213.83473563 238.02297997 211.1875 225.1875 C210.93935547 223.92035156 210.69121094 222.65320313 210.43554688 221.34765625 C208.83426467 213.43495894 206.73058634 205.90594041 204 198.3125 C203.55107164 197.00685784 203.10299749 195.70092124 202.65625 194.39453125 C202.2746875 193.31558594 201.893125 192.23664063 201.5 191.125 C201.1184375 190.03832031 200.736875 188.95164062 200.34375 187.83203125 C189.89881334 160.47479888 173.01846673 136.45147665 153 115.3125 C152.50902832 114.7875293 152.01805664 114.26255859 151.51220703 113.72167969 C138.47092662 99.84869574 123.39870682 88.89937765 107 79.3125 C106.25008789 78.87244629 105.50017578 78.43239258 104.72753906 77.97900391 C93.08656667 71.17477448 93.08656667 71.17477448 80.59814453 66.17773438 C78.21579258 65.38436327 75.96363528 64.46369424 73.66015625 63.46875 C67.43568589 60.96031262 61.00923346 59.31251437 54.50756836 57.70263672 C52.46181633 57.19355112 50.42149453 56.66589081 48.38085938 56.13671875 C32.92887363 52.21353801 17.66017483 50.91980094 1.75 51 C0.99064148 51.00182281 0.23128296 51.00364563 -0.55108643 51.00552368 C-12.91270875 51.05522401 -24.86836395 51.786616 -37 54.3125 Z " fill="#FCFDFB" transform="translate(500,210.6875)"/>
<path d="M0 0 C15.35976032 -0.68638452 29.28379068 0.86396023 44.24853516 4.359375 C46.59188373 4.90497807 48.93785086 5.41486583 51.29296875 5.90625 C83.14744689 13.03637153 114.48682647 28.76154417 140 49 C140.85851562 49.66644531 141.71703125 50.33289063 142.6015625 51.01953125 C159.89239499 64.5898905 176.06454212 80.19684369 189 98 C189.61617187 98.83273437 190.23234375 99.66546875 190.8671875 100.5234375 C192.63815234 102.97993712 194.32779383 105.47522483 196 108 C196.72316406 109.07507813 197.44632813 110.15015625 198.19140625 111.2578125 C216.76677053 139.5159178 227.90308698 170.22674577 234.3125 203.25 C234.47194092 204.07032715 234.63138184 204.8906543 234.7956543 205.73583984 C237.03561586 217.90551518 237.18635888 229.98564104 237.18530273 242.32250977 C237.18748177 245.16372843 237.20567002 248.00455317 237.22460938 250.84570312 C237.25858266 261.74257335 236.71383884 272.23030211 235 283 C234.86456787 283.8880835 234.72913574 284.77616699 234.58959961 285.69116211 C231.35934585 305.58710933 225.30371238 325.63577106 217 344 C216.42209717 345.28487305 216.42209717 345.28487305 215.83251953 346.59570312 C194.01347946 394.65178987 158.96916261 433.86392991 113 460 C112.30342285 460.39912598 111.6068457 460.79825195 110.88916016 461.20947266 C100.34355751 467.19361519 89.45248933 471.84920587 78.13061523 476.16088867 C76.29061791 476.88554443 74.48301973 477.6914857 72.68359375 478.51171875 C48.7288648 488.19014052 22.12530393 491.34768058 -3.5 491.375 C-4.28839264 491.37708466 -5.07678528 491.37916931 -5.8890686 491.38131714 C-22.12289969 491.37644498 -37.94170947 489.80300705 -53.8125 486.3125 C-55.00536621 486.05194824 -56.19823242 485.79139648 -57.42724609 485.52294922 C-86.0510606 479.0577765 -114.04289662 467.03831779 -138 450 C-139.16206906 449.1982158 -140.32486534 448.39748486 -141.48828125 447.59765625 C-148.80871478 442.52072434 -155.47757209 437.0852987 -162 431 C-163.26699298 429.91217774 -164.53770696 428.82867103 -165.8125 427.75 C-175.44768585 419.32408849 -184.13775438 410.09438407 -192 400 C-193.14662109 398.59621094 -193.14662109 398.59621094 -194.31640625 397.1640625 C-210.02986297 377.54115828 -222.44337139 354.61933282 -231 331 C-231.49371094 329.91847656 -231.98742187 328.83695313 -232.49609375 327.72265625 C-234.63052678 322.81832706 -235.77276273 317.61294188 -237.0625 312.4375 C-238.84259712 305.15196082 -238.84259712 305.15196082 -241.05078125 297.9921875 C-246.45006941 280.97220918 -246.59057511 262.66046719 -246 245 C-244.20369141 244.72736328 -244.20369141 244.72736328 -242.37109375 244.44921875 C-222.4050244 241.43703902 -222.4050244 241.43703902 -203 236 C-202.01 236 -201.02 236 -200 236 C-199.94839722 237.5303186 -199.94839722 237.5303186 -199.89575195 239.09155273 C-198.00407575 292.47052676 -184.67137963 339.64009968 -148 380 C-147.26007813 380.85980469 -146.52015625 381.71960938 -145.7578125 382.60546875 C-141.50583242 387.54405262 -137.03476466 391.86891105 -132 396 C-131.22076172 396.64775391 -131.22076172 396.64775391 -130.42578125 397.30859375 C-107.07784858 416.66901433 -82.30306293 429.95080451 -53 438 C-52.31470215 438.18981445 -51.6294043 438.37962891 -50.92333984 438.57519531 C-48.910584 439.12627831 -46.89411642 439.66024035 -44.875 440.1875 C-43.71742188 440.49042969 -42.55984375 440.79335938 -41.3671875 441.10546875 C-29.95537821 443.64253061 -18.53177278 444.36276064 -6.875 444.3125 C-6.20634918 444.31100952 -5.53769836 444.30951904 -4.8487854 444.3079834 C6.97825254 444.26094833 18.3990185 443.29948886 30 441 C30.79180664 440.8448291 31.58361328 440.6896582 32.39941406 440.52978516 C37.63263552 439.48078837 42.82164817 438.29148045 48 437 C49.24523437 436.69191406 50.49046875 436.38382813 51.7734375 436.06640625 C59.98605435 433.88181391 67.40186747 430.77735731 75 427 C76.31611534 426.36007843 77.63253426 425.72078093 78.94921875 425.08203125 C99.31746452 415.13102134 116.62770357 403.37229643 132.65234375 387.34765625 C134.00541134 385.99458866 135.37376492 384.65574283 136.78125 383.359375 C168.34271395 353.80636785 188.82867824 305.23975605 190.42449951 262.46556091 C190.56545794 257.28946917 190.60992821 252.11532172 190.625 246.9375 C190.63217041 245.94797333 190.63934082 244.95844666 190.64672852 243.93893433 C190.69768827 230.87710992 189.40260657 218.75158714 186.44570923 206.03096008 C185.82576709 203.20607415 185.40147369 200.36306418 185 197.5 C183.636818 189.02196455 180.65202033 181.09055357 177.0546875 173.32421875 C175.85567657 170.68195393 174.77489706 168.00256398 173.6875 165.3125 C165.65858214 146.1349944 154.83215803 129.4693482 141 114 C140.26394531 113.14277344 139.52789063 112.28554688 138.76953125 111.40234375 C104.95773729 72.54033649 54.85051507 50.30049201 3.8828125 46.59375 C-0.07639534 46.34089776 -4.03566011 46.15067609 -8 46 C-7.21704887 36.91776687 -5.16237192 28.18681056 -3.171875 19.3046875 C-1.75289172 12.86361634 -0.56666408 6.5733033 0 0 Z " fill="#FBFCFA" transform="translate(776,511)"/>
<path d="M0 0 C0.64211426 0.48130371 1.28422852 0.96260742 1.94580078 1.45849609 C18.28465953 13.85783384 32.9704449 28.37477104 45 45 C46.10988281 46.49273437 46.10988281 46.49273437 47.2421875 48.015625 C56.76458278 61.2317608 65.36510903 75.68525485 71 91 C71.68346486 92.7099517 72.37088966 94.41832658 73.0625 96.125 C73.36293213 96.88530518 73.66336426 97.64561035 73.97290039 98.42895508 C74.62497974 100.06124593 75.2905398 101.68826622 75.97412109 103.30761719 C78.41668686 109.15962285 80.16784911 114.94511332 81.5625 121.125 C81.77229492 122.03515869 81.98208984 122.94531738 82.19824219 123.88305664 C88.89010216 153.28754304 92.56284702 187.72231119 84.078125 217.203125 C83.28045284 220.01231825 82.55519793 222.79705622 81.88671875 225.63671875 C79.92281455 233.95524998 77.96855743 242.02575518 74.4296875 249.83984375 C73.30852935 252.31803212 72.26617823 254.79222155 71.2578125 257.31640625 C62.10169225 280.08920019 49.62842606 300.22298013 33.30126953 318.53564453 C31.57190818 320.48174385 29.88271041 322.46165073 28.1875 324.4375 C21.72200571 331.75575732 14.64853827 337.93083521 7 344 C5.98679687 344.81855469 4.97359375 345.63710938 3.9296875 346.48046875 C-3.95763807 352.77565511 -12.22297762 358.03783439 -21 363 C-21.62793457 363.36448242 -22.25586914 363.72896484 -22.90283203 364.10449219 C-40.16749609 374.08707161 -59.48224348 381.83782832 -79 386 C-79.69706055 386.17756836 -80.39412109 386.35513672 -81.11230469 386.53808594 C-109.11333927 393.63104344 -144.07632086 393.26642248 -172 386 C-173.53285645 385.60603027 -173.53285645 385.60603027 -175.09667969 385.20410156 C-186.35769988 382.24031783 -197.43792911 378.95097073 -208 374 C-209.24925601 373.45532166 -210.49931966 372.91249355 -211.75 372.37109375 C-230.23042562 364.2131867 -246.79328501 353.24281459 -262 340 C-262.9075 339.22140625 -263.815 338.4428125 -264.75 337.640625 C-267.21638849 335.47462998 -269.61592476 333.25622262 -272 331 C-272.48500977 330.54753906 -272.97001953 330.09507812 -273.46972656 329.62890625 C-294.36206094 310.02365408 -314.36203159 282.54811548 -323 255 C-323.49051754 253.6631491 -323.99006613 252.3295658 -324.5 251 C-324.73976563 250.35804688 -324.97953125 249.71609375 -325.2265625 249.0546875 C-325.7748449 247.5981393 -326.33316764 246.14535259 -326.8984375 244.6953125 C-335.42995667 222.24035404 -338.18734433 200.33412677 -338.18530273 176.43725586 C-338.18749278 173.57195242 -338.20571879 170.70703277 -338.22460938 167.84179688 C-338.25561034 158.03315452 -337.95119337 148.65116083 -336 139 C-335.72651733 137.51657104 -335.72651733 137.51657104 -335.44750977 136.00317383 C-327.4342549 93.20185733 -308.12589058 55.42868639 -278 24 C-277.49742676 23.47019531 -276.99485352 22.94039063 -276.47705078 22.39453125 C-268.57112872 14.09688541 -260.21396366 6.81032097 -251 0 C-250.14921875 -0.63421875 -249.2984375 -1.2684375 -248.421875 -1.921875 C-175.13002051 -54.82791566 -72.35367426 -54.49176541 0 0 Z M-161 -5 C-162.72866117 -4.64716672 -164.46041323 -4.3090386 -166.1953125 -3.98828125 C-197.66812803 2.18049224 -226.70361731 18.15509089 -249.52539062 40.55615234 C-250.95469348 41.95563862 -252.40673391 43.33178497 -253.859375 44.70703125 C-268.45394318 58.78625451 -279.30109646 75.40908681 -288.4375 93.4375 C-288.74324951 94.03868652 -289.04899902 94.63987305 -289.36401367 95.25927734 C-292.02005904 100.67722763 -294.01027434 106.30996575 -296 112 C-296.33588135 112.94625244 -296.6717627 113.89250488 -297.01782227 114.86743164 C-311.01043469 154.7834825 -311.19572127 198.18862547 -296 238 C-295.56929199 239.15169678 -295.56929199 239.15169678 -295.12988281 240.32666016 C-286.829673 262.19883465 -274.64652427 282.34237828 -258.53125 299.31640625 C-256.38066547 301.59642411 -254.33386276 303.91902274 -252.3125 306.3125 C-236.18755484 324.74100875 -212.41620907 337.95078719 -190 347 C-188.99453125 347.40863281 -187.9890625 347.81726563 -186.953125 348.23828125 C-176.654023 352.18423897 -165.99315643 355.0523141 -155 356 C-154.67 356.33 -154.34 356.66 -154 357 C-129.44640969 360.67521893 -100.6829293 359.49910027 -77 352 C-76.18660156 351.78730469 -75.37320313 351.57460938 -74.53515625 351.35546875 C-31.64711066 339.99196949 7.32169741 308.78685986 29.53125 270.7109375 C32.11520579 266.18986597 34.58374103 261.61257509 37 257 C37.33273926 256.36868164 37.66547852 255.73736328 38.00830078 255.08691406 C46.08799871 239.51943746 51.22937883 222.28510111 54 205 C54.16628906 204.09241943 54.33257813 203.18483887 54.50390625 202.24975586 C56.03815386 193.37372247 56.39884208 184.66511637 56.375 175.6875 C56.37468277 174.57823654 56.37468277 174.57823654 56.37435913 173.44656372 C56.31917005 153.98626603 53.29371302 135.42928273 47 117 C46.78649902 116.35724121 46.57299805 115.71448242 46.35302734 115.05224609 C40.87565565 98.74285032 33.22063495 82.86670586 23 69 C22.61344238 68.4735791 22.22688477 67.9471582 21.82861328 67.40478516 C16.28885864 59.90491107 10.40595986 52.78211052 4 46 C3.31679688 45.26394531 2.63359375 44.52789062 1.9296875 43.76953125 C-6.69564682 34.7781772 -16.71060394 27.40670422 -27 20.4375 C-27.91579834 19.81113647 -27.91579834 19.81113647 -28.85009766 19.17211914 C-32.44837333 16.78795216 -35.84673983 15.17127002 -40 14 C-40 13.34 -40 12.68 -40 12 C-46.53459104 8.60757401 -53.07480743 5.50954419 -60 3 C-61.04542969 2.62101562 -62.09085938 2.24203125 -63.16796875 1.8515625 C-67.41287064 0.422946 -71.68117194 -0.81703787 -76 -2 C-76.94617188 -2.2666748 -77.89234375 -2.53334961 -78.8671875 -2.80810547 C-95.16998727 -7.24569061 -110.67588695 -8.57165163 -127.5 -8.5625 C-128.4230191 -8.56512848 -129.34603821 -8.56775696 -130.29702759 -8.57046509 C-140.97609594 -8.56701743 -150.64918047 -7.8472427 -161 -5 Z " fill="#F9FBF6" transform="translate(627,303)"/>
<path d="M0 0 C0.64211426 0.48130371 1.28422852 0.96260742 1.94580078 1.45849609 C18.28465953 13.85783384 32.9704449 28.37477104 45 45 C46.10988281 46.49273437 46.10988281 46.49273437 47.2421875 48.015625 C56.76458278 61.2317608 65.36510903 75.68525485 71 91 C71.68346486 92.7099517 72.37088966 94.41832658 73.0625 96.125 C73.36293213 96.88530518 73.66336426 97.64561035 73.97290039 98.42895508 C74.62497974 100.06124593 75.2905398 101.68826622 75.97412109 103.30761719 C78.41668686 109.15962285 80.16784911 114.94511332 81.5625 121.125 C81.77229492 122.03515869 81.98208984 122.94531738 82.19824219 123.88305664 C88.89010216 153.28754304 92.56284702 187.72231119 84.078125 217.203125 C83.28045284 220.01231825 82.55519793 222.79705622 81.88671875 225.63671875 C79.92281455 233.95524998 77.96855743 242.02575518 74.4296875 249.83984375 C73.30852935 252.31803212 72.26617823 254.79222155 71.2578125 257.31640625 C62.10169225 280.08920019 49.62842606 300.22298013 33.30126953 318.53564453 C31.57190818 320.48174385 29.88271041 322.46165073 28.1875 324.4375 C21.72200571 331.75575732 14.64853827 337.93083521 7 344 C5.98679687 344.81855469 4.97359375 345.63710938 3.9296875 346.48046875 C-3.95763807 352.77565511 -12.22297762 358.03783439 -21 363 C-21.62793457 363.36448242 -22.25586914 363.72896484 -22.90283203 364.10449219 C-40.16749609 374.08707161 -59.48224348 381.83782832 -79 386 C-79.69706055 386.17756836 -80.39412109 386.35513672 -81.11230469 386.53808594 C-109.11333927 393.63104344 -144.07632086 393.26642248 -172 386 C-173.53285645 385.60603027 -173.53285645 385.60603027 -175.09667969 385.20410156 C-186.35769988 382.24031783 -197.43792911 378.95097073 -208 374 C-209.24925601 373.45532166 -210.49931966 372.91249355 -211.75 372.37109375 C-230.23042562 364.2131867 -246.79328501 353.24281459 -262 340 C-262.9075 339.22140625 -263.815 338.4428125 -264.75 337.640625 C-267.21638849 335.47462998 -269.61592476 333.25622262 -272 331 C-272.48500977 330.54753906 -272.97001953 330.09507812 -273.46972656 329.62890625 C-294.36206094 310.02365408 -314.36203159 282.54811548 -323 255 C-323.49051754 253.6631491 -323.99006613 252.3295658 -324.5 251 C-324.73976563 250.35804688 -324.97953125 249.71609375 -325.2265625 249.0546875 C-325.7748449 247.5981393 -326.33316764 246.14535259 -326.8984375 244.6953125 C-335.42995667 222.24035404 -338.18734433 200.33412677 -338.18530273 176.43725586 C-338.18749278 173.57195242 -338.20571879 170.70703277 -338.22460938 167.84179688 C-338.25561034 158.03315452 -337.95119337 148.65116083 -336 139 C-335.72651733 137.51657104 -335.72651733 137.51657104 -335.44750977 136.00317383 C-327.4342549 93.20185733 -308.12589058 55.42868639 -278 24 C-277.49742676 23.47019531 -276.99485352 22.94039063 -276.47705078 22.39453125 C-268.57112872 14.09688541 -260.21396366 6.81032097 -251 0 C-250.14921875 -0.63421875 -249.2984375 -1.2684375 -248.421875 -1.921875 C-175.13002051 -54.82791566 -72.35367426 -54.49176541 0 0 Z M-265 32 C-265.84691406 32.80566406 -266.69382812 33.61132812 -267.56640625 34.44140625 C-272.55648872 39.29639342 -276.89317003 44.38418866 -281 50 C-281.77214844 51.04027344 -282.54429687 52.08054687 -283.33984375 53.15234375 C-295.28822783 69.42421755 -305.12964938 86.60590915 -311.54296875 105.796875 C-312.56871497 108.8613692 -313.75271558 111.81937983 -315.0078125 114.796875 C-317.21303413 120.24648261 -318.4979107 125.75478094 -319.6875 131.5 C-319.89955078 132.46808594 -320.11160156 133.43617188 -320.33007812 134.43359375 C-322.86941075 146.36925816 -323.21380598 158.0113846 -323.24023438 170.17285156 C-323.24985296 172.83431319 -323.28091213 175.49497153 -323.3125 178.15625 C-323.47867448 205.22687091 -318.20771116 234.46789292 -305.296875 258.51953125 C-304 261 -304 261 -303.140625 263.265625 C-290.90078672 292.60770306 -266.46351267 319.53188011 -241 338 C-240.15695312 338.6175415 -240.15695312 338.6175415 -239.296875 339.24755859 C-216.51583105 355.73899666 -187.75120166 370.0785077 -159.37602234 372.70475769 C-157.10128096 372.98741492 -154.98145258 373.45357857 -152.76049805 374.01196289 C-148.23366301 375.03992702 -143.95763193 375.30556956 -139.328125 375.30078125 C-138.13359459 375.3091803 -138.13359459 375.3091803 -136.91493225 375.31774902 C-134.35975755 375.32956637 -131.80517316 375.32343452 -129.25 375.3125 C-128.37628754 375.31067719 -127.50257507 375.30885437 -126.60238647 375.30697632 C-113.53560733 375.26095756 -100.80464376 374.83171857 -88 372 C-87.14970215 371.81244141 -86.2994043 371.62488281 -85.42333984 371.43164062 C-79.57256919 370.10499367 -73.77877297 368.60976448 -68 367 C-67.33935547 366.81791992 -66.67871094 366.63583984 -65.99804688 366.44824219 C-60.0323855 364.78274997 -54.57874983 362.86882852 -49.07519531 360.04614258 C-47.09127341 359.04601254 -45.09068371 358.11736719 -43.0625 357.2109375 C-12.36439497 343.40804871 15.68677497 320.65844573 35 293 C35.72058594 291.97390625 36.44117188 290.9478125 37.18359375 289.890625 C42.06863908 282.61094961 46.23758356 275.00932522 50.3125 267.25 C50.8163623 266.29174316 51.32022461 265.33348633 51.83935547 264.34619141 C60.43527123 247.69716914 66.56302133 229.42417939 70 211 C70.26816528 209.59862793 70.26816528 209.59862793 70.54174805 208.16894531 C72.26917852 197.88592488 72.33840138 187.68346549 72.31567383 177.27929688 C72.31252007 174.26916019 72.33603181 171.26001558 72.36132812 168.25 C72.41550767 152.08217764 70.47199955 137.00525571 66.0625 121.4375 C65.70381836 120.09848633 65.70381836 120.09848633 65.33789062 118.73242188 C63.91780278 113.60286974 62.15775589 108.834405 59.91723633 104.00805664 C58.72236077 101.39217923 57.7733258 98.70945513 56.8125 96 C51.91159135 83.14638988 44.99270129 71.16809619 37 60 C35.97132813 58.55947266 35.97132813 58.55947266 34.921875 57.08984375 C24.13003202 42.35781349 12.30967755 29.36575951 -2 18 C-2.99 17.19304687 -3.98 16.38609375 -5 15.5546875 C-12.89251392 9.26040765 -21.20316852 4.14689853 -29.98046875 -0.82104492 C-32.06353173 -2.03708834 -34.08594539 -3.32631254 -36.11328125 -4.6328125 C-39.41742107 -6.71553207 -42.69035537 -8.23064482 -46.375 -9.5625 C-50.19274968 -10.95911982 -53.96920812 -12.40160741 -57.72265625 -13.9609375 C-63.06833004 -16.10735223 -68.48478321 -17.64469385 -74.0625 -19.0625 C-75.064021 -19.31926514 -76.06554199 -19.57603027 -77.09741211 -19.84057617 C-90.29257295 -23.15700697 -103.3680578 -25.52345965 -117 -26 C-117.68191406 -26.02723145 -118.36382812 -26.05446289 -119.06640625 -26.08251953 C-174.22209118 -28.04355574 -225.65001545 -5.75525367 -265 32 Z " fill="#73BF0D" transform="translate(627,303)"/>
<path d="M0 0 C5.94 0 11.88 0 18 0 C18 6.6 18 13.2 18 20 C20.7534375 20.061875 20.7534375 20.061875 23.5625 20.125 C34.97096879 21.00928088 45.36595433 25.48671987 54 33 C55.010625 33.721875 56.02125 34.44375 57.0625 35.1875 C66.99481316 43.66235416 71.61975203 57.57776829 73 70 C64.75 70.99 56.5 71.98 48 73 C47.2575 70.97875 46.515 68.9575 45.75 66.875 C42.32519368 58.06017815 38.54637077 52.68562181 31 47 C26.71 45.35 22.42 43.7 18 42 C18.33 64.77 18.66 87.54 19 111 C23.62 112.32 28.24 113.64 33 115 C52.4119394 121.74123714 66.15517313 130.64469228 75.3125 149.5 C81.54086962 164.49620324 79.52394849 180.53310625 73.6875 195.3125 C71.33957917 200.61653802 68.47825424 205.36529295 65 210 C64.38253906 210.82757812 63.76507812 211.65515625 63.12890625 212.5078125 C53.61760848 223.64213907 38.39005514 230.46706182 24.0625 231.625 C21.0615625 231.810625 21.0615625 231.810625 18 232 C18 240.25 18 248.5 18 257 C12.06 257 6.12 257 0 257 C0 248.75 0 240.5 0 232 C-2.31 232 -4.62 232 -7 232 C-24.88752211 228.76052749 -39.66946627 220.99258573 -50.1796875 205.88671875 C-56.76353155 195.44581585 -60.25160332 184.32856267 -60 172 C-51.31163005 170.79268308 -42.79705092 169.61935837 -34 170 C-33.93683594 170.70382812 -33.87367188 171.40765625 -33.80859375 172.1328125 C-32.32932082 184.06042373 -27.83206613 194.87095359 -18.2578125 202.44921875 C-11.82281945 206.86910152 -8.08622865 207.98922142 0 209 C0 183.92 0 158.84 0 133 C-5.28 131.68 -10.56 130.36 -16 129 C-30.46049774 124.06641842 -42.92241229 115.83591054 -49.9375 101.9375 C-56.4989439 88.39579664 -57.51023241 71.27549628 -53.4375 56.75 C-47.48759641 40.90446728 -36.79610546 31.34726518 -22 24 C-19.0352534 22.76822849 -16.11245835 21.77811459 -13 21 C-12.154375 20.773125 -11.30875 20.54625 -10.4375 20.3125 C-6.985032 19.8698759 -3.4807257 20 0 20 C0 13.4 0 6.8 0 0 Z " fill="#FAFCF8" transform="translate(492,349)"/>
<path d="M0 0 C5.61 0 11.22 0 17 0 C17 5.94 17 11.88 17 18 C18.711875 18.061875 20.42375 18.12375 22.1875 18.1875 C34.29787701 19.22756767 46.69579932 24.59881162 55.28515625 33.3203125 C62.1882379 41.55239866 69 52.87799243 69 64 C61.00861581 65.08446979 53.02114786 66.15566865 45 67 C44.78085937 66.2265625 44.56171875 65.453125 44.3359375 64.65625 C41.36425421 54.89559919 37.93189915 48.17775734 28.9296875 43.0078125 C28.29289063 42.67523437 27.65609375 42.34265625 27 42 C26.38382813 41.64679687 25.76765625 41.29359375 25.1328125 40.9296875 C22.453155 39.65865207 22.453155 39.65865207 17 39 C17 60.12 17 81.24 17 103 C22.94 103.99 22.94 103.99 29 105 C46.43749966 110.45766704 60.22331855 118.9031685 69.5546875 134.875 C72.91700849 142.14488323 73.35991185 148.91910361 73.3125 156.8125 C73.30686035 157.79009277 73.3012207 158.76768555 73.29541016 159.77490234 C73.18051507 166.58783958 72.68387688 172.66645721 70 179 C69.5978125 179.97839844 69.195625 180.95679688 68.78125 181.96484375 C62.33715709 196.15974841 51.44543107 205.6878606 36.90234375 211.15625 C30.70517582 212.95784929 24.35808091 213.92235917 18 215 C17.67 222.59 17.34 230.18 17 238 C11.72 238 6.44 238 1 238 C0.67 230.41 0.34 222.82 0 215 C-2.3925 214.608125 -4.785 214.21625 -7.25 213.8125 C-21.71864586 211.1869213 -34.90414543 205.01257617 -44.375 193.37890625 C-51.12835391 183.49238574 -56 172.11538209 -56 160 C-53.14694871 159.49279088 -50.29283186 158.99406366 -47.4375 158.5 C-46.63763672 158.35691406 -45.83777344 158.21382812 -45.01367188 158.06640625 C-40.26475402 157.25230605 -35.81753923 156.84480411 -31 157 C-30.86464844 157.87140625 -30.72929688 158.7428125 -30.58984375 159.640625 C-28.70891663 170.04767087 -25.61723509 179.79496709 -16.9375 186.5625 C-15.64552346 187.40725389 -14.33415289 188.22356676 -13 189 C-11.989375 189.598125 -10.97875 190.19625 -9.9375 190.8125 C-6.43015755 192.36701224 -6.43015755 192.36701224 0 193 C0 169.57 0 146.14 0 122 C-3.3 121.67 -6.6 121.34 -10 121 C-24.7684211 116.5065359 -38.0280358 108.62724673 -45.97265625 95.01171875 C-52.64502561 81.94605252 -53.32073867 64.64645428 -49.1015625 50.66796875 C-42.95068975 35.7706422 -31.56893087 26.47348032 -17.0625 20.125 C-11.61030112 18.23814561 -5.70316369 18.29703978 0 18 C0 12.06 0 6.12 0 0 Z " fill="#FAFCF8" transform="translate(761,636)"/>
<path d="M0 0 C33.43999396 -1.45879168 64.56381682 5.0849044 94 21 C94.90878906 21.4434375 95.81757812 21.886875 96.75390625 22.34375 C137.2375524 42.61647662 167.86994278 83.85235918 182 126 C182.91437577 128.7859475 183.80731998 131.5780711 184.6875 134.375 C184.88980225 135.01638916 185.09210449 135.65777832 185.30053711 136.31860352 C190.00364439 151.50135427 191.35172714 166.0249751 191.31567383 181.84570312 C191.31252092 184.73085616 191.33602518 187.61497341 191.36132812 190.5 C191.40100211 202.000773 190.49885852 212.77295856 188 224 C187.79060791 224.95293945 187.58121582 225.90587891 187.36547852 226.88769531 C186.82864044 229.18966427 186.24622535 231.46951341 185.625 233.75 C185.40932373 234.54744629 185.19364746 235.34489258 184.97143555 236.16650391 C178.15179123 260.76886109 165.89088778 284.7989908 149 304 C148.30519531 304.804375 147.61039063 305.60875 146.89453125 306.4375 C144.63888127 309.00129888 142.33457633 311.5078306 140 314 C139.30463135 314.74636719 139.30463135 314.74636719 138.59521484 315.5078125 C123.73943724 331.32281271 105.80719128 344.03680513 86 353 C85.01 353 84.02 353 83 353 C83 353.66 83 354.32 83 355 C76.00637426 357.35269894 69.00568113 359.68345825 62 362 C60.97181152 362.34248779 60.97181152 362.34248779 59.92285156 362.69189453 C52.32751787 365.20916961 44.91700494 366.88324364 37 368 C35.97648438 368.185625 34.95296875 368.37125 33.8984375 368.5625 C14.23729864 371.81675747 -7.85883032 371.88959067 -27 366 C-28.58050019 365.67347305 -30.16421527 365.36231243 -31.75 365.0625 C-39.76978316 363.49261832 -47.37707881 361.50484249 -54.78515625 358.015625 C-56.99404687 357.00272983 -59.22225693 356.15753115 -61.5 355.3125 C-80.01898395 347.89918185 -96.544273 336.65559451 -111 323 C-112.3087602 321.89140313 -113.62116359 320.78709026 -114.9375 319.6875 C-133.92915407 303.06502611 -148.13700548 281.05506023 -158 258 C-158.52207031 256.824375 -159.04414062 255.64875 -159.58203125 254.4375 C-163.59470268 245.0102618 -166.25897493 235.42249363 -168.46386719 225.42431641 C-168.79802972 223.9132809 -169.1431457 222.40457479 -169.50488281 220.89990234 C-173.37984811 204.61782766 -172.27896909 187.61511299 -172 171 C-168.05535322 169.27632937 -164.16211175 167.63698995 -160.0625 166.3125 C-158.90427734 165.93544922 -158.90427734 165.93544922 -157.72265625 165.55078125 C-157.15417969 165.36902344 -156.58570313 165.18726563 -156 165 C-156.01571045 165.98581055 -156.0314209 166.97162109 -156.04760742 167.98730469 C-156.70743164 194.67073653 -156.70743164 194.67073653 -153 221 C-152.83371094 221.70463379 -152.66742187 222.40926758 -152.49609375 223.13525391 C-145.46409588 251.59531195 -131.87109133 277.3110667 -112.0078125 298.80078125 C-110.29852598 300.67301532 -108.70856551 302.58530535 -107.125 304.5625 C-103.0205805 309.3772998 -97.96618429 313.12139697 -93 317 C-91.65808594 318.0828125 -91.65808594 318.0828125 -90.2890625 319.1875 C-78.66884336 328.30139736 -65.73417819 336.15447802 -51.7578125 341.0234375 C-49.30440513 341.89220781 -47.07516879 342.90433608 -44.75 344.0625 C-31.03069433 350.30314181 -13.87575888 352.26728794 1 353 C1.97090576 353.05099854 1.97090576 353.05099854 2.96142578 353.10302734 C30.44993608 354.35917128 57.41307701 348.02516863 82 336 C82.66660645 335.67628418 83.33321289 335.35256836 84.02001953 335.01904297 C99.33169463 327.48764389 112.3492602 317.3692699 125 306 C125.67546875 305.39800781 126.3509375 304.79601562 127.046875 304.17578125 C152.71161195 279.91649418 169.60909683 242.72355035 173.625 208.125 C174 205 174 205 175 204 C175.13893953 201.50637073 175.2126902 199.04254711 175.23828125 196.546875 C175.24793915 195.78332199 175.25759705 195.01976898 175.26754761 194.233078 C175.2925644 191.73867018 175.30497447 189.24452016 175.3125 186.75 C175.31545074 185.90631866 175.31840149 185.06263733 175.32144165 184.19338989 C175.3313504 171.79518145 174.65141382 160.05022372 171.51708984 147.99365234 C171.03586135 146.13826431 170.61875795 144.26656938 170.20703125 142.39453125 C169.01352893 137.08641322 167.42866234 132.29234933 165.0859375 127.38671875 C163.81698825 124.59776914 162.79538429 121.75506879 161.75 118.875 C154.05363042 98.83188647 141.3037663 81.81605878 127 66 C126.10087891 64.99259766 126.10087891 64.99259766 125.18359375 63.96484375 C113.74285569 51.835941 98.53907947 41.89593998 84 34 C83.163479 33.54351074 82.32695801 33.08702148 81.46508789 32.61669922 C73.61945381 28.49625007 65.67767452 25.73767747 57.1875 23.25 C55.31094727 22.67185547 55.31094727 22.67185547 53.39648438 22.08203125 C38.88315422 17.76018435 24.58935795 16.69418981 9.5625 16.375 C8.04099689 16.33667417 6.51951207 16.29761496 4.99804688 16.2578125 C1.33220201 16.16346556 -2.33378584 16.07888469 -6 16 C-4.25192871 10.53262809 -2.34205919 5.24175152 0 0 Z " fill="#F8FBF5" transform="translate(762,572)"/>
<path d="M0 0 C13.00867488 2.60173498 24.05790874 7.63956299 32 18.6875 C34.53120797 23.62164527 34.4606517 28.69345904 34.5 34.125 C34.50966797 35.41410278 34.50966797 35.41410278 34.51953125 36.72924805 C34.31938245 46.69531132 29.88796258 54.64039191 23.21875 61.953125 C16.50748136 68.27932085 9.25595245 72 0 72 C0 48.24 0 24.48 0 0 Z " fill="#72BF0C" transform="translate(510,487)"/>
<path d="M0 0 C11.52986106 2.30597221 22.29030074 6.95283376 29 17 C33.53346868 25.897065 33.4993505 36.55049588 30.4375 46 C26.96664868 54.11083151 21.03940853 60.32802102 13 64 C4.07258065 67 4.07258065 67 0 67 C0 44.89 0 22.78 0 0 Z " fill="#72BF0D" transform="translate(778,763)"/>
<path d="M0 0 C0 21.45 0 42.9 0 65 C-10.78344655 62.30413836 -20.29527713 58.78861134 -26.28125 48.87890625 C-30.81096282 40.0621438 -31.81983318 30.11936272 -28.9765625 20.55859375 C-24.57188078 11.03134019 -17.79992751 4.77134309 -8.23828125 0.59375 C-6 0 -6 0 0 0 Z " fill="#71BF0A" transform="translate(492,391)"/>
<path d="M0 0 C0 19.47 0 38.94 0 59 C-11.27298946 56.74540211 -17.1789211 54.26355436 -23.80859375 45.02734375 C-26.80851665 39.92255691 -27.33812301 35.48754406 -27.3125 29.625 C-27.33666992 28.53058594 -27.33666992 28.53058594 -27.36132812 27.4140625 C-27.36858244 19.28922581 -24.4271034 13.82727336 -18.97265625 7.86328125 C-13.17671409 2.38869826 -8.02013933 0 0 0 Z " fill="#71BF0A" transform="translate(761,675)"/>
<path d="M0 0 C0 21.45 0 42.9 0 65 C-0.66 64.67 -1.32 64.34 -2 64 C-1.67 43.87 -1.34 23.74 -1 3 C-3.64 2.67 -6.28 2.34 -9 2 C-6 0 -6 0 0 0 Z " fill="#87CA31" transform="translate(492,391)"/>
<path d="M0 0 C0.66 0 1.32 0 2 0 C2.5625 1.9375 2.5625 1.9375 3 4 C2.67 4.33 2.34 4.66 2 5 C1.84011509 7.51880517 1.74065775 10.01342266 1.68359375 12.53515625 C1.66281265 13.28840683 1.64203156 14.04165741 1.62062073 14.81773376 C1.55504575 17.2325599 1.49620379 19.64749798 1.4375 22.0625 C1.3943223 23.69597529 1.35070827 25.3294391 1.30664062 26.96289062 C1.19935638 30.97514464 1.09811179 34.98751164 1 39 C0.67 39 0.34 39 0 39 C0 26.13 0 13.26 0 0 Z " fill="#65B602" transform="translate(779,764)"/>
<path d="M0 0 C0.66 0.33 1.32 0.66 2 1 C1.04367001 2.29315061 0.08486149 3.58446853 -0.875 4.875 C-1.40867187 5.59429688 -1.94234375 6.31359375 -2.4921875 7.0546875 C-4 9 -4 9 -6 11 C-6.99 10.67 -7.98 10.34 -9 10 C-6.03 6.7 -3.06 3.4 0 0 Z " fill="#77C11B" transform="translate(958,912)"/>
<path d="M0 0 C1.07310858 3.27185553 0.89263102 5.42947592 0.0625 8.75 C-0.13214844 9.54921875 -0.32679688 10.3484375 -0.52734375 11.171875 C-0.76130859 12.07679688 -0.76130859 12.07679688 -1 13 C-2.32 13.33 -3.64 13.66 -5 14 C-3.45730076 9.27934033 -1.92205381 4.58335908 0 0 Z " fill="#E5F3D6" transform="translate(317,405)"/>
<path d="M0 0 C0.33 0 0.66 0 1 0 C1.32332002 4.63425362 0.8644432 7.28683289 -2 11 C-2.99 11.33 -3.98 11.66 -5 12 C-4.54738642 10.56068883 -4.08767021 9.12361001 -3.625 7.6875 C-3.24214844 6.48673828 -3.24214844 6.48673828 -2.8515625 5.26171875 C-2 3 -2 3 0 0 Z " fill="#8BCA38" transform="translate(745,576)"/>
<path d="M0 0 C0.33 0 0.66 0 1 0 C1 6.6 1 13.2 1 20 C-0.65 20 -2.3 20 -4 20 C-3.5155542 19.5877417 -3.0311084 19.1754834 -2.53198242 18.75073242 C-0.70832867 16.66668126 -0.59077411 15.71459137 -0.48828125 12.98828125 C-0.43510742 11.85229492 -0.43510742 11.85229492 -0.38085938 10.69335938 C-0.35830078 9.90767578 -0.33574219 9.12199219 -0.3125 8.3125 C-0.27833984 7.51521484 -0.24417969 6.71792969 -0.20898438 5.89648438 C-0.12661896 3.93148096 -0.06162933 1.96576304 0 0 Z " fill="#69B703" transform="translate(490,348)"/>
<path d="M0 0 C0.33 0 0.66 0 1 0 C1.66 5.94 2.32 11.88 3 18 C2.34 18 1.68 18 1 18 C-0.32594359 12.03325384 -0.0884587 6.07416385 0 0 Z " fill="#8ACC35" transform="translate(532,791)"/>
<path d="M0 0 C0.66 0.33 1.32 0.66 2 1 C-0.3833861 4.14947449 -2.55084975 6.9972676 -6 9 C-6.99 8.67 -7.98 8.34 -9 8 C-6.03 5.36 -3.06 2.72 0 0 Z " fill="#7CC322" transform="translate(390,332)"/>
<path d="M0 0 C0.99 0.33 1.98 0.66 3 1 C1.02 3.31 -0.96 5.62 -3 8 C-3.66 7.01 -4.32 6.02 -5 5 C-3.35 3.35 -1.7 1.7 0 0 Z " fill="#EFF7E5" transform="translate(930,937)"/>
<path d="M0 0 C0.98120464 3.05263664 0.98120464 4.94736336 0 8 C-0.66 8 -1.32 8 -2 8 C-2.33 8.99 -2.66 9.98 -3 11 C-2.8864371 9.35333797 -2.75882619 7.70763918 -2.625 6.0625 C-2.55539062 5.14597656 -2.48578125 4.22945312 -2.4140625 3.28515625 C-2.27742187 2.53105469 -2.14078125 1.77695312 -2 1 C-1.34 0.67 -0.68 0.34 0 0 Z " fill="#81C129" transform="translate(696,520)"/>
<path d="M0 0 C0.66 0.66 1.32 1.32 2 2 C-1.465 4.97 -1.465 4.97 -5 8 C-5 5 -5 5 -2.5 2.3125 C-1.675 1.549375 -0.85 0.78625 0 0 Z " fill="#F3FAEC" transform="translate(898,886)"/>
<path d="M0 0 C0.66 0.33 1.32 0.66 2 1 C0.35 2.98 -1.3 4.96 -3 7 C-4.32 6.67 -5.64 6.34 -7 6 C-4.69 4.02 -2.38 2.04 0 0 Z " fill="#7CC421" transform="translate(551,564)"/>
<path d="M0 0 C0 0.33 0 0.66 0 1 C-5.94 1.495 -5.94 1.495 -12 2 C-9.67178678 -2.65642643 -4.2230553 -0.62307373 0 0 Z " fill="#82CD19" transform="translate(448,519)"/>
<path d="M0 0 C1 2 1 2 0.1875 5.5625 C-1 9 -1 9 -3 10 C-2.25 2.25 -2.25 2.25 0 0 Z " fill="#77BC20" transform="translate(297,421)"/>
<path d="M0 0 C0.66 0.33 1.32 0.66 2 1 C1.1875 4.4375 1.1875 4.4375 0 8 C-0.99 8.33 -1.98 8.66 -3 9 C-2.01 6.03 -1.02 3.06 0 0 Z " fill="#DEF0C8" transform="translate(702,549)"/>
<path d="M0 0 C0.66666667 2.66666667 1.33333333 5.33333333 2 8 C0.68 8.99 -0.64 9.98 -2 11 C-1.125 3.375 -1.125 3.375 0 0 Z " fill="#CCE9AD" transform="translate(311,420)"/>
</svg>
