<?xml version="1.0" encoding="UTF-8"?>
<svg version="1.1" xmlns="http://www.w3.org/2000/svg" width="1254" height="1254">
<path d="M0 0 C413.82 0 827.64 0 1254 0 C1254 413.82 1254 827.64 1254 1254 C840.18 1254 426.36 1254 0 1254 C0 840.18 0 426.36 0 0 Z " fill="#6BC508" transform="translate(0,0)"/>
<path d="M0 0 C0.65474304 -0.01007584 1.30948608 -0.02015167 1.98406982 -0.03053284 C4.12863701 -0.05880891 6.27249481 -0.06487956 8.41723633 -0.06811523 C9.92548396 -0.07777341 11.43372886 -0.08786712 12.94197083 -0.09837341 C16.09826153 -0.11628604 19.25430663 -0.1218998 22.41064453 -0.12011719 C26.42423301 -0.11981327 30.4362179 -0.1606921 34.4494276 -0.21243382 C37.56477353 -0.24605927 40.67974316 -0.25186677 43.79525185 -0.25028801 C45.2730389 -0.2537916 46.75083963 -0.26685258 48.22844505 -0.29028511 C58.95947271 -0.44448648 68.05620582 1.06419622 76.32536316 8.46043396 C83.6750808 16.02036975 84.9628619 25.94081365 86.79663086 35.94213867 C87.18245087 38.03734897 87.58414518 40.12906047 87.98754883 42.22094727 C88.2450288 43.59706829 88.50156785 44.97336577 88.75708008 46.34985352 C88.98411621 47.56624512 89.21115234 48.78263672 89.44506836 50.03588867 C90.06850491 53.91289886 90.33158813 57.79456391 90.60031128 61.71078491 C90.68755903 62.97045767 90.77480679 64.23013042 90.86469841 65.52797508 C90.96224765 66.96734397 90.96224765 66.96734397 91.06176758 68.43579102 C92.40988513 68.43408227 92.40988513 68.43408227 93.78523737 68.43233901 C147.02813428 68.36523441 200.2710267 68.31374632 253.51395741 68.28259503 C259.90399902 68.27884282 266.29404055 68.27495986 272.68408203 68.27099609 C273.95624775 68.27020916 275.22841347 68.26942223 276.53912967 68.26861145 C297.14970036 68.2555503 317.760246 68.23189255 338.37080181 68.20433263 C359.51223605 68.17629818 380.65365715 68.15961891 401.79510921 68.15352553 C414.84510704 68.14940502 427.89503407 68.13638119 440.94501012 68.11204161 C449.88854431 68.09620863 458.8320418 68.09138513 467.775589 68.09528688 C472.93890919 68.09721222 478.10210547 68.09421861 483.26540375 68.07817459 C487.99119933 68.063597 492.71678745 68.06282477 497.44259249 68.07309433 C499.15334246 68.07436396 500.86410527 68.07054031 502.57482988 68.06114147 C504.89928479 68.04911204 507.22298959 68.05558487 509.5474329 68.06664753 C511.48457616 68.06493879 511.48457616 68.06493879 513.46085364 68.06319553 C521.95865603 68.9424842 528.095426 73.6806252 533.45629883 80.10766602 C540.10122472 90.7207632 535.5088933 108.59148597 533.74926758 120.31079102 C533.51540505 121.92526017 533.28233957 123.53984497 533.05004883 125.15454102 C531.77730109 133.92476614 530.39434067 142.67041642 528.87036133 151.40063477 C527.48740888 159.70014781 526.43647226 168.05583817 525.29714966 176.39163208 C523.8367644 187.05927406 522.26452044 197.69657594 520.51342773 208.32104492 C519.00469597 217.56412453 517.74727725 226.83686419 516.4934082 236.11743164 C515.49893002 243.42468439 514.40500968 250.69883115 513.13354492 257.96264648 C512.29100037 262.84347627 511.6169886 267.73222341 510.99023438 272.64526367 C507.38214089 300.77346941 499.59106958 327.29422507 476.99926758 345.96704102 C464.62352209 355.06685387 452.63708146 359.36316279 437.29931641 359.16836548 C435.87812033 359.17226042 434.45692953 359.17880296 433.03575611 359.18772256 C429.17611026 359.20452256 425.3174387 359.18457943 421.4578805 359.15809155 C417.27783991 359.13610744 413.09788486 359.1491985 408.91781616 359.15800476 C401.68740053 359.16869287 394.45727489 359.15807643 387.22689819 359.13310623 C376.75692918 359.09733416 366.28721051 359.09874777 355.81719792 359.10970406 C338.80525873 359.12687867 321.79342189 359.12035339 304.78149414 359.09594727 C303.76513984 359.09449563 302.74878554 359.09304399 301.70163262 359.09154837 C297.58380698 359.08563537 293.46598141 359.07968231 289.34815592 359.07367227 C278.01278778 359.05736866 266.67741681 359.04580405 255.34204102 359.03637695 C254.32693644 359.035526 253.31183186 359.03467504 252.26596653 359.03379829 C235.31409332 359.02016117 218.36225019 359.02246874 201.41037655 359.03442609 C190.97195946 359.04089046 180.53376116 359.03212698 170.09538054 359.00334154 C162.93996259 358.98438658 155.78462261 358.97934678 148.6291821 358.98503448 C144.50771729 358.9877647 140.38653257 358.98396998 136.26511765 358.96234322 C132.48252402 358.94257779 128.70038293 358.94165569 124.91776502 358.95485131 C122.92234893 358.95707451 120.92693963 358.93967693 118.93160725 358.92126524 C106.95729119 358.99737446 95.39490574 361.53679245 84.74926758 367.18579102 C84.08467529 367.53158203 83.42008301 367.87737305 82.73535156 368.23364258 C69.00795155 375.59183585 58.8508748 386.41281776 54.06176758 401.43579102 C53.73176758 402.42579102 53.40176758 403.41579102 53.06176758 404.43579102 C52.62353145 410.02330161 53.34909935 414.55298821 56.06176758 419.43579102 C60.49316797 424.2794147 63.77522262 425.1106249 70.06176758 425.43579102 C69.77301758 426.71454102 69.48426758 427.99329102 69.18676758 429.31079102 C68.809902 431.01871376 68.434995 432.72706954 68.06176758 434.43579102 C67.88258789 435.25176758 67.7034082 436.06774414 67.51879883 436.90844727 C66.29099315 442.73360051 65.56261744 448.50679219 65.06176758 454.43579102 C50.09738378 454.96342845 37.71919192 455.08184064 26.06176758 444.43579102 C16.97475918 434.93573678 13.47061883 422.74122184 13.56176758 409.81079102 C13.5703479 408.3761853 13.5703479 408.3761853 13.57910156 406.91259766 C14.15674035 383.6650676 27.71194101 363.7580644 44.09692383 348.11938477 C48.18203025 344.42179832 52.37056322 341.31587729 57.06176758 338.43579102 C58.71885742 337.41678711 58.71885742 337.41678711 60.40942383 336.37719727 C69.61705549 330.85565 78.36130325 326.90024634 89.06176758 325.43579102 C88.37214432 321.19926246 87.67828429 316.96345648 86.98046875 312.72827148 C86.74362128 311.28705709 86.5079379 309.84565088 86.2734375 308.40405273 C85.93640236 306.33338865 85.59520318 304.26344775 85.25317383 302.19360352 C85.04893799 300.94724121 84.84470215 299.70087891 84.63427734 298.41674805 C84.2177253 295.52229782 84.2177253 295.52229782 83.06176758 293.43579102 C82.7864164 291.86874005 82.55306458 290.29417363 82.34301758 288.71704102 C82.21540039 287.78504883 82.0877832 286.85305664 81.95629883 285.89282227 C81.69327799 283.9214681 81.43025716 281.95011393 81.16723633 279.97875977 C81.03961914 279.04676758 80.91200195 278.11477539 80.78051758 277.15454102 C80.66643555 276.29795898 80.55235352 275.44137695 80.43481445 274.55883789 C80.15793819 272.39007011 80.15793819 272.39007011 79.06176758 270.43579102 C78.77249191 268.89121649 78.52560164 267.33860539 78.30004883 265.78344727 C78.1535791 264.79578369 78.00710938 263.80812012 77.85620117 262.79052734 C77.69716309 261.70408936 77.538125 260.61765137 77.37426758 259.49829102 C75.7979281 249.00760929 74.11408451 238.53930477 72.33358765 228.08151245 C72.07056478 226.53499138 71.80901155 224.98821959 71.54898071 223.44119263 C71.17974775 221.24726363 70.805132 219.05432004 70.42895508 216.86157227 C70.21352051 215.59740479 69.99808594 214.3332373 69.77612305 213.03076172 C69.05986432 209.42621293 68.0977488 205.95985651 67.06176758 202.43579102 C66.84820067 200.96266475 66.67400119 199.48258055 66.56176758 197.99829102 C66.28795137 194.39076244 65.48137334 191.03136788 64.57885742 187.53076172 C61.93317994 176.81189557 60.59628141 165.67683002 59.15185547 154.74365234 C58.61649013 150.80535445 58.00166955 146.96998898 57.00708008 143.11938477 C56.25684198 140.19593629 55.74939211 137.55164182 55.49926758 134.56079102 C55.29132777 132.1249247 55.16062523 130.63350633 54.06176758 128.43579102 C53.59362462 125.21365078 53.19388146 121.99109827 52.81176758 118.75805664 C52.6530447 115.30175771 52.6530447 115.30175771 51.06176758 112.43579102 C50.78878865 110.99700732 50.5710125 109.54764602 50.37817383 108.09594727 C50.19351563 106.74726562 50.19351563 106.74726562 50.00512695 105.37133789 C49.81660156 103.94917969 49.81660156 103.94917969 49.62426758 102.49829102 C48.78227994 96.18561118 47.81209191 89.95172182 46.51904297 83.71484375 C45.6822797 79.54442992 45.12724324 75.33267832 44.52661133 71.12329102 C44.20153914 68.47514314 44.20153914 68.47514314 43.06176758 66.43579102 C42.84394291 64.99066664 42.6720309 63.53842424 42.52661133 62.08422852 C42.43959961 61.23344727 42.35258789 60.38266602 42.26293945 59.50610352 C42.17592773 58.61665039 42.08891602 57.72719727 41.99926758 56.81079102 C41.86294922 55.46500977 41.86294922 55.46500977 41.72387695 54.09204102 C41.49967466 51.8736183 41.27912192 49.65489342 41.06176758 47.43579102 C40.45090805 47.44245285 39.84004852 47.44911469 39.2106781 47.45597839 C32.83516723 47.52250759 26.45975549 47.56766457 20.08398438 47.60058594 C17.70666496 47.61564354 15.32937319 47.63609391 12.95214844 47.66210938 C9.52898319 47.69862505 6.10618626 47.7155481 2.68286133 47.72875977 C1.09652138 47.75198555 1.09652138 47.75198555 -0.52186584 47.77568054 C-7.64568766 47.77729393 -12.85140874 47.21091589 -18.33666992 42.27954102 C-18.98893555 41.50610352 -19.64120117 40.73266602 -20.31323242 39.93579102 C-20.9809668 39.16235352 -21.64870117 38.38891602 -22.33666992 37.59204102 C-26.52460513 31.95365019 -25.42721011 24.1278 -24.93823242 17.43579102 C-23.3663635 11.24300624 -19.2554373 6.83039074 -13.93823242 3.43579102 C-9.05905794 1.06104497 -5.50809563 0.05365005 0 0 Z " fill="#FCFDFC" transform="translate(309.938232421875,464.564208984375)"/>
<path d="M0 0 C1.25598999 -0.00204437 2.51197998 -0.00408875 3.80603027 -0.00619507 C7.24010351 -0.01131395 10.67387528 0.00217756 14.10790014 0.01933193 C17.71028223 0.0344168 21.31266119 0.03319514 24.91506958 0.03399658 C30.96589266 0.03768534 37.01660204 0.05262983 43.06738281 0.07519531 C50.8170509 0.10403898 58.56662737 0.11441756 66.31634331 0.11887741 C72.99748547 0.12286925 79.678608 0.1353706 86.35973597 0.14922428 C88.49791958 0.15330795 90.63610251 0.1562414 92.77428818 0.15901947 C96.77143576 0.16485995 100.76850422 0.17955592 104.765625 0.1953125 C105.94303253 0.19643036 107.12044006 0.19754822 108.33352661 0.19869995 C124.89745724 0.28498469 138.65334461 4.99937531 151.13720703 16.41894531 C159.94107399 26.05973524 165.59382842 38.0935601 170.94970703 49.85644531 C171.62634654 51.32126331 172.30419462 52.78552356 172.9831543 54.24926758 C174.05152269 56.55315899 175.11901882 58.85741872 176.182724 61.16346741 C179.99402351 69.42502255 183.89216457 77.64487984 187.79544067 85.86328125 C188.9089815 88.20818515 190.02129803 90.55366473 191.13305664 92.89941406 C191.66184166 94.01511276 191.66184166 94.01511276 192.2013092 95.15335083 C192.9018319 96.63157699 193.60230249 98.10982783 194.30271912 99.58810425 C196.17926369 103.5478025 198.05890848 107.50599508 199.94238281 111.46240234 C200.34618668 112.31185928 200.74999054 113.16131622 201.16603088 114.03651428 C201.93769289 115.65977695 202.71035926 117.28256271 203.48423767 118.9047699 C205.59597496 123.35042296 207.58798443 127.82668799 209.51220703 132.35644531 C210.49578055 134.36457458 211.49529439 136.3649914 212.51220703 138.35644531 C214.13840895 141.57680576 215.74729648 144.7767695 217.13720703 148.10644531 C218.18803979 150.59023183 219.29384088 152.9563556 220.51220703 155.35644531 C222.01802305 158.32830108 223.39031901 161.32641406 224.67236328 164.40332031 C225.68940574 166.76853534 226.79341251 169.08824298 227.88720703 171.41894531 C234.3355437 185.58190833 237.90657886 198.32432008 237.88720703 213.85644531 C237.8863208 215.15727051 237.88543457 216.4580957 237.88452148 217.79833984 C237.75642614 233.12627692 235.63630434 248.20136899 233.51220703 263.35644531 C232.97803666 267.22977937 232.45524699 271.10426894 231.94970703 274.98144531 C231.77133301 276.34172852 231.77133301 276.34172852 231.58935547 277.72949219 C230.14517212 289.38527167 229.39756446 301.11668401 228.60180664 312.83154297 C228.04452503 320.82579839 227.36825487 328.53396041 225.51220703 336.35644531 C226.79095703 336.25332031 228.06970703 336.15019531 229.38720703 336.04394531 C236.17833475 336.07597893 241.6864295 338.72357142 246.62939453 343.32910156 C251.04884612 348.23450945 253.76157206 351.96761603 253.77783203 358.72363281 C253.78218262 359.7676123 253.7865332 360.8115918 253.79101562 361.88720703 C253.78150879 362.99080566 253.77200195 364.0944043 253.76220703 365.23144531 C253.75398926 366.35953613 253.74577148 367.48762695 253.73730469 368.64990234 C253.54275896 383.19062636 252.88606821 396.47839849 241.88720703 407.29394531 C231.57201807 415.15424059 219.82288471 414.90714922 207.49658203 414.74707031 C205.78738066 414.73959288 204.0781706 414.73390707 202.36895752 414.72991943 C197.91037556 414.71478109 193.45233016 414.67560405 188.99395752 414.63110352 C184.4284999 414.58989332 179.86295402 414.57185391 175.29736328 414.55175781 C166.3687445 414.50909589 157.4405207 414.4409912 148.51220703 414.35644531 C148.45814697 413.15133301 148.40408691 411.9462207 148.34838867 410.70458984 C148.26918251 409.09113096 148.18965697 407.47768774 148.10986328 405.86425781 C148.07526001 405.0738208 148.04065674 404.28338379 148.00500488 403.46899414 C146.82309894 380.29413497 135.12173514 358.8624135 118.53564453 342.92675781 C113.23835125 338.42337412 107.51827111 334.83475206 101.51220703 331.35644531 C100.67044922 330.86402344 99.82869141 330.37160156 98.96142578 329.86425781 C78.40207871 318.73802293 49.67557588 316.32367936 27.11962891 322.44995117 C9.24536737 327.93786489 -5.22896408 337.29089382 -18.48779297 350.35644531 C-19.47392578 351.32324219 -19.47392578 351.32324219 -20.47998047 352.30957031 C-36.40105155 369.18443828 -42.75769214 391.86513458 -44.48779297 414.35644531 C-141.83779297 414.35644531 -239.18779297 414.35644531 -339.48779297 414.35644531 C-340.47779297 402.47644531 -340.47779297 402.47644531 -341.48779297 390.35644531 C-343.5317875 383.00911361 -345.94302034 376.52815821 -349.08227539 369.63696289 C-349.53269699 368.64771317 -349.98311859 367.65846344 -350.44718933 366.63923645 C-350.79058853 365.88591537 -351.13398773 365.1325943 -351.48779297 364.35644531 C-350.44602654 364.35497875 -349.4042601 364.35351219 -348.33092499 364.35200119 C-322.93078498 364.31533444 -297.53077611 364.25579102 -272.13074493 364.17254257 C-259.84725234 364.13280791 -247.56382329 364.10038713 -235.28027344 364.08544922 C-224.56843082 364.0724038 -213.85672836 364.0453655 -203.14496469 364.00183225 C-197.47814795 363.97928244 -191.81150365 363.96353074 -186.14463806 363.96456146 C-180.79953637 363.96531191 -175.45481497 363.94720755 -170.10981178 363.91527748 C-168.15890554 363.90683076 -166.20795637 363.90499254 -164.25704002 363.91064262 C-136.66623376 363.97984148 -113.17236114 355.4398083 -92.98779297 336.29394531 C-87.06751707 330.24946782 -82.70353394 323.66592966 -78.48779297 316.35644531 C-77.92189453 315.37933594 -77.35599609 314.40222656 -76.77294922 313.39550781 C-68.65568106 298.31763056 -66.6460887 282.61450554 -64.87353516 265.83837891 C-64.19427747 259.70700355 -63.37161947 253.59515261 -62.55029297 247.48144531 C-62.38279541 246.22662354 -62.21529785 244.97180176 -62.04272461 243.67895508 C-60.73974648 234.01007444 -59.30990928 224.36272977 -57.84960938 214.71655273 C-56.70881992 207.09596564 -55.8053858 199.47994079 -55.01513672 191.81640625 C-54.53440666 187.50623598 -53.82865491 183.25534583 -53.07763672 178.98535156 C-51.61633444 170.4404051 -50.46702527 161.87677439 -49.41033936 153.27365112 C-47.72576262 139.5884953 -45.89990424 125.93103661 -43.86279297 112.29394531 C-43.70454041 111.23252319 -43.70454041 111.23252319 -43.54309082 110.1496582 C-43.03821334 106.76391747 -42.53261069 103.37828552 -42.02685547 99.99267578 C-40.11814502 87.11752478 -38.4501338 74.22713997 -36.98779297 61.29394531 C-36.06250497 53.11280178 -35.07643388 44.9466365 -33.92529297 36.79394531 C-33.81056641 35.96822021 -33.69583984 35.14249512 -33.57763672 34.29174805 C-31.86573674 22.45556462 -30.12202984 12.94351763 -20.68310547 4.89941406 C-13.77302806 0.04268706 -8.23908029 -0.06426082 0 0 Z " fill="#FCFDFB" transform="translate(912.48779296875,506.6435546875)"/>
<path d="M0 0 C5.01186479 4.57483762 7.98276196 9.94776803 10.54296875 16.171875 C11.07535156 17.32816406 11.60773438 18.48445313 12.15625 19.67578125 C14.24989419 25.35406853 13.97860166 31.13029631 13.91796875 37.109375 C13.92957031 38.21861328 13.94117188 39.32785156 13.953125 40.47070312 C13.90002235 55.95012534 10.1782923 70.59701431 5.85546875 85.359375 C5.63576416 86.1181192 5.41605957 86.8768634 5.18969727 87.65859985 C1.50239088 100.37224983 -2.56165106 112.86595018 -7.45703125 125.171875 C-7.98103516 126.50629639 -7.98103516 126.50629639 -8.515625 127.86767578 C-15.69891696 146.03999845 -24.08531486 163.66521768 -32.54388428 181.26947021 C-33.39991637 183.05288471 -34.25209859 184.83814569 -35.10400391 186.62353516 C-36.48011966 189.5000523 -37.87046762 192.36896452 -39.26953125 195.234375 C-39.65947266 196.04874023 -40.04941406 196.86310547 -40.45117188 197.70214844 C-41.37591226 199.56574103 -42.40624379 201.3763339 -43.45703125 203.171875 C-46.58524154 204.21461176 -48.70131658 204.28136941 -51.98088074 204.25416565 C-53.12932968 204.24712616 -54.27777863 204.24008667 -55.46102905 204.23283386 C-56.72194366 204.21988785 -57.98285828 204.20694183 -59.28198242 204.19360352 C-60.62230612 204.18345992 -61.96263328 204.17376633 -63.30296326 204.16448975 C-66.94321314 204.13801681 -70.58338232 204.10523566 -74.22356963 204.07133985 C-78.02721709 204.03698885 -81.83090778 204.00841443 -85.63459778 203.97923279 C-92.83814333 203.92308709 -100.04163473 203.86173041 -107.2451213 203.79851145 C-115.44572856 203.72679458 -123.64637918 203.66087185 -131.84703863 203.59544098 C-148.7170928 203.46070924 -165.58707794 203.31868438 -182.45703125 203.171875 C-181.84233003 198.59194147 -181.04596404 194.49111817 -179.48828125 190.13671875 C-179.08625488 189.00790283 -178.68422852 187.87908691 -178.27001953 186.71606445 C-177.8367334 185.52585693 -177.40344727 184.33564941 -176.95703125 183.109375 C-176.28969971 181.25928833 -176.28969971 181.25928833 -175.60888672 179.37182617 C-153.98361909 119.77607496 -122.93830116 49.89943032 -71.45703125 10.171875 C-70.74417969 9.56988281 -70.03132812 8.96789062 -69.296875 8.34765625 C-50.20112074 -7.53572813 -21.60635537 -16.0759528 0 0 Z " fill="#FCFDFB" transform="translate(883.45703125,308.828125)"/>
<path d="M0 0 C0.93061752 -0.00686325 1.86123505 -0.0137265 2.8200531 -0.02079773 C5.89955881 -0.03911124 8.97855691 -0.03521963 12.05810547 -0.02954102 C14.20319789 -0.03410262 16.34828885 -0.03940813 18.49337769 -0.04542542 C22.99418056 -0.05436696 27.49480613 -0.0519238 31.99560547 -0.04199219 C37.74548287 -0.03053724 43.49474296 -0.05065557 49.24453926 -0.07990932 C53.67827203 -0.09832147 58.11185852 -0.09796824 62.54561996 -0.0922718 C64.66417172 -0.09211901 66.78273366 -0.09812851 68.90124893 -0.11056328 C71.87595622 -0.12555527 74.84954479 -0.11473369 77.82421875 -0.09765625 C79.1213958 -0.1121582 79.1213958 -0.1121582 80.44477844 -0.12695312 C88.31420994 -0.03305019 96.19105363 2.24439285 102.11279297 7.65405273 C102.70705078 8.17483398 103.30130859 8.69561523 103.91357422 9.23217773 C109.39829441 15.5458515 112.7693424 23.20906093 116.30029297 30.71655273 C117.36119396 32.94976673 118.42240256 35.18283462 119.48388672 37.41577148 C120.02899902 38.56609863 120.57411133 39.71642578 121.13574219 40.90161133 C123.85445406 46.62215115 126.61010714 52.32480537 129.36279297 58.02905273 C133.77835075 67.19219945 138.17531841 76.36400428 142.55737305 85.54321289 C145.44728238 91.59093551 148.35479736 97.62998959 151.27424622 103.66349792 C152.80557346 106.82825099 154.33510347 109.99383343 155.85913086 113.16210938 C158.29343545 118.22183521 160.72718448 123.28002261 163.24560547 128.29858398 C163.58172852 128.98114258 163.91785156 129.66370117 164.26416016 130.36694336 C165.08662913 132.0365642 165.92309849 133.69927059 166.76123047 135.36108398 C168.11746494 139.33291352 168.1131795 142.21484969 167.80029297 146.40405273 C165.93014203 148.83524896 164.51890952 150.04474446 161.80029297 151.40405273 C159.31792382 151.50819201 156.86321136 151.55185078 154.3802948 151.55122375 C153.60623883 151.55490044 152.83218286 151.55857713 152.03467065 151.56236523 C149.42683437 151.57342612 146.8190379 151.57724996 144.21118164 151.58105469 C142.34710055 151.58731748 140.48302072 151.59396411 138.61894226 151.60096741 C133.54451099 151.61839325 128.47008916 151.62893329 123.39563537 151.63717294 C120.22730517 151.64231929 117.05897792 151.64839516 113.8906498 151.65468407 C103.98346674 151.67373979 94.07629117 151.68797062 84.16909331 151.69629604 C72.72200352 151.70607357 61.27510684 151.73240501 49.82808512 151.77279693 C40.9872738 151.80292523 32.14651793 151.81776175 23.30565625 151.82107705 C18.02202981 151.82343112 12.73860958 151.83243799 7.45503807 151.85753822 C2.48509747 151.88076676 -2.48450038 151.88507323 -7.45448112 151.87477684 C-9.27942162 151.87428011 -11.10437869 151.8806408 -12.92926788 151.89433289 C-15.41951145 151.91197289 -17.90851443 151.90498531 -20.39875793 151.89179993 C-21.12210966 151.90276917 -21.84546139 151.91373842 -22.59073287 151.92504007 C-27.39215529 151.86359879 -29.82813221 150.8074352 -33.19970703 147.40405273 C-36.44460701 140.91425277 -33.78724304 130.7534153 -32.87939453 123.83764648 C-32.74020096 122.74134918 -32.60100739 121.64505188 -32.45759583 120.51553345 C-32.00337549 116.95663653 -31.53946194 113.39908804 -31.07470703 109.84155273 C-30.75662435 107.37273813 -30.43867306 104.90390659 -30.12084961 102.43505859 C-27.96579904 85.79829656 -25.65764621 69.18703311 -23.15429688 52.59912109 C-21.48558473 41.53552049 -19.99967328 30.46541707 -18.73803711 19.34692383 C-17.85572888 11.73082673 -16.97417886 7.32740499 -11.64187622 1.78477478 C-7.87552865 -0.34459412 -4.25644985 -0.02185013 0 0 Z " fill="#6DC50A" transform="translate(931.19970703125,545.595947265625)"/>
<path d="M0 0 C0.80695313 0.3403125 1.61390625 0.680625 2.4453125 1.03125 C14.2436034 6.37114925 22.25619003 15.13547729 27.28515625 27.04296875 C28.25690481 29.67957685 29.15785468 32.31962348 30 35 C30.33 35.99 30.66 36.98 31 38 C31.12500284 39.76948458 31.22672727 41.54068048 31.3125 43.3125 C31.82520556 49.56420006 33.57145581 52.57145581 38 57 C44.66799592 58.18972541 49.31092148 56.19366782 55 53 C62.85992348 48.88944921 71.78020509 48.60516169 80.2890625 50.87890625 C89.62826855 54.46090553 96.86261476 59.7704483 101 69 C104.92676554 79.65191571 104.49600662 93.69665151 100 104 C98.66598223 103.56459142 97.33283226 103.12652414 96 102.6875 C95.2575 102.44386719 94.515 102.20023437 93.75 101.94921875 C92.22893034 101.42419044 90.71190125 100.88426296 89.21875 100.28442383 C84.20134166 98.28530019 79.32586463 97.15706952 74 96.3125 C72.83791016 96.11817383 72.83791016 96.11817383 71.65234375 95.91992188 C69.76941199 95.60609991 67.88486295 95.30200645 66 95 C66.43038045 116.002566 69.47177157 131.68156658 82 149 C82 149.66 82 150.32 82 151 C81.06800781 151.20753906 80.13601563 151.41507813 79.17578125 151.62890625 C61.10674615 155.99543748 46.73370018 164.74305741 36.875 180.6875 C36.1639313 181.89966263 35.45298257 183.11189565 34.7421875 184.32421875 C34.16726563 185.20722656 33.59234375 186.09023438 33 187 C32.34 187 31.68 187 31 187 C30.86464844 185.73671875 30.72929687 184.4734375 30.58984375 183.171875 C26.92460645 151.73977893 18.06295416 109.47157361 -4 85 C-6.11508491 84.14772739 -6.11508491 84.14772739 -8 84 C-8.2465729 89.30131737 -7.44558846 93.64910944 -5.75 98.625 C-5.28627142 100.04811619 -4.82273199 101.47129403 -4.359375 102.89453125 C-4.01229492 103.94181396 -4.01229492 103.94181396 -3.65820312 105.01025391 C9.46669909 144.68679436 9.46669909 144.68679436 9 158 C8.01 157.154375 7.02 156.30875 6 155.4375 C5.35289062 154.88578125 4.70578125 154.3340625 4.0390625 153.765625 C2.74781408 152.64753249 1.46980942 151.51379903 0.2109375 150.359375 C-7.56153441 143.28146441 -18.36125973 133.51982004 -29 132 C-27.58363098 136.6646884 -24.90406778 139.37515976 -21.4375 142.625 C-15.8166289 148.08109534 -10.76823837 153.77175236 -6 160 C-5.19949219 161.03382813 -4.39898437 162.06765625 -3.57421875 163.1328125 C7.28199368 177.50114205 15.17305413 191.94619411 17 210 C17.17685579 211.55876806 17.35527645 213.11735926 17.53515625 214.67578125 C17.7995773 217.00403509 18.05808926 219.33220761 18.29833984 221.66308594 C18.82390869 226.74844083 19.58448443 231.7304987 20.6328125 236.73828125 C21 239 21 239 21 244 C13.41 244 5.82 244 -2 244 C-2.4125 241.195 -2.825 238.39 -3.25 235.5 C-6.07986379 217.34470897 -9.56726962 199.76829228 -24 187 C-35.85171092 178.62984191 -49.10143265 176.40814035 -63.3125 176.25 C-64.65042743 176.22174422 -65.98832038 176.191804 -67.32617188 176.16015625 C-70.5508392 176.09030786 -73.7748193 176.03719266 -77 176 C-79.1201833 169.6394501 -79.21737604 161.62600875 -76.3125 155.5 C-74.81542399 152.93511709 -73.45934729 151.48392241 -71.25 149.375 C-68.75075833 147.1560725 -68.75075833 147.1560725 -68.375 143.9375 C-69.21983407 139.96677987 -70.68816994 139.29854166 -74 137 C-75.88314666 136.02358226 -77.79198619 135.13726821 -79.72387695 134.26147461 C-88.67581148 130.19412575 -95.65113084 125.57644493 -99.875 116.3125 C-100.24625 115.219375 -100.6175 114.12625 -101 113 C-101.34289062 112.06800781 -101.68578125 111.13601563 -102.0390625 110.17578125 C-104.39445794 102.39148658 -103.89820024 94.97091304 -100.4375 87.625 C-95.67754136 79.12667761 -89.34936619 73.08693552 -80 70 C-76.39512472 69.61610537 -72.77282801 69.58644696 -69.15039062 69.52148438 C-65.91311141 69.40454301 -63.3830976 69.19184394 -60.46484375 67.73046875 C-58.82646947 66.11692116 -58.82646947 66.11692116 -58.7578125 63.984375 C-58.87898438 63.24703125 -59.00015625 62.5096875 -59.125 61.75 C-59.23070312 61.02296875 -59.33640625 60.2959375 -59.4453125 59.546875 C-59.99594056 56.84440905 -59.99594056 56.84440905 -61.03515625 53.65234375 C-63.91784931 42.74012507 -62.6486558 30.09932253 -57.48828125 20.05859375 C-50.33428869 8.24244874 -42.20564227 2.37540216 -29.25 -2.375 C-19.76138254 -4.30455114 -8.80944193 -4.12215396 0 0 Z " fill="#FCFDFB" transform="translate(421,268)"/>
<path d="M0 0 C1.33510808 0.21820211 2.67025289 0.43617966 4.00543213 0.65394592 C6.78252981 1.10781289 9.55914779 1.56448173 12.33544922 2.02319336 C15.87703804 2.60809815 19.41977375 3.18569521 22.96290207 3.76119137 C25.71216992 4.2086072 28.46077664 4.65998256 31.20920563 5.11252022 C33.14469384 5.43046812 35.08073407 5.74504982 37.01678467 6.05955505 C52.1971268 8.58051857 52.1971268 8.58051857 55.7109375 11.17578125 C58.99754528 15.91033512 57.92035647 22.24240462 57.01416016 27.58105469 C55.47920856 35.86778683 55.47920856 35.86778683 53.08984375 39.234375 C50.1867437 41.22492892 48.27515418 41.09852254 44.828125 40.78515625 C42.79539355 60.02350743 42.08040355 78.37282154 50.5703125 96.140625 C54.35585542 104.09967021 57.1071154 112.41633682 59.828125 120.78515625 C60.19035156 121.65140625 60.55257812 122.51765625 60.92578125 123.41015625 C62.27102047 128.44170034 62.16635624 133.34875168 62.140625 138.53515625 C62.13788574 139.64753662 62.13514648 140.75991699 62.13232422 141.90600586 C62.02138929 150.76103572 60.92042246 159.08254242 59.1953125 167.74267578 C58.59652184 171.07344881 58.29739205 174.41862177 57.953125 177.78515625 C56.23610935 191.91214679 51.47517745 205.24455239 46.671875 218.578125 C44.29818617 225.28178435 42.07697909 232.03859397 39.828125 238.78515625 C23.988125 238.78515625 8.148125 238.78515625 -8.171875 238.78515625 C-7.171875 228.78515625 -7.171875 228.78515625 -6.171875 224.78515625 C-5.23602566 212.79724897 -5.28234764 200.92402036 -10.171875 189.78515625 C-10.66945313 188.62757813 -11.16703125 187.47 -11.6796875 186.27734375 C-19.42099431 169.60652956 -30.75623912 159.22219239 -47.34375 151.7578125 C-54.73571021 149.21554994 -61.95435815 148.4341407 -69.734375 148.16015625 C-71.10432617 148.10214844 -71.10432617 148.10214844 -72.50195312 148.04296875 C-74.72507424 147.94985373 -76.94821113 147.86403459 -79.171875 147.78515625 C-80.60923768 123.88865282 -68.24179639 104.14510094 -53.32055664 86.76318359 C-38.49168351 69.32683807 -31.63337076 51.02503664 -27.171875 28.78515625 C-27.955625 28.68203125 -28.739375 28.57890625 -29.546875 28.47265625 C-32.171875 27.78515625 -32.171875 27.78515625 -34.171875 24.78515625 C-34.24969287 21.42601838 -33.62309538 18.11016859 -33.171875 14.78515625 C-33.07003906 13.67269531 -32.96820312 12.56023437 -32.86328125 11.4140625 C-31.77712609 1.54908625 -31.77712609 1.54908625 -28.734375 -1.58984375 C-20.42363012 -5.38070984 -8.72979105 -1.4413461 0 0 Z " fill="#FCFDFA" transform="translate(644.171875,273.21484375)"/>
<path d="M0 0 C1.2384668 0.00902344 2.47693359 0.01804687 3.75292969 0.02734375 C23.17880662 0.39492933 40.87705009 7.18705551 55.25 20.4375 C56.10207031 21.20964844 56.95414063 21.98179687 57.83203125 22.77734375 C71.19966067 35.46356477 81.03956921 54.06189679 81.78125 72.70703125 C81.79837415 75.22131743 81.78732648 77.73593258 81.75 80.25 C81.74379639 80.90736145 81.73759277 81.5647229 81.73120117 82.24200439 C81.4995013 103.20893311 75.67448114 121.7980536 61.25 137.4375 C60.42757812 138.35144531 59.60515625 139.26539063 58.7578125 140.20703125 C45.24167184 154.5263049 26.0858852 163.96830531 6.20703125 164.73828125 C-17.13309261 165.00748683 -37.2861483 159.4576733 -54.75 143.4375 C-66.31045901 131.58061896 -73.29256607 118.22856438 -77.75 102.4375 C-78.11738281 101.19871094 -78.48476563 99.95992187 -78.86328125 98.68359375 C-80.0995716 93.61138275 -80.09225408 88.57247783 -80.0625 83.375 C-80.05758545 82.36074951 -80.0526709 81.34649902 -80.04760742 80.30151367 C-79.6959992 57.59122909 -71.33619512 39.75254597 -55.75 23.4375 C-55.19828125 22.81101562 -54.6465625 22.18453125 -54.078125 21.5390625 C-40.48341159 6.66563842 -19.59000858 -0.17057967 0 0 Z " fill="#FCFDFB" transform="translate(473.75,840.5625)"/>
<path d="M0 0 C1.83494613 1.47245677 3.64986189 2.97045554 5.4375 4.5 C6.52417969 5.41845703 6.52417969 5.41845703 7.6328125 6.35546875 C22.57730537 20.0985416 31.03897827 41.66195011 32.01416016 61.68701172 C32.42053963 82.70791347 24.52978848 103.92431273 10.4375 119.5 C9.77234375 120.25796875 9.1071875 121.0159375 8.421875 121.796875 C-4.72934417 135.92225856 -23.73809497 144.9255062 -43.03125 145.75 C-66.65437481 146.28722836 -86.97266111 139.13953594 -104.29418945 122.99389648 C-117.59734207 109.84285659 -126.32988406 91.16852869 -127.5625 72.5 C-127.68431641 70.65728516 -127.68431641 70.65728516 -127.80859375 68.77734375 C-128.36161932 51.76761782 -124.0055513 37.16493065 -115.5625 22.5 C-115.09070313 21.65050781 -114.61890625 20.80101562 -114.1328125 19.92578125 C-104.68464202 4.35586717 -88.52006839 -6.66439954 -71.5625 -12.5 C-70.67949219 -12.81839844 -69.79648437 -13.13679687 -68.88671875 -13.46484375 C-45.50777638 -20.64055874 -19.3323912 -14.07320165 0 0 Z " fill="#FCFDFA" transform="translate(1013.5625,859.5)"/>
<path d="M0 0 C-0.65249044 8.32614556 -2.57022781 16.28827013 -4.5625 24.375 C-4.73918213 25.09665344 -4.91586426 25.81830688 -5.09790039 26.56182861 C-15.62180898 69.41574099 -28.31620846 109.84355625 -67.98095703 134.21728516 C-75.76927942 138.91767749 -83.1112076 142.83315915 -92 145 C-93.3581707 145.46769691 -94.71231576 145.94722397 -96.0625 146.4375 C-109.57760264 150.8951128 -121.80383642 152.5977332 -136 152 C-134.71098193 144.86695059 -132.41402465 139.00329125 -129.125 132.5625 C-128.6410376 131.60674072 -128.1570752 130.65098145 -127.65844727 129.66625977 C-122.80035905 120.28133434 -117.16150233 111.57252497 -111 103 C-110.58959473 102.41992188 -110.17918945 101.83984375 -109.75634766 101.2421875 C-96.62274094 82.80598946 -79.37962978 65.24927242 -61 52 C-77.5268653 58.59723642 -92.67408464 67.11931948 -106 79 C-106.85980469 79.75152344 -107.71960938 80.50304687 -108.60546875 81.27734375 C-111.10168372 83.48655065 -113.55865854 85.7304112 -116 88 C-117.01513672 88.93392578 -117.01513672 88.93392578 -118.05078125 89.88671875 C-129.4990829 100.83028566 -138.92686808 114.85373616 -146 129 C-146.66 129 -147.32 129 -148 129 C-153.12995772 100.49006814 -150.87836149 74.47834445 -134.3125 50.3125 C-126.7220696 40.42555431 -117.66073769 31.50083559 -107 25 C-105.96617187 24.35675781 -104.93234375 23.71351563 -103.8671875 23.05078125 C-72.28265044 4.16481091 -36.18200182 -0.35052531 0 0 Z " fill="#6DC50A" transform="translate(703,605)"/>
<path d="M0 0 C12.24892248 0 24.52068139 6.35840479 33.18359375 14.90625 C43.33774948 26.61082521 48.26384572 43.69694821 48 59 C49.08925781 58.67773438 50.17851563 58.35546875 51.30078125 58.0234375 C65.22439255 54.56472553 82.06611629 55.54865479 94.68359375 62.47265625 C107.27645737 70.58039036 115.19554809 82.32218087 118.62280273 96.87109375 C119.29088919 100.64178236 119.32827486 104.36683006 119.3125 108.1875 C119.32861328 108.94869141 119.34472656 109.70988281 119.36132812 110.49414062 C119.36749937 117.95516996 117.78117335 123.28158217 116 131 C65.18 131 14.36 131 -38 131 C-41.53627891 115.67612474 -41.53627891 115.67612474 -41.4375 108.5625 C-41.42847656 107.75538574 -41.41945313 106.94827148 -41.41015625 106.11669922 C-40.98802984 91.32175499 -35.32008258 78.44418468 -25.1875 67.625 C-13.03156654 56.39320184 0.04977925 52.04499193 16.34375 52.6015625 C24.14024267 53.10240102 31.03160919 55.5158046 38 59 C37.67 53.72 37.34 48.44 37 43 C35.88625 42.938125 34.7725 42.87625 33.625 42.8125 C22.74760419 41.37622414 13.67095112 34.08698683 7.14453125 25.58203125 C2.14092575 17.8109995 -0.61791553 9.26873298 0 0 Z " fill="#FBFDFA" transform="translate(503,381)"/>
<path d="M0 0 C0.7651833 -0.00297112 1.5303666 -0.00594224 2.31873727 -0.0090034 C4.89660481 -0.01771235 7.47442602 -0.0192005 10.05230713 -0.02069092 C11.89506124 -0.02531759 13.73781438 -0.03034204 15.58056641 -0.03573608 C20.59721941 -0.04887781 25.61385901 -0.05530865 30.63052654 -0.05974674 C33.76335265 -0.06267499 36.89617507 -0.06677935 40.02899933 -0.07125092 C49.82672985 -0.08493134 59.62445197 -0.09459498 69.42219138 -0.09845281 C80.73962543 -0.10293318 92.05693869 -0.12047784 103.374336 -0.1494534 C112.1166508 -0.17106041 120.8589316 -0.18115659 129.60127282 -0.18249393 C134.82508752 -0.18354278 140.04878875 -0.18946755 145.27257538 -0.20731354 C150.18748666 -0.22377693 155.10219898 -0.22595812 160.01712799 -0.21717453 C161.82067904 -0.21640319 163.6242407 -0.22075961 165.42776489 -0.23063278 C167.89120828 -0.24332708 170.35394436 -0.23748939 172.81738281 -0.22705078 C173.5300398 -0.23510719 174.2426968 -0.24316359 174.97694945 -0.25146413 C180.27178647 -0.19904134 184.39075554 1.01963919 188.30718994 4.67559814 C192.72140967 10.44803933 193.25527164 13.95366309 192.66265869 21.14044189 C191.45271748 26.19932993 189.04061937 29.3260386 184.66265869 32.14044189 C180.46135317 34.23118034 176.62294719 34.43260872 172.01597595 34.42132568 C170.87259812 34.43023905 170.87259812 34.43023905 169.70612174 34.43933249 C167.15602616 34.45665352 164.60611894 34.45971837 162.05596924 34.46270752 C160.22586671 34.47196756 158.39576803 34.48201738 156.56567383 34.49279785 C151.59658441 34.5190125 146.627549 34.53192892 141.65840125 34.54081917 C138.55284193 34.54668535 135.44729729 34.5548958 132.34174538 34.56382751 C122.62197619 34.59116714 112.90224066 34.6105061 103.18243569 34.6182313 C91.96790333 34.62719394 80.75385835 34.66230007 69.53947419 34.72023249 C60.86669852 34.76347805 52.19405993 34.78364043 43.52117759 34.78631353 C38.34303115 34.78840857 33.1653432 34.80020034 27.98731041 34.83595276 C23.11567111 34.86893635 18.24483441 34.87321575 13.37312317 34.85567474 C11.58813132 34.85413517 9.80309612 34.86280455 8.01821327 34.88259125 C-8.27724404 35.05260327 -8.27724404 35.05260327 -14.02733135 29.67240143 C-18.45179037 24.4983246 -18.86929727 20.7021059 -18.68890381 14.01934814 C-18.04872611 8.77700406 -15.54411036 6.20354796 -11.71234131 2.82794189 C-7.71420032 -0.01284249 -4.77181743 -0.00573006 0 0 Z " fill="#FCFDFB" transform="translate(130.33734130859375,643.8595581054688)"/>
<path d="M0 0 C0.67155931 -0.00508782 1.34311862 -0.01017564 2.03502822 -0.01541764 C4.28415338 -0.03110711 6.5332465 -0.03965784 8.78240967 -0.04811096 C10.39561668 -0.05765216 12.00882165 -0.06754344 13.62202454 -0.07775879 C18.9186257 -0.10910964 24.21524242 -0.12940501 29.51190186 -0.14796448 C30.86443322 -0.15291046 30.86443322 -0.15291046 32.24428844 -0.15795636 C40.75044147 -0.18873257 49.25659809 -0.21543475 57.76279068 -0.23237514 C68.63546237 -0.25428425 79.50764044 -0.29626962 90.38011479 -0.36581272 C98.0295113 -0.41307624 105.67877471 -0.43731171 113.32831264 -0.44457203 C117.89507047 -0.44952415 122.46127152 -0.46456325 127.02787018 -0.50431633 C131.32577854 -0.54123864 135.62281339 -0.5495744 139.92085075 -0.5363102 C141.49461045 -0.53636405 143.06840943 -0.5466221 144.64202309 -0.56806183 C159.00035755 -0.75316615 159.00035755 -0.75316615 164.92565536 4.65901089 C169.34131327 9.45297377 169.80157871 13.08292181 169.58612061 19.51219177 C168.92249469 25.84935193 165.69205586 29.06407379 161.02752686 32.96141052 C157.42061299 35.47805269 154.05551534 35.29044731 149.80027771 35.30107117 C149.1363288 35.30404229 148.47237988 35.30701341 147.7883113 35.31007457 C145.55903646 35.31876011 143.32981533 35.32026969 141.1005249 35.32176208 C139.50392543 35.32639036 137.90732706 35.33141504 136.31072998 35.33680725 C131.96973454 35.34993236 127.62875456 35.35637643 123.28774238 35.36081791 C120.57586251 35.36374847 117.86398688 35.36785325 115.15210915 35.37232208 C106.66786458 35.38599734 98.18362968 35.39566384 89.69937485 35.39952397 C79.90444636 35.40400486 70.10965741 35.42155405 60.31477135 35.45052457 C52.74440083 35.47213861 45.17406957 35.48222811 37.60366851 35.48356509 C33.08185674 35.48461333 28.56017613 35.49052501 24.03839684 35.5083847 C19.78418749 35.52486058 15.53020797 35.52702328 11.27597809 35.5182457 C9.7159215 35.51747506 8.15585258 35.52182159 6.5958271 35.53170395 C4.46302049 35.54442068 2.33102823 35.53854894 0.19822693 35.52812195 C-0.99436391 35.52958851 -2.18695475 35.53105507 -3.4156847 35.53256607 C-8.51932471 34.95304867 -12.45292363 32.83585033 -16.00372314 29.16062927 C-16.49485596 28.66562927 -16.98598877 28.17062927 -17.49200439 27.66062927 C-20.56465475 23.81731416 -20.07667393 18.85109578 -20.04278564 14.18016052 C-19.40606816 8.71146483 -16.55645862 5.85629789 -12.62872314 2.28562927 C-8.57450841 -0.06843089 -4.61827673 0.02638481 0 0 Z " fill="#FAFCF8" transform="translate(119.69122314453125,544.8393707275391)"/>
<path d="M0 0 C0.65114155 -0.00367669 1.3022831 -0.00735338 1.97315621 -0.01114148 C4.15319373 -0.02214706 6.33318353 -0.02601681 8.51324463 -0.02983093 C10.07719066 -0.03609792 11.6411352 -0.04274493 13.20507812 -0.04974365 C18.33936532 -0.07075749 23.47365272 -0.08114315 28.60797119 -0.09111023 C30.37722031 -0.09515871 32.14646928 -0.09927566 33.91571808 -0.10346031 C42.22803324 -0.12250565 50.54033956 -0.13673838 58.85267234 -0.14507228 C68.44046232 -0.15484433 78.02802141 -0.18116572 87.61573005 -0.22157317 C95.03158759 -0.25175249 102.447379 -0.26654285 109.86329675 -0.26985329 C114.29019182 -0.27220159 118.71684005 -0.28113333 123.14366913 -0.30631447 C127.31012531 -0.32963227 131.47617273 -0.33381366 135.64267731 -0.32355309 C137.16803855 -0.32305852 138.69342017 -0.3293555 140.21871948 -0.34310913 C156.54490907 -0.48203349 156.54490907 -0.48203349 163.12737656 5.66926098 C167.11768711 9.97004539 167.02586203 14.64783419 166.96734619 20.27998352 C166.16698772 25.1755095 163.74357931 28.27635175 159.99859619 31.39717102 C159.41078369 31.89732727 158.82297119 32.39748352 158.21734619 32.91279602 C154.6549852 35.47121891 151.3019874 35.27690463 147.06602478 35.28761292 C146.08235207 35.2920696 146.08235207 35.2920696 145.07880718 35.29661632 C142.87717124 35.30530117 140.6755897 35.30681138 138.47393799 35.30830383 C136.89704268 35.31293216 135.3201485 35.31795684 133.74325562 35.323349 C129.45597747 35.33647365 125.16871499 35.34291809 120.8814199 35.34735966 C118.20304195 35.3502903 115.52466829 35.3543951 112.8462925 35.35886383 C104.46669938 35.37253898 96.08711606 35.38220553 87.70751256 35.38606572 C78.03370439 35.39054655 68.36003752 35.4080955 58.68627232 35.43706632 C51.20931925 35.45868107 43.73240593 35.46876989 36.25542194 35.47010684 C31.78950083 35.47115503 27.32371254 35.47706566 22.85782433 35.49492645 C18.65614376 35.51140356 14.45469589 35.51356444 10.25299454 35.50478745 C8.71228856 35.50401687 7.17157009 35.50836248 5.63089561 35.5182457 C3.52436005 35.53096453 1.41864876 35.5250896 -0.68788147 35.5146637 C-2.45464469 35.51686354 -2.45464469 35.51686354 -4.25710011 35.51910782 C-10.50329569 34.80302505 -14.43327835 31.78031391 -18.50140381 27.14717102 C-21.05028866 22.84870318 -21.01416142 19.0266386 -20.50140381 14.14717102 C-18.78065959 8.1751764 -15.67096972 4.46014014 -10.50140381 1.14717102 C-7.00212704 -0.00796704 -3.66600798 0.01343831 0 0 Z " fill="#FAFCF8" transform="translate(168.50140380859375,741.8528289794922)"/>
<path d="M0 0 C7.96945429 5.81810755 14.6920634 13.56974872 16.42578125 23.4921875 C17.5176856 34.09730851 15.85715891 44.0454086 9.61328125 52.8671875 C3.14081829 60.66650537 -4.40719882 65.90313084 -14.57421875 67.4921875 C-25.53633087 68.44071637 -33.1712821 67.67210498 -42.57421875 61.4921875 C-43.1878125 61.09773437 -43.80140625 60.70328125 -44.43359375 60.296875 C-48.93514955 56.97871789 -51.82356983 52.26322456 -54.57421875 47.4921875 C-54.91839844 46.89921875 -55.26257813 46.30625 -55.6171875 45.6953125 C-59.00049343 38.51571493 -58.81222758 28.36029001 -56.8828125 20.7734375 C-55.94039815 18.53372474 -54.85480619 16.55557917 -53.57421875 14.4921875 C-52.97287109 13.37457031 -52.97287109 13.37457031 -52.359375 12.234375 C-47.50565925 3.93381764 -39.28151607 -2.56615355 -29.9375 -5.10546875 C-19.52520729 -6.87814007 -9.18160085 -5.37799382 0 0 Z " fill="#6DC50B" transform="translate(495.57421875,891.5078125)"/>
<path d="M0 0 C8.41732253 5.94532075 13.55119526 13.89577329 16.7890625 23.609375 C17.77912966 35.03572382 15.82441465 44.76248206 8.48828125 53.76171875 C3.52581574 59.15768699 -1.18333165 63.18165661 -8.2109375 65.609375 C-9.2834375 66.00125 -10.3559375 66.393125 -11.4609375 66.796875 C-21.72530445 69.02082117 -30.63901065 67.56722871 -39.65625 62.13671875 C-47.58259746 56.45393066 -53.03790405 49.16252207 -55.2109375 39.609375 C-56.13062942 28.66862441 -55.68559826 18.01756719 -49.1484375 8.859375 C-36.47655341 -6.05815944 -17.03673131 -10.71568259 0 0 Z " fill="#6EC50B" transform="translate(985.2109375,892.390625)"/>
<path d="M0 0 C1.5159375 0.22042969 1.5159375 0.22042969 3.0625 0.4453125 C5.51838577 0.79128053 7.97651707 1.12206463 10.4375 1.4296875 C16.93264346 2.24158043 23.2805802 3.21263509 29.6875 4.5625 C36.11844592 5.90567225 42.44412978 6.64595859 49 7 C48.9278125 7.75539063 48.855625 8.51078125 48.78125 9.2890625 C47.06377103 29.66027135 46.87619566 48.1421363 55.265625 67.1796875 C56 69 56 69 56 71 C52.40598577 69.86473855 48.90699808 68.5795552 45.41796875 67.16015625 C23.27795976 58.20989468 -1.5992087 53.32161535 -25 61 C-23.42606529 57.44407342 -21.24146362 54.71011738 -18.8125 51.6875 C-7.34225248 36.72942701 -2.76762804 18.38200711 0 0 Z " fill="#70C60D" transform="translate(628,304)"/>
<path d="M0 0 C12.770313 0.19792542 22.57200514 4.19462941 31.71191406 13.3828125 C41.61823808 25.02274322 44.93992255 38.27724998 44.71191406 53.3828125 C29.57721266 54.10734608 15.24651193 52.73819895 2.71191406 43.3828125 C1.75929688 42.68414063 0.80667969 41.98546875 -0.17480469 41.265625 C-8.28764898 34.92908849 -14.26680016 27.65664825 -20.28808594 19.3828125 C-21.39796875 17.89201172 -21.39796875 17.89201172 -22.53027344 16.37109375 C-27.28808594 9.8267131 -27.28808594 9.8267131 -27.28808594 6.3828125 C-26.36125 6.03347656 -25.43441406 5.68414063 -24.47949219 5.32421875 C-23.28195312 4.86917969 -22.08441406 4.41414062 -20.85058594 3.9453125 C-19.655625 3.49285156 -18.46066406 3.04039062 -17.22949219 2.57421875 C-11.28476922 0.16632963 -6.71111341 0.01725777 0 0 Z " fill="#6FC50D" transform="translate(505.2880859375,689.6171875)"/>
<path d="M0 0 C1.02029297 -0.03287109 2.04058594 -0.06574219 3.09179688 -0.09960938 C10.48069179 -0.15147781 15.8475514 1.3961954 22.0625 5.4375 C24.0625 7.4375 24.0625 7.4375 24.375 10.875 C24.0625 14.4375 24.0625 14.4375 22.7890625 16.05859375 C16.94604966 20.72507233 9.13888074 20.64480408 2 20.875 C-16.09841163 21.51770899 -33.48521177 24.88593464 -50.79174805 30.15087891 C-59.86169011 32.88714585 -59.86169011 32.88714585 -64.9375 32.4375 C-64.35465803 26.46072048 -60.69266498 23.75260682 -56.3515625 20.0625 C-40.46283734 7.41123088 -20.2024011 0.11442518 0 0 Z " fill="#6FC50E" transform="translate(816.9375,421.5625)"/>
<path d="M0 0 C0.87664307 0.00491455 1.75328613 0.0098291 2.65649414 0.01489258 C10.50940612 0.1573275 16.77987625 0.93098866 23.25 5.625 C25.0625 8.3125 25.0625 8.3125 25.0625 11.4375 C23.60966981 15.61438679 23.60966981 15.61438679 21.0625 17.3125 C14.599184 19.672549 8.19857212 19.73792691 1.375 20.0625 C-15.68183024 21.06557747 -33.03938769 23.8143413 -49.12011719 29.79443359 C-51.61695887 30.50618777 -53.51732998 30.17127001 -55.9375 29.3125 C-54.80796328 22.66730346 -48.9443078 18.78216965 -43.78515625 15.00390625 C-30.38682774 5.88245615 -16.38127302 -0.10858947 0 0 Z " fill="#72C710" transform="translate(836.9375,364.6875)"/>
<path d="M0 0 C1.64488403 -0.002062 1.64488403 -0.002062 3.32299805 -0.00416565 C4.5314035 -0.00057037 5.73980896 0.0030249 6.98483276 0.00672913 C8.25308899 0.0065831 9.52134521 0.00643707 10.82803345 0.00628662 C14.31128908 0.00599903 17.79451047 0.01188952 21.27775812 0.01886058 C24.91594425 0.02510055 28.55413112 0.02569843 32.19232178 0.02688599 C39.08421 0.0299974 45.97608242 0.03820824 52.86796367 0.04823548 C60.7130823 0.0594025 68.55820168 0.06490855 76.40332627 0.06993091 C92.54362286 0.080391 108.68390353 0.09798678 124.82418823 0.12025452 C124.82418823 0.45025452 124.82418823 0.78025452 124.82418823 1.12025452 C124.16635408 1.12448646 123.50851994 1.1287184 122.83075142 1.13307858 C106.84060218 1.23628335 90.85050037 1.34490571 74.86042976 1.45959377 C67.12782438 1.51492423 59.39521439 1.56840593 51.66256714 1.61756897 C44.92454379 1.66041299 38.1865544 1.70669153 31.44858348 1.75713307 C27.87930865 1.78373226 24.31004054 1.80858528 20.74072647 1.82932854 C16.76085164 1.85252203 12.78105682 1.8833818 8.80123901 1.91493225 C7.61153503 1.92068771 6.42183105 1.92644318 5.19607544 1.93237305 C4.11631439 1.94216187 3.03655334 1.95195068 1.92407227 1.96203613 C0.98199984 1.96848868 0.03992741 1.97494123 -0.93069267 1.98158932 C-3.21246063 1.97556827 -3.21246063 1.97556827 -5.17581177 3.12025452 C-5.83581177 2.46025452 -6.49581177 1.80025452 -7.17581177 1.12025452 C-4.62773332 -0.15378471 -2.8534335 -0.00274897 0 0 Z " fill="#E3F5CE" transform="translate(905.1758117675781,506.87974548339844)"/>
<path d="M0 0 C0.33 0 0.66 0 1 0 C1.28345896 4.1025782 1.52101861 8.20654936 1.75 12.3125 C1.87181641 14.06336914 1.87181641 14.06336914 1.99609375 15.84960938 C2.08310547 17.52700195 2.08310547 17.52700195 2.171875 19.23828125 C2.2347168 20.26993408 2.29755859 21.30158691 2.36230469 22.36450195 C2 25 2 25 0.11425781 26.86010742 C-2 28 -2 28 -4 28 C-4.66 25.03 -5.32 22.06 -6 19 C-3 19 -3 19 0 20 C0 13.4 0 6.8 0 0 Z " fill="#E1F1CE" transform="translate(552,700)"/>
<path d="M0 0 C6.625 0.75 6.625 0.75 10 3 C10 3.66 10 4.32 10 5 C9.01 5.33 8.02 5.66 7 6 C6.67 6.66 6.34 7.32 6 8 C3.53199953 6.84826645 1.95216435 5.95216435 0 4 C0 2.68 0 1.36 0 0 Z " fill="#75CD13" transform="translate(392,400)"/>
<path d="M0 0 C0.33 0 0.66 0 1 0 C1.85298376 3.67387495 2.10789471 7.0447393 2.0625 10.8125 C2.05347656 11.78832031 2.04445313 12.76414062 2.03515625 13.76953125 C2.02355469 14.50558594 2.01195312 15.24164063 2 16 C-0.31 15.34 -2.62 14.68 -5 14 C-4.01 13.67 -3.02 13.34 -2 13 C-1.34 8.71 -0.68 4.42 0 0 Z " fill="#91D744" transform="translate(539,424)"/>
<path d="M0 0 C-5.99674407 1.74675802 -11.27364221 2.25682842 -17.5 2.125 C-18.73363281 2.11146484 -18.73363281 2.11146484 -19.9921875 2.09765625 C-21.99492083 2.07436865 -23.99750154 2.03850959 -26 2 C-25.67 1.01 -25.34 0.02 -25 -1 C-25 -0.34 -25 0.32 -25 1 C-20.05 1 -15.1 1 -10 1 C-10 0.34 -10 -0.32 -10 -1 C-5.92224809 -1.9267618 -3.57818963 -2.33958553 0 0 Z " fill="#8DD53F" transform="translate(593,755)"/>
<path d="M0 0 C-1.50796734 3.77839007 -3.6980128 5.64563017 -6.875 8.125 C-7.73867188 8.80820312 -8.60234375 9.49140625 -9.4921875 10.1953125 C-11.62015241 11.72665173 -13.6184787 12.92554621 -16 14 C-4.57142857 0 -4.57142857 0 0 0 Z " fill="#75C91C" transform="translate(909,844)"/>
<path d="M0 0 C0.66 0.33 1.32 0.66 2 1 C-4.56053812 7.83318386 -4.56053812 7.83318386 -8.08984375 8.2421875 C-10 7.9375 -10 7.9375 -13 7 C-10.35787411 5.23858274 -7.7572236 3.76181302 -4.9375 2.3125 C-3.62072266 1.62607422 -3.62072266 1.62607422 -2.27734375 0.92578125 C-1.52582031 0.62027344 -0.77429688 0.31476562 0 0 Z " fill="#DFF3C8" transform="translate(641,656)"/>
<path d="M0 0 C2 3 2 3 1.75 6 C1 9 1 9 -1 12 C-1.38499891 13.65549531 -1.72793135 15.3222433 -2 17 C-2.66 17 -3.32 17 -4 17 C-2.68 11.39 -1.36 5.78 0 0 Z " fill="#91D247" transform="translate(891,384)"/>
<path d="M0 0 C1.98 0 3.96 0 6 0 C5.4409112 3.24271506 4.5867822 4.93057424 2 7 C1.34 7 0.68 7 0 7 C0 4.69 0 2.38 0 0 Z " fill="#EBF7DE" transform="translate(503,381)"/>
<path d="M0 0 C2.24940295 -0.08119503 4.49964871 -0.13927819 6.75 -0.1875 C8.00296875 -0.22230469 9.2559375 -0.25710938 10.546875 -0.29296875 C14.14109357 0.01197061 15.44725126 0.54394629 18 3 C11.59370576 3.20852314 6.07027358 3.1583195 0 1 C0 0.67 0 0.34 0 0 Z " fill="#9FDA5A" transform="translate(952,957)"/>
<path d="M0 0 C0.99 0.33 1.98 0.66 3 1 C0.36 3.64 -2.28 6.28 -5 9 C-5.33 8.01 -5.66 7.02 -6 6 C-4 4 -2 2 0 0 Z " fill="#71C916" transform="translate(943,895)"/>
<path d="M0 0 C0.66 0.33 1.32 0.66 2 1 C1.401875 1.515625 0.80375 2.03125 0.1875 2.5625 C-2.5073536 5.56533687 -3.55720619 8.24873609 -5 12 C-5.66 11.67 -6.32 11.34 -7 11 C-5.5140084 6.40693504 -3.14985318 3.56430755 0 0 Z " fill="#E7F5D8" transform="translate(351,416)"/>
<path d="M0 0 C1.98 0 3.96 0 6 0 C6 0.99 6 1.98 6 3 C2.37 3 -1.26 3 -5 3 C-5 2.67 -5 2.34 -5 2 C-3.35 2 -1.7 2 0 2 C0 1.34 0 0.68 0 0 Z " fill="#90D840" transform="translate(574,435)"/>
<path d="M0 0 C0.66 0.33 1.32 0.66 2 1 C1.09515208 2.15518918 0.1755794 3.29885406 -0.75 4.4375 C-1.26046875 5.07558594 -1.7709375 5.71367187 -2.296875 6.37109375 C-4.19667629 8.18810554 -5.43586908 8.60423197 -8 9 C-7.04270084 7.87411986 -6.08412105 6.7493285 -5.125 5.625 C-4.59132813 4.99851562 -4.05765625 4.37203125 -3.5078125 3.7265625 C-2.38567993 2.44163349 -1.20628025 1.20628025 0 0 Z " fill="#ECF7E2" transform="translate(376,273)"/>
<path d="M0 0 C0.33 0 0.66 0 1 0 C1.125 5.75 1.125 5.75 0 8 C-0.66 8 -1.32 8 -2 8 C-2.33 8.99 -2.66 9.98 -3 11 C-2.53199289 6.94393835 -2.12046792 3.53411321 0 0 Z " fill="#82CC2B" transform="translate(895,373)"/>
<path d="M0 0 C2.97 0.33 5.94 0.66 9 1 C8.67 1.66 8.34 2.32 8 3 C5.69 3 3.38 3 1 3 C0.67 2.01 0.34 1.02 0 0 Z " fill="#78CE19" transform="translate(842,365)"/>
<path d="M0 0 C0.66 0.33 1.32 0.66 2 1 C0.02 3.31 -1.96 5.62 -4 8 C-4.99 7.67 -5.98 7.34 -7 7 C-4.69 4.69 -2.38 2.38 0 0 Z " fill="#F3FAEA" transform="translate(331,343)"/>
<path d="M0 0 C-3.21451269 1.60725635 -6.43612536 1.05748185 -10 1 C-10 0.34 -10 -0.32 -10 -1 C-5.92224809 -1.9267618 -3.57818963 -2.33958553 0 0 Z " fill="#7FCE24" transform="translate(593,755)"/>
<path d="M0 0 C1.04973814 4.19895255 0.72795155 6.79405774 0 11 C-0.99 11 -1.98 11 -3 11 C-2.01 7.37 -1.02 3.74 0 0 Z " fill="#91D442" transform="translate(690,491)"/>
<path d="M0 0 C-1 2 -2 4 -3 6 C-3.66 6 -4.32 6 -5 6 C-5.33 6.99 -5.66 7.98 -6 9 C-5.38983051 3.50847458 -5.38983051 3.50847458 -3.5625 1.125 C-2 0 -2 0 0 0 Z " fill="#7FCD2C" transform="translate(921,548)"/>
<path d="M0 0 C0.33 0 0.66 0 1 0 C1.25 3.25 1.25 3.25 1 7 C-0.32 8.32 -1.64 9.64 -3 11 C-2.01 7.37 -1.02 3.74 0 0 Z " fill="#8BD03B" transform="translate(885,406)"/>
<path d="M0 0 C0.66 0.33 1.32 0.66 2 1 C1.34 2.98 0.68 4.96 0 7 C-0.66 7 -1.32 7 -2 7 C-2.33 7.66 -2.66 8.32 -3 9 C-2.44271087 5.65626525 -1.64826111 2.96687001 0 0 Z " fill="#72D012" transform="translate(719,455)"/>
<path d="M0 0 C2.0625 1.5625 2.0625 1.5625 4 4 C3.75 7.75 3.75 7.75 3 11 C0.87953208 7.46588679 0.46800711 4.05606165 0 0 Z " fill="#96D549" transform="translate(688,350)"/>
</svg>
