<?xml version="1.0" encoding="UTF-8"?>
<svg version="1.1" xmlns="http://www.w3.org/2000/svg" width="1254" height="1254">
<path d="M0 0 C413.82 0 827.64 0 1254 0 C1254 413.82 1254 827.64 1254 1254 C840.18 1254 426.36 1254 0 1254 C0 840.18 0 426.36 0 0 Z " fill="#FBFAFA" transform="translate(0,0)"/>
<path d="M0 0 C0.99006495 -0.00384115 1.9801299 -0.00768229 3.00019681 -0.01163983 C4.0855911 -0.01077335 5.17098538 -0.00990687 6.2892704 -0.00901413 C7.44410002 -0.01198525 8.59892965 -0.01495637 9.78875411 -0.01801753 C12.994787 -0.02519654 16.20078726 -0.02787675 19.40682697 -0.028615 C22.86430588 -0.03046661 26.32177318 -0.03801441 29.77924538 -0.04475021 C37.33908603 -0.05832877 44.89892137 -0.06435728 52.45877218 -0.06876087 C57.17859542 -0.07152365 61.8984166 -0.07576103 66.61823845 -0.08026505 C79.68494412 -0.09245623 92.75164814 -0.1027564 105.81835938 -0.10614014 C106.6545435 -0.1063597 107.49072763 -0.10657927 108.35225067 -0.10680549 C109.60952836 -0.10713291 109.60952836 -0.10713291 110.8922056 -0.10746694 C112.59069212 -0.1079104 114.28917865 -0.10835697 115.98766518 -0.10880661 C116.83017329 -0.10902804 117.6726814 -0.10924947 118.54072006 -0.10947761 C132.19697415 -0.11342691 145.85317492 -0.13088564 159.5094084 -0.15416613 C173.52849998 -0.17787246 187.54756479 -0.19034163 201.56667674 -0.19150805 C209.43857644 -0.19242513 217.31040664 -0.19818573 225.18228722 -0.21632767 C231.88419974 -0.23171885 238.58602128 -0.23685489 245.28794812 -0.22858956 C248.70743775 -0.22467977 252.1267441 -0.22562853 255.54621124 -0.23964691 C259.2531224 -0.25229265 262.95956027 -0.24652935 266.66646767 -0.23606491 C267.74740051 -0.24412132 268.82833335 -0.25217772 269.94202173 -0.26047826 C276.35860653 -0.21799345 281.09072089 0.29422614 285.96813393 4.88533401 C286.68549721 5.78058792 286.68549721 5.78058792 287.41735268 6.69392776 C287.90848549 7.29334183 288.3996183 7.89275589 288.90563393 8.51033401 C292.36325622 13.18431855 291.59955532 18.5692176 291.10485268 24.13142776 C290.45095472 26.61251794 289.71419732 29.07267346 288.91344643 31.51033401 C288.45398945 32.92597639 287.99468444 34.3416681 287.53551674 35.75740433 C287.29812782 36.47988358 287.06073891 37.20236282 286.81615639 37.94673538 C285.89776794 40.76746613 285.02083435 43.60026993 284.14348793 46.43397903 C283.26920267 49.23953349 282.36993204 52.03675398 281.4674015 54.83333206 C281.01526367 56.24697821 280.57065947 57.66305486 280.13341713 59.08137894 C275.89428205 72.80010523 270.01491744 84.36972406 256.81188393 91.34236526 C249.95106659 94.58315335 243.61561695 95.28170248 236.05629921 95.25168228 C234.86642098 95.25296392 234.86642098 95.25296392 233.6525048 95.25427145 C231.00394779 95.25591388 228.35545461 95.25042517 225.70690346 95.24495316 C223.80456481 95.24467099 221.90222605 95.24482959 219.99988747 95.24539566 C214.84130682 95.24568249 209.68274945 95.23980416 204.52417421 95.2328217 C199.13097343 95.22656921 193.7377721 95.22598286 188.34456825 95.2247963 C178.13433955 95.22168858 167.92412157 95.21348271 157.71389759 95.20344681 C146.08882992 95.19226831 134.46376174 95.18677084 122.83869004 95.18175137 C98.92740498 95.17129965 75.01612943 95.15371102 51.10485268 95.13142776 C51.0061988 96.04706041 51.0061988 96.04706041 50.90555191 96.98119068 C50.81773138 97.78596316 50.72991085 98.59073565 50.63942909 99.41989517 C50.55303484 100.21594193 50.46664059 101.0119887 50.37762833 101.83215809 C50.02172012 104.83216544 49.50099406 107.78424701 48.94079018 110.75252151 C48.70900063 111.99767532 48.47721107 113.24282913 48.2383976 114.52571487 C48.05330132 115.51110748 48.05330132 115.51110748 47.86446571 116.51640701 C45.35387751 129.91437819 43.00897446 143.33931663 40.75872231 156.78331375 C40.45032301 158.62537494 40.14073179 160.467237 39.8298893 162.30888748 C39.39062162 164.91451516 38.95600158 167.52087566 38.52282143 170.12752151 C38.39390007 170.88992142 38.26497871 171.65232132 38.13215065 172.43782425 C37.47660551 176.42138097 36.95403728 180.39175573 36.56354713 184.41061783 C36.47669812 185.29843476 36.38984911 186.1862517 36.30036831 187.10097218 C36.23584815 187.77102252 36.17132799 188.44107286 36.10485268 189.13142776 C36.89115311 189.12774059 37.67745354 189.12405342 38.48758125 189.12025452 C57.63423931 189.03185514 76.78085655 188.96569463 95.92767525 188.92417908 C105.18700433 188.90356799 114.44619706 188.87547522 123.70543861 188.82966995 C131.77731656 188.78975764 139.84909574 188.76398438 147.92106962 188.75507379 C152.19378419 188.74986646 156.46621623 188.73765782 160.7388401 188.70850754 C164.76405449 188.68126886 168.78887113 188.67299972 172.81416893 188.67899704 C174.28793312 188.67790057 175.76171121 188.66999688 177.23539543 188.65460587 C186.07615319 188.56683697 192.63443437 188.7036782 199.71820259 194.43727112 C201.16735268 195.88142776 201.16735268 195.88142776 203.10485268 199.13142776 C202.821269 205.20269654 201.18636262 209.97611126 198.79235268 215.50642776 C196.00368342 222.15868811 193.45945713 228.86220585 191.11657143 235.68220901 C190.85802879 236.43175858 190.59948616 237.18130814 190.3331089 237.95357132 C189.28903488 240.98633175 188.24701932 244.01944054 187.23043251 247.06154251 C183.27157027 258.90415815 179.36854224 269.55581787 168.10485268 276.13142776 C158.95287799 280.54527168 150.95499194 281.86028092 140.86925697 281.79085159 C139.49788406 281.79932936 138.12652317 281.80998459 136.75518227 281.82262039 C133.07614556 281.85048096 129.3976975 281.84834672 125.71858764 281.84032655 C121.85749608 281.8371771 117.99658418 281.86230653 114.13556862 281.88428116 C106.8438204 281.92156419 99.5522586 281.93385976 92.26042444 281.93690556 C83.95063949 281.94161359 75.64103931 281.97459251 67.33133638 282.00980341 C50.2558553 282.08153182 33.18047733 282.11822158 16.10485268 282.13142776 C16.76485268 282.79142776 17.42485268 283.45142776 18.10485268 284.13142776 C18.73210299 292.40936504 17.07994726 300.44396905 15.66735268 308.56892776 C15.39554113 310.16205232 15.12406792 311.75523463 14.85289955 313.34846878 C10.28420222 340.05202054 5.37507298 366.69716222 0.51122475 393.34811783 C-0.10670873 396.73415431 -0.72429789 400.1202533 -1.34155846 403.50641251 C-1.57307987 404.77648384 -1.57307987 404.77648384 -1.80927849 406.07221317 C-2.12209783 407.78833452 -2.43489787 409.50445938 -2.74767876 411.22058773 C-3.66072759 416.2289242 -4.57614698 421.23681994 -5.49336052 426.24439526 C-6.2176773 430.2011949 -6.9396908 434.15841238 -7.66077232 438.11580276 C-7.80051979 438.88206545 -7.94026726 439.64832813 -8.0842495 440.4378109 C-9.55540393 448.51842248 -10.99243175 456.60251965 -12.3228817 464.70759964 C-12.43520512 465.39091984 -12.54752853 466.07424004 -12.66325569 466.77826691 C-13.18339195 469.95307316 -13.69572945 473.12888831 -14.19745445 476.3066597 C-15.08806097 481.82945123 -16.07241423 487.32125577 -17.28674889 492.78279495 C-17.49833641 493.74062881 -17.70992393 494.69846268 -17.9279232 495.68532181 C-19.08485334 498.61119353 -20.16871794 499.60913627 -22.89514732 501.13142776 C-32.69270824 501.32737898 -40.63933526 493.8986214 -47.42249107 487.58845901 C-51.43467303 483.60163049 -55.19752574 479.4095938 -58.89514732 475.13142776 C-56.74651871 482.99950112 -53.88403736 490.5486943 -50.89514732 498.13142776 C-50.57674889 498.9448262 -50.25835045 499.75822464 -49.93030357 500.59627151 C-43.75615261 514.50945042 -31.1753582 521.49442088 -17.73889732 526.83455276 C-8.66161765 530.03172036 -0.19750212 530.41599219 9.34664345 530.37625504 C10.78455103 530.37767929 12.22245795 530.37999414 13.66036284 530.38311738 C17.59393417 530.38919319 21.52740386 530.38299552 25.46096778 530.37480676 C29.71070525 530.36819771 33.96043019 530.37323138 38.21016884 530.37703323 C45.5715403 530.38224922 52.93288541 530.38076783 60.29425621 530.37525749 C71.94432909 530.36702608 83.59434554 530.37829157 95.24440956 530.39245987 C99.23554217 530.39706074 103.22667492 530.40151117 107.21780777 530.40589809 C108.71389203 530.40754531 108.71389203 530.40754531 110.24020021 530.4092258 C121.5855444 530.42139221 132.9308904 530.42894917 144.2762394 530.43489456 C145.31288115 530.43544262 146.34952291 530.43599068 147.41757806 530.43655535 C164.19774467 530.44500552 180.97789522 530.44168069 197.75806193 530.43574021 C215.01263297 530.43011084 232.26712353 530.44371614 249.52166998 530.47329301 C260.14853342 530.49077725 270.77516339 530.49253407 281.40202554 530.47364786 C288.69586671 530.461988 295.98955127 530.46857773 303.28337221 530.48911706 C307.48228193 530.50036821 311.68078708 530.50377008 315.87967873 530.48494148 C346.71355208 530.35615197 346.71355208 530.35615197 360.32497025 534.8888464 C364.36899303 536.21826006 368.36616318 537.10085294 372.54235268 537.88142776 C373.71668861 538.10314651 374.89102455 538.32486526 376.10094643 538.55330276 C388.4595858 540.47487697 400.94346285 540.37372638 413.41735268 540.38142776 C414.89041878 540.38243988 414.89041878 540.38243988 416.39324379 540.38347244 C430.82010781 540.3677242 444.92160377 540.0224911 459.10485268 537.13142776 C460.02798256 536.94386917 460.95111244 536.75631058 461.90221596 536.56306839 C467.51114697 535.39339761 473.0836411 534.10423003 478.64635658 532.73250198 C480.87168836 532.18843378 483.10087387 531.6716194 485.33532143 531.16658401 C508.42235275 525.77111932 530.6438853 516.35401032 552.03600502 506.28059769 C552.91595131 505.87043411 553.7958976 505.46027054 554.70250893 505.03767776 C555.48118324 504.66965042 556.25985756 504.30162308 557.06212807 503.92244339 C559.10485268 503.13142776 559.10485268 503.13142776 562.10485268 503.13142776 C558.12451832 507.48326 554.12323114 511.81471316 550.10485268 516.13142776 C549.40489174 516.88810745 548.7049308 517.64478714 547.98375893 518.42439651 C518.63131724 549.03930881 474.39056532 563.47337423 434.10485268 572.13142776 C433.20653725 572.33010452 432.30822182 572.52878128 431.38268471 572.73347855 C423.44537108 574.42576534 418.66280328 574.81435722 411.29235268 570.81892776 C395.11620847 562.30898046 374.6311146 559.58820377 356.87829018 565.08064651 C346.72525667 568.43782032 346.72525667 568.43782032 338.01687336 574.19869423 C333.83395429 576.97493412 330.30208266 576.69322049 325.38361549 576.65282059 C324.39817936 576.66047168 323.41274322 576.66812278 322.39744538 576.67600572 C319.09177167 576.69666128 315.78679305 576.68868275 312.48107338 576.68074417 C310.11234836 576.68943762 307.74362898 576.69980365 305.37491798 576.71171951 C299.60564733 576.73574943 293.83659338 576.74080043 288.06727872 576.73611899 C283.37543342 576.73255128 278.68364458 576.73605481 273.99180603 576.74456787 C272.98969692 576.74635344 272.98969692 576.74635344 271.96734318 576.74817508 C270.61005415 576.75059863 269.25276513 576.7530269 267.89547613 576.75545983 C255.16588964 576.77721331 242.4364091 576.77288567 229.70681664 576.76069014 C218.07400862 576.75036077 206.44153603 576.77283808 194.80879436 576.81088658 C182.85528489 576.84968329 170.90193391 576.86614785 158.9483611 576.85864007 C152.24102953 576.85482078 145.53402531 576.86027519 138.82674026 576.88806915 C132.51547082 576.91324201 126.20487121 576.90932306 119.89361191 576.88324738 C117.58056092 576.87851957 115.26746269 576.88397205 112.95446587 576.90049362 C91.23879692 577.04438787 91.23879692 577.04438787 83.10485268 570.13142776 C65.0581656 561.59526005 45.2303045 559.13862945 26.16637611 565.36873245 C19.45944262 567.85007545 11.19303999 571.04324045 6.10485268 576.13142776 C-17.13053634 579.32636656 -47.58922528 567.68316799 -66.89514732 555.13142776 C-70.52882883 552.37260716 -73.75284841 549.43360882 -76.89514732 546.13142776 C-77.44042076 545.5938887 -77.9856942 545.05634964 -78.54749107 544.50252151 C-97.92509401 523.99413008 -104.64124736 489.98702585 -111.73108482 463.42049026 C-112.17770615 461.75678777 -112.62462275 460.09316452 -113.07181358 458.42961502 C-114.23917327 454.08399857 -115.40266601 449.73735651 -116.5652523 445.39046097 C-117.72761072 441.04699054 -118.89352527 436.70447523 -120.05920982 432.36189651 C-121.63865927 426.47676887 -123.21685681 420.59130869 -124.79320621 414.70534992 C-127.41047174 404.93278358 -130.03727005 395.16283194 -132.67807579 385.396595 C-134.48126467 378.71503218 -136.22945035 372.02024663 -137.95764732 365.31892776 C-140.08008894 357.12279714 -142.34837056 348.9807365 -144.71130943 340.85091019 C-146.69303512 333.97775636 -148.43950401 327.06043453 -150.13489342 320.11189651 C-151.56921511 314.28591289 -153.24540062 308.57195213 -155.06702232 302.85408401 C-155.77350838 300.53134447 -156.34577958 298.25716204 -156.83264732 295.88142776 C-157.67124714 291.81099702 -158.85141808 287.86661468 -160.05530357 283.89314651 C-162.21202413 276.66935808 -164.16505416 269.40278457 -166.05139732 262.10408401 C-166.45999741 260.53033508 -166.45999741 260.53033508 -166.87685204 258.92479324 C-168.00396955 254.58053953 -169.12942556 250.23596636 -170.23840904 245.887043 C-171.06168307 242.66498476 -171.89915618 239.44688411 -172.73889732 236.22908401 C-172.98176476 235.26221161 -173.22463219 234.2953392 -173.47485924 233.29916763 C-176.09718905 223.34370768 -179.59561897 214.38360941 -188.39514732 208.44392776 C-194.3432474 205.32117522 -198.78539793 204.86792989 -205.42371178 204.96785355 C-206.85393669 204.97705322 -206.85393669 204.97705322 -208.31305504 204.98643875 C-210.3799616 205.00072586 -212.44684097 205.01949391 -214.51367188 205.0422287 C-217.78856903 205.07706084 -221.06327027 205.09762426 -224.33830833 205.11406326 C-233.64870303 205.16292114 -242.95883401 205.23399752 -252.26892662 205.3233223 C-257.96753447 205.37699787 -263.66598965 205.41101237 -269.36480331 205.43305969 C-271.53250516 205.44544836 -273.7001778 205.4654204 -275.86773682 205.49321747 C-278.90481934 205.53181305 -281.94110387 205.54546401 -284.97839928 205.55379105 C-285.86750496 205.57131424 -286.75661064 205.58883743 -287.67265892 205.60689163 C-295.13781456 205.5836217 -300.39782522 203.62874987 -305.70764732 198.31892776 C-310.77196201 190.93949779 -311.41696968 185.12970606 -311.39514732 176.31892776 C-311.4235067 175.28961136 -311.45186607 174.26029495 -311.48108482 173.19978714 C-311.49906937 166.09139328 -310.56235403 159.72939484 -305.89514732 154.13142776 C-299.70940278 148.94525873 -294.82531399 147.24586736 -286.83655357 147.35506058 C-285.87433891 147.34454666 -284.91212425 147.33403275 -283.92075157 147.32320023 C-280.76570698 147.29696664 -277.6127095 147.31421262 -274.45764732 147.33455276 C-272.25004251 147.3305064 -270.0424403 147.32467944 -267.83484459 147.31715775 C-263.2182922 147.30833375 -258.60243851 147.32109883 -253.98596764 147.3492012 C-248.08446699 147.38338567 -242.18460372 147.36369093 -236.28316307 147.32776642 C-231.72758328 147.30602865 -227.17238822 147.31301141 -222.61679649 147.32853317 C-220.44160325 147.33252013 -218.26637446 147.32767869 -216.09122276 147.31365585 C-213.0444618 147.29832188 -210.00030899 147.32177137 -206.95374107 147.35506058 C-206.06516411 147.34291519 -205.17658714 147.33076981 -204.2610836 147.31825638 C-197.33243668 147.4576808 -193.28940286 149.94595023 -187.89514732 154.13142776 C-185.2995951 155.86179591 -183.7263059 156.58790899 -180.83264732 157.44392776 C-171.15216727 160.60809762 -163.52417856 165.41934739 -155.89514732 172.13142776 C-154.75045982 173.11562698 -154.75045982 173.11562698 -153.58264732 174.11970901 C-136.74780012 189.63933378 -131.18686787 212.81217274 -126.20616722 234.32036209 C-123.4247144 246.31684263 -120.19249835 258.16102892 -116.83264732 270.00642776 C-115.7984715 273.67003347 -114.76654178 277.33426966 -113.73499107 280.99861526 C-113.48540642 281.88385376 -113.23582176 282.76909225 -112.97867393 283.68115616 C-111.25316036 289.81515482 -109.59807714 295.96409849 -107.96961021 302.12459183 C-105.61544674 310.96287593 -103.11035782 319.76114984 -100.64514732 328.56892776 C-100.08517012 330.57216023 -99.52527374 332.57541529 -98.96545982 334.57869339 C-97.60961874 339.42986531 -96.25269083 344.28073198 -94.89514732 349.13142776 C-92.73411997 336.08106778 -90.69122814 323.03344108 -89.03601646 309.90877151 C-88.12976137 302.77916332 -87.09725811 295.67457249 -86.02014732 288.56892776 C-84.21022982 276.59663916 -82.6281049 264.60119868 -81.07495689 252.5934639 C-79.76428487 242.48020436 -78.37085593 232.39128186 -76.77014732 222.31892776 C-74.95168918 210.87094822 -73.53442789 199.39456201 -72.21106529 187.87996292 C-71.76316606 183.98317034 -71.30455539 180.08788144 -70.83264732 176.19392776 C-70.62961998 174.47883011 -70.62961998 174.47883011 -70.42249107 172.72908401 C-70.0323941 170.06775579 -69.5597926 167.52264349 -68.99280357 164.90095901 C-67.29202988 156.6027217 -66.43118827 148.15760698 -65.39514732 139.75642776 C-62.98265433 120.27399571 -62.98265433 120.27399571 -61.3331356 110.79793167 C-60.58130058 106.22070642 -60.09697377 101.61524166 -59.58264732 97.00642776 C-58.4371901 87.20909667 -57.16796518 77.43212047 -55.77347374 67.66737747 C-55.56636764 66.20932971 -55.36261535 64.75080078 -55.16257286 63.29176712 C-52.51136142 44.02802627 -47.85192548 25.55318411 -32.02014732 12.81892776 C-22.77647284 5.91201793 -11.78055117 0.01717647 0 0 Z " fill="#FD5002" transform="translate(461.8951473236084,289.8685722351074)"/>
<path d="M0 0 C0.82201904 -0.00970322 1.64403809 -0.01940643 2.4909668 -0.02940369 C5.15809031 -0.05434456 7.82495889 -0.06694216 10.4921875 -0.07421875 C11.40369568 -0.07683716 12.31520386 -0.07945557 13.2543335 -0.08215332 C34.58898483 -0.08870099 55.97200014 1.51434763 76.3671875 8.23828125 C77.09566895 8.46854004 77.82415039 8.69879883 78.57470703 8.93603516 C114.918729 20.48148034 155.24354265 43.66311288 174.3671875 78.23828125 C177.08384901 85.21516194 177.59892681 92.03827022 174.58984375 99.078125 C169.40173774 108.24433147 161.69886713 115.00732426 153.3671875 121.23828125 C152.56539062 121.84285156 151.76359375 122.44742188 150.9375 123.0703125 C140.46944691 130.67252154 127.76242446 139.88188052 114.4921875 139.67578125 C113.78819824 139.66603271 113.08420898 139.65628418 112.35888672 139.64624023 C102.33819419 139.30528241 97.14914093 135.43121665 90.0234375 128.734375 C74.77717876 114.40737598 56.89831051 103.12518029 36.3671875 98.23828125 C35.34109375 97.96113281 34.315 97.68398438 33.2578125 97.3984375 C-2.21970125 89.13811509 -37.67071198 97.81211248 -68.1328125 116.48828125 C-69.9794898 117.71848207 -71.81164121 118.97062742 -73.6328125 120.23828125 C-74.20402832 120.62902832 -74.77524414 121.01977539 -75.36376953 121.42236328 C-92.4648099 133.22713585 -107.22539034 147.84945764 -118.6328125 165.23828125 C-119.34566406 166.31335938 -120.05851563 167.3884375 -120.79296875 168.49609375 C-128.15674215 180.04544163 -134.33212631 192.22780201 -138.6328125 205.23828125 C-139.04273438 206.35203125 -139.45265625 207.46578125 -139.875 208.61328125 C-148.30769666 232.16495475 -151.85250115 264.3524961 -143.6328125 288.23828125 C-143.186072 289.67834636 -142.73946819 291.11845388 -142.29296875 292.55859375 C-136.54464304 310.13739195 -128.72701399 327.09073485 -116.6328125 341.23828125 C-115.35470703 342.74068359 -115.35470703 342.74068359 -114.05078125 344.2734375 C-94.72933598 366.40597322 -69.95316598 379.54040142 -41.6328125 386.23828125 C-40.4403894 386.53520874 -40.4403894 386.53520874 -39.22387695 386.83813477 C-30.90772057 388.65240854 -22.58397409 388.50701636 -14.11694336 388.4440918 C-11.57200081 388.42579339 -9.02742357 388.42358311 -6.48242188 388.42382812 C9.64710983 388.42191582 9.64710983 388.42191582 25.3046875 384.92578125 C26.34351074 384.58595215 26.34351074 384.58595215 27.40332031 384.23925781 C29.39497865 383.58277908 31.38114852 382.91152373 33.3671875 382.23828125 C34.28113281 381.94050781 35.19507813 381.64273437 36.13671875 381.3359375 C65.89906186 371.16518403 92.84853142 353.99772346 114.40234375 331.078125 C119.04082857 326.73473266 122.45290638 325.82490191 128.8046875 325.86328125 C130.72087891 325.85167969 130.72087891 325.85167969 132.67578125 325.83984375 C141.82119457 326.82696773 147.70520411 333.54073321 153.3671875 340.23828125 C157.04553786 345.01975501 160.26482864 350.07022399 163.3671875 355.23828125 C163.86605469 356.04007813 164.36492187 356.841875 164.87890625 357.66796875 C168.81487289 364.98748567 168.7174967 374.14264075 166.625 382.0390625 C161.62347769 393.48415187 149.91914852 401.74628985 140.3671875 409.23828125 C139.42875 410.00527344 138.4903125 410.77226563 137.5234375 411.5625 C114.53227496 429.96135559 88.06025732 442.66113485 60.3671875 452.23828125 C59.5309082 452.5307373 58.69462891 452.82319336 57.83300781 453.12451172 C0.00195014 473.12844667 -67.00191193 471.93966485 -122.49951172 445.06298828 C-125.57653426 443.51213301 -128.60408726 441.88163859 -131.6328125 440.23828125 C-132.56222656 439.77292969 -133.49164062 439.30757812 -134.44921875 438.828125 C-143.44042953 434.23202173 -151.526612 428.21765828 -159.6328125 422.23828125 C-160.56738281 421.55378906 -161.50195312 420.86929687 -162.46484375 420.1640625 C-204.32980081 387.66103284 -230.22083974 337.18357122 -237.3828125 285.11328125 C-245.35108873 220.07562504 -224.44764725 153.34294466 -184.53125 101.9140625 C-183.56651626 100.68768993 -182.60044572 99.46236736 -181.6328125 98.23828125 C-180.82070313 97.20058594 -180.00859375 96.16289062 -179.171875 95.09375 C-173.24734911 87.81424579 -166.7427844 81.14703095 -160.1328125 74.48828125 C-159.26664307 73.61276611 -158.40047363 72.73725098 -157.50805664 71.83520508 C-151.52543805 65.88186613 -145.25683145 60.46454803 -138.6328125 55.23828125 C-137.9634668 54.70428711 -137.29412109 54.17029297 -136.60449219 53.62011719 C-101.15693728 25.60295196 -60.35131286 7.5164535 -15.6328125 1.23828125 C-14.55016113 1.06321045 -13.46750977 0.88813965 -12.35205078 0.70776367 C-8.21003397 0.18491358 -4.16968343 0.04105331 0 0 Z " fill="#FD4D02" transform="translate(901.6328125,352.76171875)"/>
<path d="M0 0 C1.44332199 -0.01577087 1.44332199 -0.01577087 2.915802 -0.03186035 C6.07084659 -0.05809394 9.22384407 -0.04084796 12.37890625 -0.02050781 C14.58651107 -0.02455418 16.79411327 -0.03038113 19.00170898 -0.03790283 C23.61826137 -0.04672683 28.23411507 -0.03396175 32.85058594 -0.00585938 C38.75208659 0.02832509 44.65194985 0.00863036 50.5533905 -0.02729416 C55.1089703 -0.04903193 59.66416535 -0.04204917 64.21975708 -0.0265274 C66.39495032 -0.02254044 68.57017911 -0.02738189 70.74533081 -0.04140472 C73.79209177 -0.0567387 76.83624459 -0.0332892 79.8828125 0 C81.21567795 -0.01821808 81.21567795 -0.01821808 82.57546997 -0.0368042 C89.50411689 0.10262022 93.54715071 2.59088965 98.94140625 6.77636719 C101.53695847 8.50673534 103.11024768 9.23284841 106.00390625 10.08886719 C115.68438631 13.25303704 123.31237501 18.06428682 130.94140625 24.77636719 C132.08609375 25.76056641 132.08609375 25.76056641 133.25390625 26.76464844 C150.08875346 42.28427321 155.64968571 65.45711216 160.63038635 86.96530151 C163.41183917 98.96178205 166.64405523 110.80596835 170.00390625 122.65136719 C171.03808207 126.3149729 172.06999426 129.97921401 173.1015625 133.64355469 C173.3522348 134.53250931 173.6029071 135.42146393 173.86117554 136.33735657 C175.22175178 141.17339075 176.54859098 146.01576008 177.828125 150.87402344 C180.62939083 161.47083659 183.64850675 172.00771366 186.62454224 182.55645752 C196.28222278 216.79634544 196.28222278 216.79634544 200.50390625 232.90136719 C202.81313603 241.70163638 205.30109903 250.41174013 208.01342773 259.09570312 C211.8083081 271.37257079 215.16598448 283.77792363 218.59082031 296.16186523 C228.15257495 340.1237857 228.15257495 340.1237857 255.29296875 373.40136719 C268.7393211 380.38236428 281.09922995 383.08399672 296.18319702 383.02119446 C297.6211046 383.02261871 299.05901152 383.02493357 300.49691641 383.0280568 C304.43048774 383.03413261 308.36395744 383.02793495 312.29752135 383.01974618 C316.54725882 383.01313713 320.79698376 383.0181708 325.04672241 383.02197266 C332.40809387 383.02718864 339.76943898 383.02570726 347.13080978 383.02019691 C358.78088266 383.0119655 370.43089911 383.023231 382.08096313 383.03739929 C386.07209574 383.04200016 390.0632285 383.04645059 394.05436134 383.05083752 C395.5504456 383.05248473 395.5504456 383.05248473 397.07675379 383.05416522 C408.42209797 383.06633163 419.76744397 383.0738886 431.11279297 383.07983398 C432.14943473 383.08038204 433.18607649 383.0809301 434.25413163 383.08149477 C451.03429825 383.08994495 467.8144488 383.08662011 484.5946155 383.08067963 C501.84918654 383.07505026 519.1036771 383.08865556 536.35822356 383.11823243 C546.98508699 383.13571668 557.61171697 383.1374735 568.23857911 383.11858728 C575.53242029 383.10692742 582.82610484 383.11351716 590.11992578 383.13405649 C594.3188355 383.14530763 598.51734066 383.1487095 602.7162323 383.12988091 C633.55010566 383.00109139 633.55010566 383.00109139 647.16152382 387.53378582 C651.2055466 388.86319948 655.20271675 389.74579236 659.37890625 390.52636719 C660.55324219 390.74808594 661.72757813 390.96980469 662.9375 391.19824219 C675.29613937 393.11981639 687.78001642 393.01866581 700.25390625 393.02636719 C701.72697235 393.0273793 701.72697235 393.0273793 703.22979736 393.02841187 C717.65666139 393.01266362 731.75815734 392.66743052 745.94140625 389.77636719 C746.86453613 389.58880859 747.78766602 389.40125 748.73876953 389.20800781 C754.34770054 388.03833703 759.92019468 386.74916945 765.48291016 385.37744141 C767.70824193 384.8333732 769.93742744 384.31655882 772.171875 383.81152344 C795.25890632 378.41605874 817.48043888 368.99894974 838.87255859 358.92553711 C839.75250488 358.51537354 840.63245117 358.10520996 841.5390625 357.68261719 C842.31773682 357.31458984 843.09641113 356.9465625 843.89868164 356.56738281 C845.94140625 355.77636719 845.94140625 355.77636719 848.94140625 355.77636719 C844.96107189 360.12819942 840.95978472 364.45965258 836.94140625 368.77636719 C836.24144531 369.53304688 835.54148437 370.28972656 834.8203125 371.06933594 C805.46787081 401.68424823 761.22711889 416.11831365 720.94140625 424.77636719 C720.04309082 424.97504395 719.14477539 425.1737207 718.21923828 425.37841797 C710.28192465 427.07070476 705.49935685 427.45929664 698.12890625 423.46386719 C681.95276205 414.95391988 661.46766818 412.23314319 643.71484375 417.72558594 C633.56181024 421.08275974 633.56181024 421.08275974 624.85342693 426.84363365 C620.67050786 429.61987354 617.13863624 429.33815991 612.22016907 429.29776001 C611.23473293 429.3054111 610.24929679 429.3130622 609.23399895 429.32094514 C605.92832525 429.34160071 602.62334663 429.33362217 599.31762695 429.32568359 C596.94890194 429.33437704 594.58018255 429.34474308 592.21147156 429.35665894 C586.4422009 429.38068885 580.67314695 429.38573986 574.90383229 429.38105841 C570.21198699 429.37749071 565.52019815 429.38099423 560.8283596 429.38950729 C559.82625049 429.39129286 559.82625049 429.39129286 558.80389675 429.3931145 C557.44660773 429.39553806 556.08931871 429.39796633 554.7320297 429.40039925 C542.00244321 429.42215273 529.27296267 429.4178251 516.54337021 429.40562956 C504.9105622 429.39530019 493.2780896 429.41777751 481.64534793 429.455826 C469.69183846 429.49462271 457.73848749 429.51108727 445.78491467 429.5035795 C439.07758311 429.4997602 432.37057888 429.50521461 425.66329384 429.53300858 C419.35202439 429.55818143 413.04142478 429.55426249 406.73016548 429.5281868 C404.41711449 429.52345899 402.10401626 429.52891147 399.79101944 429.54543304 C378.0753505 429.6893273 378.0753505 429.6893273 369.94140625 422.77636719 C351.89471918 414.24019948 332.06685808 411.78356887 313.00292969 418.01367188 C306.29599619 420.49501487 298.02959357 423.68817987 292.94140625 428.77636719 C269.70601724 431.97130599 239.24732829 420.32810741 219.94140625 407.77636719 C216.30772474 405.01754658 213.08370517 402.07854824 209.94140625 398.77636719 C209.39613281 398.23882813 208.85085938 397.70128906 208.2890625 397.14746094 C188.91145956 376.6390695 182.19530621 342.63196527 175.10546875 316.06542969 C174.65884742 314.4017272 174.21193082 312.73810395 173.76473999 311.07455444 C172.59738031 306.72893799 171.43388756 302.38229594 170.27130127 298.03540039 C169.10894285 293.69192996 167.9430283 289.34941466 166.77734375 285.00683594 C165.1978943 279.1217083 163.61969676 273.23624811 162.04334736 267.35028934 C159.42608183 257.577723 156.79928353 247.80777136 154.15847778 238.04153442 C152.35528891 231.3599716 150.60710322 224.66518605 148.87890625 217.96386719 C146.75646464 209.76773657 144.48818302 201.62567592 142.12524414 193.49584961 C140.14351846 186.62269579 138.39704957 179.70537395 136.70166016 172.75683594 C135.26733847 166.93085231 133.59115295 161.21689155 131.76953125 155.49902344 C131.06304519 153.1762839 130.490774 150.90210146 130.00390625 148.52636719 C129.16530644 144.45593644 127.98513549 140.5115541 126.78125 136.53808594 C124.62452945 129.3142975 122.67149941 122.04772399 120.78515625 114.74902344 C120.37655617 113.17527451 120.37655617 113.17527451 119.95970154 111.56973267 C118.83258402 107.22547895 117.70712802 102.88090579 116.59814453 98.53198242 C115.7748705 95.30992418 114.93739739 92.09182353 114.09765625 88.87402344 C113.85478882 87.90715103 113.61192139 86.94027863 113.36169434 85.94410706 C110.73936453 75.9886471 107.24093461 67.02854883 98.44140625 61.08886719 C92.49330617 57.96611465 88.05115564 57.51286931 81.4128418 57.61279297 C80.45935852 57.61892609 79.50587524 57.6250592 78.52349854 57.63137817 C76.45659197 57.64566528 74.3897126 57.66443333 72.3228817 57.68716812 C69.04798455 57.72200026 65.77328331 57.74256369 62.49824524 57.75900269 C53.18785054 57.80786056 43.87771957 57.87893694 34.56762695 57.96826172 C28.86901911 58.0219373 23.17056393 58.05595179 17.47175026 58.07799911 C15.30404841 58.09038778 13.13637578 58.11035982 10.96881676 58.13815689 C7.93173424 58.17675248 4.89544971 58.19040343 1.8581543 58.19873047 C0.52449577 58.22501526 0.52449577 58.22501526 -0.83610535 58.25183105 C-8.30126099 58.22856112 -13.56127165 56.27368929 -18.87109375 50.96386719 C-23.93540844 43.58443721 -24.58041611 37.77464548 -24.55859375 28.96386719 C-24.58695313 27.93455078 -24.6153125 26.90523438 -24.64453125 25.84472656 C-24.6625158 18.7363327 -23.72580045 12.37433427 -19.05859375 6.77636719 C-12.8728492 1.59019815 -7.98876042 -0.10919322 0 0 Z " fill="#0D1C31" transform="translate(175.05859375,437.2236328125)"/>
<path d="M0 0 C11.85619405 8.29158669 19.13139136 20.23087577 22.98828125 34.08984375 C23.24162636 36.31249004 23.42884803 38.54363102 23.55078125 40.77734375 C23.74262222 44.17175438 23.91156283 46.8596885 24.98828125 50.08984375 C25.05727225 52.15129482 25.07295852 54.21485776 25.05078125 56.27734375 C25.04175781 57.36402344 25.03273438 58.45070313 25.0234375 59.5703125 C25.01183594 60.40175781 25.00023437 61.23320313 24.98828125 62.08984375 C25.68912842 62.06365967 26.38997559 62.03747559 27.11206055 62.01049805 C30.29973775 61.90630835 33.48705651 61.84144792 36.67578125 61.77734375 C37.77857422 61.73544922 38.88136719 61.69355469 40.01757812 61.65039062 C48.02311033 61.52946114 48.02311033 61.52946114 52.08984375 63.890625 C54.86877243 68.57363444 55.72105927 73.26893059 56.67578125 78.58984375 C56.88436768 79.66613037 57.0929541 80.74241699 57.30786133 81.85131836 C58.54814532 88.3438204 59.68495201 94.84976559 60.53125 101.40625 C60.96999649 103.98247941 61.63771886 106.41386725 62.37915039 108.91674805 C66.95152811 125.2288659 70.25163345 142.02104864 73.88397217 158.56512451 C74.24307566 160.19704905 74.60457946 161.82844739 74.96856689 163.45928955 C75.48116105 165.76038452 75.98400474 168.0634077 76.484375 170.3671875 C76.63715408 171.04521927 76.78993317 171.72325104 76.94734192 172.42182922 C77.86449336 176.71043619 78.27615371 180.70894225 77.98828125 185.08984375 C68.79303419 198.39567794 51.66428099 208.24778218 37.81640625 216.05175781 C36.02501297 217.06898594 34.25706913 218.11986248 32.48828125 219.17578125 C4.34554251 235.53666348 -32.43120014 240.78640905 -64.01171875 233.08984375 C-65.18468506 232.80778076 -65.18468506 232.80778076 -66.38134766 232.52001953 C-90.28839396 226.56103535 -109.64278616 214.57080388 -126.47460938 196.71289062 C-127.80229973 195.31097108 -129.16203424 193.93952826 -130.52734375 192.57421875 C-135.05982824 187.61346801 -135.05982824 187.61346801 -134.93701172 183.72387695 C-134.66074951 182.44516724 -134.66074951 182.44516724 -134.37890625 181.140625 C-134.17297852 180.17181396 -133.96705078 179.20300293 -133.75488281 178.20483398 C-132.45825913 172.7700043 -131.0794631 167.36269762 -129.63671875 161.96484375 C-127.50054044 153.9305448 -125.47062742 145.88418196 -123.58543396 137.78804016 C-119.94061826 122.1712402 -115.95512171 106.63336404 -112.01171875 91.08984375 C-111.82637573 90.3575354 -111.64103271 89.62522705 -111.45007324 88.87072754 C-110.34309773 84.50138085 -109.21569133 80.1378382 -108.07421875 75.77734375 C-107.80440186 74.71781494 -107.53458496 73.65828613 -107.2565918 72.56665039 C-107.00176025 71.60879639 -106.74692871 70.65094238 -106.484375 69.6640625 C-106.27047119 68.84510498 -106.05656738 68.02614746 -105.83618164 67.18237305 C-104.86770917 64.72434003 -104.19894015 63.59121629 -102.01171875 62.08984375 C-99.19262695 61.74926758 -99.19262695 61.74926758 -95.8125 61.796875 C-94.60400391 61.80654297 -93.39550781 61.81621094 -92.15039062 61.82617188 C-90.88775391 61.85130859 -89.62511719 61.87644531 -88.32421875 61.90234375 C-86.41286133 61.92264648 -86.41286133 61.92264648 -84.46289062 61.94335938 C-81.31207818 61.97876176 -78.1621083 62.02814585 -75.01171875 62.08984375 C-75.02041992 61.24566895 -75.02912109 60.40149414 -75.03808594 59.53173828 C-75.11561613 46.54912271 -74.48575912 34.07148455 -69.01171875 22.08984375 C-68.66367187 21.32414063 -68.315625 20.5584375 -67.95703125 19.76953125 C-61.74621186 7.47639218 -51.27535384 -1.81575847 -38.23828125 -6.22265625 C-24.79930763 -9.08616637 -11.63049094 -7.22656934 0 0 Z " fill="#FD5A03" transform="translate(926.01171875,491.91015625)"/>
<path d="M0 0 C1.01602295 0.00757324 2.0320459 0.01514648 3.07885742 0.02294922 C17.4337211 0.33818787 29.24922958 5.75735623 39.8125 15.46875 C50.98989249 27.20501212 55.15201819 40.17038198 54.89453125 56.01171875 C54.40691231 69.94924409 48.82270762 82.72877388 38.6875 92.4375 C24.28480029 105.02393005 8.93551347 107.75313791 -9.68652344 106.72753906 C-18.9980185 105.69908461 -27.43602431 100.60984855 -34.3125 94.4375 C-35.30830078 93.57898438 -35.30830078 93.57898438 -36.32421875 92.703125 C-46.74624462 83.09500972 -53.14189196 69.66339827 -53.78320312 55.48632812 C-54.00414748 40.03495264 -48.18437134 26.34539138 -37.625 15.125 C-26.76779978 4.86181073 -14.80476271 -0.15428005 0 0 Z " fill="#0F1D32" transform="translate(510.3125,865.5625)"/>
<path d="M0 0 C11.07432245 7.60326616 20.14932247 18.50972138 23.3515625 31.7734375 C23.95903299 36.12272201 24.0992786 40.40120744 24.12890625 44.7890625 C24.1345459 45.58497803 24.14018555 46.38089355 24.14599609 47.20092773 C23.97832349 60.87761275 18.0724486 74.09163434 8.81640625 84.1015625 C0.30074171 91.9539764 -11.47368598 98.29519161 -23.18359375 99.1015625 C-24.90835938 99.22144531 -24.90835938 99.22144531 -26.66796875 99.34375 C-40.74436381 99.83211473 -53.87280508 95.93569121 -64.84375 86.9140625 C-76.09616605 76.32355328 -83.10032638 62.82799957 -83.60327148 47.28198242 C-83.72258827 31.42919536 -78.54241906 18.97090628 -67.52734375 7.38671875 C-48.80592881 -10.86666082 -22.29406701 -13.29437616 0 0 Z " fill="#0E1D31" transform="translate(869.18359375,873.8984375)"/>
<path d="M0 0 C1.44332199 -0.01577087 1.44332199 -0.01577087 2.915802 -0.03186035 C6.07084659 -0.05809394 9.22384407 -0.04084796 12.37890625 -0.02050781 C14.58651107 -0.02455418 16.79411327 -0.03038113 19.00170898 -0.03790283 C23.61826137 -0.04672683 28.23411507 -0.03396175 32.85058594 -0.00585938 C38.75208659 0.02832509 44.65194985 0.00863036 50.5533905 -0.02729416 C55.1089703 -0.04903193 59.66416535 -0.04204917 64.21975708 -0.0265274 C66.39495032 -0.02254044 68.57017911 -0.02738189 70.74533081 -0.04140472 C73.79209177 -0.0567387 76.83624459 -0.0332892 79.8828125 0 C81.21567795 -0.01821808 81.21567795 -0.01821808 82.57546997 -0.0368042 C89.33909647 0.09929954 93.85281521 2.33270798 98.94140625 6.77636719 C104.15871391 13.24695899 103.50742675 20.88303378 103.37890625 28.83886719 C103.38599609 30.07958984 103.39308594 31.3203125 103.40039062 32.59863281 C103.34896482 39.99208187 103.2725087 45.88481859 98.29296875 51.70214844 C97.43832031 52.38857422 97.43832031 52.38857422 96.56640625 53.08886719 C96.00179687 53.559375 95.4371875 54.02988281 94.85546875 54.51464844 C89.57588429 57.99486431 84.81893565 58.07330271 78.68823242 58.06689453 C77.30189857 58.07697037 77.30189857 58.07697037 75.88755798 58.08724976 C72.83644208 58.10622554 69.78554622 58.11015385 66.734375 58.11230469 C64.60834157 58.11873324 62.48230904 58.12546165 60.35627747 58.13247681 C55.90017649 58.14444877 51.44415303 58.14815774 46.98803711 58.14697266 C41.2884635 58.14676955 35.58938899 58.17406346 29.88993359 58.20851707 C25.49833409 58.23079636 21.10685446 58.23480986 16.71520424 58.2337532 C14.61452834 58.23610792 12.51384907 58.24492411 10.41322899 58.26041794 C7.46938906 58.28009694 4.52662228 58.27423196 1.58276367 58.26220703 C0.72171021 58.27344604 -0.13934326 58.28468506 -1.02648926 58.29626465 C-8.38376957 58.22021073 -13.64180091 56.19316003 -18.87109375 50.96386719 C-23.93540844 43.58443721 -24.58041611 37.77464548 -24.55859375 28.96386719 C-24.58695313 27.93455078 -24.6153125 26.90523438 -24.64453125 25.84472656 C-24.6625158 18.7363327 -23.72580045 12.37433427 -19.05859375 6.77636719 C-12.8728492 1.59019815 -7.98876042 -0.10919322 0 0 Z " fill="#FB4B02" transform="translate(175.05859375,437.2236328125)"/>
<path d="M0 0 C1.78586827 -0.0078514 3.57172552 -0.01869512 5.3575592 -0.03230286 C10.20072594 -0.05992301 15.04282312 -0.0434689 19.88596272 -0.01745439 C24.95519672 0.00400167 30.02435643 -0.00951419 35.09361267 -0.01774597 C43.60522366 -0.02590376 52.11640528 -0.00524688 60.62792969 0.03222656 C70.46890149 0.07517673 80.30903185 0.07161491 90.15003783 0.04335898 C99.61789064 0.01732959 109.08543073 0.02513778 118.55328178 0.04805946 C122.58236482 0.05716096 126.61117366 0.05421013 130.64024544 0.0415554 C135.38398643 0.02811968 140.1267302 0.04423326 144.87032127 0.08319283 C146.61137474 0.09272626 148.35251835 0.09205352 150.09355927 0.08045197 C152.47043985 0.06629941 154.84420052 0.0890756 157.22084045 0.1212616 C157.91033612 0.10855939 158.59983178 0.09585718 159.31022125 0.08277005 C162.04745514 0.15230119 164.11555312 0.40238697 166.24048316 2.20207274 C169.41139704 5.89012575 170.41754623 8.22165417 170.12866211 12.92504883 C169.32865158 16.51795324 167.26472442 19.31633027 164.69116211 21.88989258 C162.3498615 22.00079829 160.0375087 22.04658397 157.69512939 22.05052185 C156.95459627 22.05560967 156.21406314 22.06069749 155.45108962 22.06593949 C152.95071211 22.08173122 150.45036362 22.09020666 147.94995117 22.09863281 C146.16483371 22.10816588 144.37971813 22.11805679 142.59460449 22.12828064 C136.71535451 22.15972971 130.83609009 22.17993989 124.95678711 22.19848633 C123.9576916 22.20178365 122.9585961 22.20508097 121.92922497 22.20847821 C112.51234016 22.23926235 103.09545227 22.26597967 93.67853165 22.282897 C81.61849004 22.30481361 69.55889316 22.3467958 57.4990294 22.41633457 C49.02766603 22.46352861 40.55642283 22.48782446 32.08493209 22.49509388 C27.02137533 22.50005733 21.95831918 22.51520351 16.89490509 22.55483818 C12.1308692 22.59163659 7.3676212 22.60013669 2.60346985 22.58683205 C0.85429995 22.58688611 -0.89490424 22.59722915 -2.64394379 22.61858368 C-5.03187548 22.6461812 -7.41691696 22.63679814 -9.80487061 22.6181488 C-10.49777687 22.63494373 -11.19068313 22.65173866 -11.90458655 22.66904253 C-14.64828621 22.61546226 -16.72244275 22.3908164 -18.84716845 20.5757848 C-21.37908796 17.60297872 -23.12026205 15.04828703 -23.74633789 11.20239258 C-23.22235244 7.23507414 -22.35831836 5.33655732 -19.68930244 2.39110756 C-14.1104554 -1.12713376 -6.38700958 -0.06265526 0 0 Z " fill="#FD5802" transform="translate(498.308837890625,730.110107421875)"/>
<path d="M0 0 C9.99228599 6.27541018 16.02966167 14.69434523 19.4375 25.875 C19.6540625 26.54853516 19.870625 27.22207031 20.09375 27.91601562 C23.04199374 37.42501165 22.8125 45.90554411 22.8125 56.0625 C-3.5875 56.0625 -29.9875 56.0625 -57.1875 56.0625 C-57.1875 38.14476869 -56.76352066 23.23064524 -45.875 8.6875 C-33.77055665 -3.13544467 -15.60745845 -7.85842826 0 0 Z " fill="#FAFAF9" transform="translate(918.1875,497.9375)"/>
<path d="M0 0 C1.45926957 -0.00486108 2.91853247 -0.01230482 4.3777771 -0.02212524 C8.32634503 -0.04087883 12.27391586 -0.0221501 16.22240567 0.00453901 C20.36091263 0.02723365 24.49937285 0.01894807 28.63792419 0.01504517 C35.5857668 0.01328145 42.5332183 0.03539533 49.48095703 0.07226562 C57.50694284 0.1146148 65.53235628 0.12161604 73.55843121 0.10914171 C81.28936077 0.09774256 89.02008934 0.10905843 96.75098991 0.1314888 C100.0367601 0.14076354 103.32240702 0.14253605 106.60818672 0.13831711 C110.47849383 0.13454268 114.34822048 0.15082356 118.21839523 0.1824379 C119.63651948 0.19090388 121.05470273 0.19263787 122.47284126 0.1870575 C135.84673139 0.14242442 135.84673139 0.14242442 140.62280273 4.74462891 C143.09641961 8.45505422 143.16887551 11.44325566 142.62280273 15.74462891 C141.38837367 18.58381575 140.50087469 20.17553295 137.90204525 21.85988617 C134.96722912 22.99910555 132.55424899 23.00864401 129.40492249 23.0255127 C128.12769821 23.03693298 126.85047394 23.04835327 125.5345459 23.06011963 C124.12133828 23.06261015 122.70813022 23.06486038 121.29492188 23.06689453 C119.80492157 23.07615427 118.31492599 23.08620405 116.82493591 23.09698486 C112.7795133 23.12319934 108.73415702 23.13611542 104.68866277 23.14500618 C102.16120656 23.15087137 99.63376843 23.15908155 97.10632133 23.16801453 C89.19819984 23.19535183 81.29011972 23.21469288 73.38195425 23.22241831 C64.25299243 23.23138559 55.12462866 23.26651348 45.99584872 23.3244195 C38.93841099 23.36763334 31.88114169 23.38782567 24.82357305 23.39050055 C20.60847214 23.39259756 16.39393389 23.40443073 12.17897224 23.44013977 C8.21507762 23.47307014 4.25216959 23.47742967 0.28818703 23.45986176 C-1.16588227 23.45831937 -2.62000429 23.46702898 -4.07394028 23.48677826 C-15.0315553 23.62688399 -15.0315553 23.62688399 -18.34994698 21.45121765 C-20.91420717 18.50543483 -22.10235383 15.62020492 -22.12719727 11.74462891 C-22.16329102 10.94025391 -22.19938477 10.13587891 -22.23657227 9.30712891 C-18.86046237 -0.75981696 -8.95344984 -0.1044581 0 0 Z " fill="#FD5C07" transform="translate(505.377197265625,683.25537109375)"/>
<path d="M0 0 C1.66934853 -0.00832352 1.66934853 -0.00832352 3.37242126 -0.01681519 C7.04494509 -0.02860956 10.71623463 -0.00433623 14.38867188 0.02148438 C16.94405053 0.02319558 19.49943095 0.0231297 22.05480957 0.0213623 C27.40798087 0.02301545 32.76072291 0.04112947 38.11376953 0.07324219 C44.29300683 0.11013219 50.47178094 0.11891705 56.65111399 0.11194468 C62.60774881 0.10562825 68.56424668 0.11662932 74.52085876 0.13591003 C77.05019864 0.14293865 79.57955248 0.14606474 82.10890198 0.1452179 C85.64447235 0.14701663 89.17938686 0.16840646 92.71484375 0.1953125 C93.75918076 0.1923819 94.80351776 0.18945129 95.87950134 0.18643188 C101.27827336 0.24978449 105.21914272 0.527018 109.85742188 3.61523438 C112.47015873 6.6493804 112.8668478 8.0873828 112.79492188 12.11523438 C111.78225933 15.89584122 110.56346361 17.82719137 107.85742188 20.61523438 C105.43398742 21.8269516 103.8794928 21.75162128 101.17082214 21.76913452 C100.18242844 21.77773499 99.19403473 21.78633545 98.1756897 21.79519653 C97.08734833 21.79945648 95.99900696 21.80371643 94.87768555 21.80810547 C93.73450363 21.81628296 92.59132172 21.82446045 91.41349792 21.83288574 C87.61746755 21.85776847 83.82147461 21.87426218 80.02539062 21.88867188 C78.73162317 21.89399555 77.43785572 21.89931923 76.10488319 21.90480423 C70.66871203 21.9260389 65.2325531 21.94516904 59.79635143 21.95642662 C52.00592296 21.97266566 44.21599326 22.00584197 36.42575282 22.06282747 C30.28762055 22.10619671 24.14968397 22.12217158 18.01140785 22.12855911 C15.40025594 22.13528929 12.78911179 22.15055673 10.17806053 22.17444992 C6.52676574 22.20595866 2.87673603 22.206159 -0.7746582 22.19873047 C-1.85692688 22.2151358 -2.93919556 22.23154114 -4.05426025 22.2484436 C-11.39594625 22.18717914 -11.39594625 22.18717914 -15.29057312 19.20376587 C-17.68146233 15.86204055 -18.34540761 14.35070978 -18.08007812 10.30273438 C-18.03173828 9.16384766 -18.03173828 9.16384766 -17.98242188 8.00195312 C-15.04052752 -0.35850013 -7.51702061 -0.09546735 0 0 Z " fill="#FC4F03" transform="translate(485.142578125,775.384765625)"/>
<path d="M0 0 C11.85619405 8.29158669 19.13139136 20.23087577 22.98828125 34.08984375 C23.24162636 36.31249004 23.42884803 38.54363102 23.55078125 40.77734375 C23.74262222 44.17175438 23.91156283 46.8596885 24.98828125 50.08984375 C25.23995515 53.43977585 25.21945342 56.79392888 25.23828125 60.15234375 C25.25890625 61.07595703 25.27953125 61.99957031 25.30078125 62.95117188 C25.30851563 64.2747168 25.30851563 64.2747168 25.31640625 65.625 C25.32575195 66.43332275 25.33509766 67.24164551 25.34472656 68.07446289 C25.22709961 68.73953857 25.10947266 69.40461426 24.98828125 70.08984375 C21.98828125 72.08984375 21.98828125 72.08984375 19.42578125 71.83984375 C16.98828125 71.08984375 16.98828125 71.08984375 14.98828125 69.08984375 C14.71704102 67.18896484 14.71704102 67.18896484 14.6796875 64.86328125 C14.64524536 63.57405762 14.64524536 63.57405762 14.61010742 62.25878906 C14.59052979 61.33678711 14.57095215 60.41478516 14.55078125 59.46484375 C14.11375766 47.02402615 13.30112317 34.13196725 6.98828125 23.08984375 C6.55644531 22.3215625 6.12460937 21.55328125 5.6796875 20.76171875 C2.31401251 15.25259221 -1.46854133 11.40268547 -7.01171875 8.08984375 C-7.57616699 7.74711426 -8.14061523 7.40438477 -8.72216797 7.05126953 C-14.00341005 4.09445762 -18.38508924 3.45076317 -24.38671875 3.58984375 C-25.64125854 3.60797119 -25.64125854 3.60797119 -26.92114258 3.62646484 C-33.27466491 3.83051958 -38.50181201 4.76094176 -44.01171875 8.08984375 C-44.71296875 8.49074219 -45.41421875 8.89164062 -46.13671875 9.3046875 C-55.68613358 15.54436196 -60.3433059 26.35880714 -63.01171875 37.08984375 C-64.45331973 44.72643272 -64.31828429 52.53336093 -64.44140625 60.28125 C-64.47234375 61.36792969 -64.50328125 62.45460938 -64.53515625 63.57421875 C-64.55497559 64.56131836 -64.57479492 65.54841797 -64.59521484 66.56542969 C-65.01171875 69.08984375 -65.01171875 69.08984375 -66.34619141 70.94628906 C-68.01171875 72.08984375 -68.01171875 72.08984375 -71.13671875 71.90234375 C-72.08546875 71.63421875 -73.03421875 71.36609375 -74.01171875 71.08984375 C-78.97086053 61.17156019 -74.96532884 40.27408729 -72.1640625 29.97265625 C-71.23829633 27.26657051 -70.19987358 24.69049033 -69.01171875 22.08984375 C-68.66367187 21.32414063 -68.315625 20.5584375 -67.95703125 19.76953125 C-61.74621186 7.47639218 -51.27535384 -1.81575847 -38.23828125 -6.22265625 C-24.79930763 -9.08616637 -11.63049094 -7.22656934 0 0 Z " fill="#142135" transform="translate(926.01171875,491.91015625)"/>
<path d="M0 0 C4.44260212 0.90665349 6.05858144 2.1814836 9.0625 5.625 C8.96080508 11.72669492 8.96080508 11.72669492 7.0625 13.625 C5.7311325 24.65633067 8.82773071 34.47372503 15.1875 43.5 C22.24431699 51.90318339 32.2214214 56.71040566 42.98828125 57.82421875 C53.40082961 58.37625513 64.27052941 54.53428642 72.0625 47.625 C74.64057951 44.77501367 76.89406906 41.79470096 79.0625 38.625 C79.64 37.8 80.2175 36.975 80.8125 36.125 C84.26716932 29.21566137 86.14300919 22.39905316 85.0625 14.625 C84.0725 13.14 84.0725 13.14 83.0625 11.625 C82.63994863 7.75161246 82.49582442 5.50901391 84.625 2.1875 C88.01954368 0.01151046 90.0990649 0.06872841 94.0625 0.625 C97 2.1875 97 2.1875 99.0625 4.625 C99.60476552 9.04059065 99.55086965 10.89244552 97.0625 14.625 C96.54095906 17.149602 96.09198984 19.64478305 95.6875 22.1875 C93.06746122 37.08605386 86.76443078 50.68080529 74.0625 59.625 C61.11311651 67.03171744 48.42572971 71.13520638 33.5 67.5 C20.1513666 63.37056665 9.73072868 55.48095796 2.56640625 43.49609375 C-2.36423899 34.08304375 -4.12251412 25.17080465 -3.9375 14.625 C-4.5975 14.625 -5.2575 14.625 -5.9375 14.625 C-7.79022826 11.49852105 -8.55625267 9.24912276 -7.9375 5.625 C-5.49576977 2.39329822 -3.99888253 0.85082607 0 0 Z " fill="#FDF6F1" transform="translate(855.9375,593.375)"/>
<path d="M0 0 C0.99 0 1.98 0 3 0 C3.04572586 8.38476755 2.94613543 16.74634351 2.625 25.125 C2.58246094 26.25591064 2.53992188 27.38682129 2.49609375 28.55200195 C1.82613366 45.38588096 0.85974938 62.21623028 -0.26757812 79.02563477 C-0.94276742 89.24287431 -1.29959124 99.44407231 -1.55224609 109.67895508 C-1.60432712 111.74571194 -1.66131656 113.8122922 -1.71875 115.87890625 C-1.76418945 117.68210327 -1.76418945 117.68210327 -1.81054688 119.52172852 C-2.00340229 123.06246452 -2.4471273 126.4989392 -3 130 C-8.94147312 127.63191883 -13.22265464 122.07731469 -17.54638672 117.5234375 C-18.81452801 116.19438112 -20.11014722 114.89165205 -21.41015625 113.59375 C-26.03976644 108.51314399 -26.03976644 108.51314399 -25.9375 104.62182617 C-25.751875 103.77080322 -25.56625 102.91978027 -25.375 102.04296875 C-25.16794434 101.07528564 -24.96088867 100.10760254 -24.74755859 99.1105957 C-23.44223227 93.67912521 -22.0674387 88.27171031 -20.625 82.875 C-18.49443636 74.86181817 -16.47041711 66.83685912 -14.59184265 58.76164246 C-12.47905623 49.71084819 -10.20215252 40.70124033 -7.9375 31.6875 C-7.49923598 29.93948145 -7.06108458 28.19143465 -6.62304688 26.44335938 C-5.78949663 23.1175257 -4.95535641 19.7918411 -4.12060547 16.46630859 C-2.74328144 10.97848524 -1.37080383 5.48945569 0 0 Z " fill="#E62B05" transform="translate(817,571)"/>
<path d="M0 0 C5.2292491 3.01728747 9.44975764 7.81759909 11.6875 13.4375 C12.38444643 19.93629914 12.47496531 25.89156865 8.6875 31.4375 C8.15125 32.283125 7.615 33.12875 7.0625 34 C2.23099014 38.95865485 -2.89254824 41.72307526 -9.875 42.0625 C-17.27532628 41.6800809 -21.82674289 38.29018916 -26.6875 32.9375 C-30.35060619 28.3088468 -31.7370472 24.58400111 -31.56640625 18.5546875 C-30.86013968 12.66551086 -28.44320459 7.68622472 -24.3125 3.4375 C-17.0301523 -1.91279627 -8.57094601 -3.87181731 0 0 Z " fill="#F5F6F6" transform="translate(849.3125,899.5625)"/>
<path d="M0 0 C4.87970933 3.68779703 7.61019142 8.4816204 8.87109375 14.4140625 C9.1430094 21.08645422 7.77465487 26.03347825 3.87109375 31.4140625 C-0.01980323 35.43323081 -4.14106002 38.02997464 -9.7421875 38.75 C-17.07898225 38.85617648 -22.47074026 37.92557595 -27.8828125 32.73046875 C-33.35724967 26.59646084 -34.70439997 22.02580603 -34.57421875 13.75 C-33.79145303 7.88612347 -30.91875159 3.86885289 -26.53515625 0.01171875 C-18.5607838 -5.70460436 -8.0288334 -5.12356926 0 0 Z " fill="#F6F6F7" transform="translate(524.12890625,901.5859375)"/>
<path d="M0 0 C0.99 1.485 0.99 1.485 2 3 C-5.63808679 11.78733597 -13.58971826 19.1675348 -23 26 C-22.67 24.68 -22.34 23.36 -22 22 C-23.03125 22.495 -24.0625 22.99 -25.125 23.5 C-28.53641824 24.98382826 -31.26398182 25.17790563 -35 25 C-35.495 25.495 -35.495 25.495 -36 26 C-41.67405866 26.99544889 -46.32146663 26.91262143 -52 26 C-52 25.34 -52 24.68 -52 24 C-53.03125 24.20625 -54.0625 24.4125 -55.125 24.625 C-60.98531604 25.19212736 -65.23384749 23.36434295 -70 20 C-70 19.34 -70 18.68 -70 18 C-70.99 18 -71.98 18 -73 18 C-73 17.34 -73 16.68 -73 16 C-73.66 16 -74.32 16 -75 16 C-74.67 15.34 -74.34 14.68 -74 14 C-73.443125 14.32613281 -72.88625 14.65226563 -72.3125 14.98828125 C-71.549375 15.42527344 -70.78625 15.86226562 -70 16.3125 C-69.2575 16.74175781 -68.515 17.17101562 -67.75 17.61328125 C-60.22137973 21.40967357 -54.49001111 22.45632756 -46.125 22.3125 C-44.73087891 22.31733398 -44.73087891 22.31733398 -43.30859375 22.32226562 C-33.92347316 22.25027377 -25.74626371 21.10274383 -17.6875 16.125 C-17.10677734 15.78597656 -16.52605469 15.44695313 -15.92773438 15.09765625 C-10.66057818 11.96712048 -6.27022101 8.7491456 -2.6875 3.75 C-2.17574219 3.04359375 -1.66398438 2.3371875 -1.13671875 1.609375 C-0.76160156 1.07828125 -0.38648438 0.5471875 0 0 Z " fill="#BEBFC1" transform="translate(555,949)"/>
<path d="M0 0 C1.13546265 -0.00249756 2.27092529 -0.00499512 3.4407959 -0.00756836 C6.71446743 -0.01348927 9.98804605 -0.01196034 13.26171875 -0.0078125 C14.71450478 -0.01078842 14.71450478 -0.01078842 16.19664001 -0.01382446 C22.29096091 0.00674186 28.26089854 0.40485845 34.3125 1.125 C31.27145757 3.15236162 30.71271277 3.37441232 27.3072052 3.36550903 C26.08938103 3.36963303 26.08938103 3.36963303 24.84695435 3.37384033 C23.96006927 3.36664978 23.0731842 3.35945923 22.15942383 3.35205078 C20.75425255 3.35248886 20.75425255 3.35248886 19.32069397 3.35293579 C16.22021261 3.35154098 13.1199707 3.33597255 10.01953125 3.3203125 C7.87147656 3.31658291 5.72342016 3.31373568 3.57536316 3.31173706 C-2.08162116 3.30409635 -7.73850299 3.28444405 -13.39544678 3.2623291 C-19.16661187 3.24188013 -24.93779351 3.23273737 -30.70898438 3.22265625 C-42.03520131 3.20119862 -53.36134214 3.16705735 -64.6875 3.125 C-64.6875 2.465 -64.6875 1.805 -64.6875 1.125 C-43.1248255 0.35519696 -21.57658364 0.01667726 0 0 Z " fill="#F23112" transform="translate(231.6875,491.875)"/>
<path d="M0 0 C0.495 1.485 0.495 1.485 1 3 C-0.37058133 4.25484335 -1.74671152 5.50362692 -3.125 6.75 C-4.27355469 7.79414062 -4.27355469 7.79414062 -5.4453125 8.859375 C-10.74332691 13.29868983 -15.63673963 15.83005364 -22.1875 17.75 C-22.89841797 17.97042969 -23.60933594 18.19085937 -24.34179688 18.41796875 C-27.32508702 19.32165589 -29.86634003 20 -33 20 C-33 19.34 -33 18.68 -33 18 C-33.99 18.66 -34.98 19.32 -36 20 C-38.6875 20.125 -38.6875 20.125 -41 20 C-41 19.34 -41 18.68 -41 18 C-41.66 18.33 -42.32 18.66 -43 19 C-45.55157655 19.0716735 -48.07472971 19.09308442 -50.625 19.0625 C-51.33140625 19.05798828 -52.0378125 19.05347656 -52.765625 19.04882812 C-54.51045275 19.03703875 -56.255237 19.01910324 -58 19 C-58 18.01 -58 17.02 -58 16 C-58.886875 15.731875 -59.77375 15.46375 -60.6875 15.1875 C-63.82751866 14.06183293 -66.32517438 12.98701331 -69 11 C-69.63671875 8.8984375 -69.63671875 8.8984375 -70 7 C-69.01 7.48210938 -68.02 7.96421875 -67 8.4609375 C-65.66685235 9.09934623 -64.33350839 9.73734513 -63 10.375 C-62.35160156 10.69210937 -61.70320312 11.00921875 -61.03515625 11.3359375 C-48.97982887 17.065202 -35.94052215 17.80710852 -23.05078125 14.109375 C-14.34973314 10.94535751 -6.00763687 7.24450329 0 0 Z " fill="#B6B5B7" transform="translate(878,956)"/>
<path d="M0 0 C20.71455531 0.99457302 40.21582586 4.88602991 59.8125 11.625 C60.69164062 11.92631836 61.57078125 12.22763672 62.4765625 12.53808594 C63.70439453 12.97169434 63.70439453 12.97169434 64.95703125 13.4140625 C66.05494995 13.80005615 66.05494995 13.80005615 67.17504883 14.19384766 C69 15 69 15 71 17 C69 18 69 18 66.27734375 17.109375 C65.17519531 16.66078125 64.07304688 16.2121875 62.9375 15.75 C55.10559566 12.64305773 47.65593996 10.00737847 39.36328125 8.47265625 C37.21511053 8.04302211 35.15873485 7.50607702 33.0625 6.875 C30.05007937 5.86263944 30.05007937 5.86263944 27 6 C27 5.34 27 4.68 27 4 C26.071875 4.185625 25.14375 4.37125 24.1875 4.5625 C21 5 21 5 18 4 C16.2125453 3.77587642 14.4197797 3.59239195 12.625 3.4375 C11.22121094 3.31181641 11.22121094 3.31181641 9.7890625 3.18359375 C7.01082086 2.9427833 7.01082086 2.9427833 4.2734375 3.16015625 C3.52320313 3.10730469 2.77296875 3.05445313 2 3 C1.34 2.01 0.68 1.02 0 0 Z " fill="#FC7A0C" transform="translate(929,353)"/>
<path d="M0 0 C0 0.33 0 0.66 0 1 C-0.56847656 0.98839844 -1.13695312 0.97679687 -1.72265625 0.96484375 C-6.60109178 0.90783365 -11.1768086 1.16841528 -16 2 C-16.845625 2.14566406 -17.69125 2.29132813 -18.5625 2.44140625 C-23.6802221 3.34411556 -28.7641457 4.34058323 -33.828125 5.5078125 C-35.27168707 5.83495067 -36.71985347 6.14241705 -38.171875 6.4296875 C-43.5178082 7.51024847 -48.38049922 9.20713637 -53.421875 11.29296875 C-56.34777451 12.09537452 -58.11027544 11.81598337 -61 11 C-43.96936939 1.58833572 -19.13861815 -3.09991702 0 0 Z " fill="#FC7F13" transform="translate(900,355)"/>
<path d="M0 0 C0.495 1.485 0.495 1.485 1 3 C-0.37058133 4.25484335 -1.74671152 5.50362692 -3.125 6.75 C-3.89070312 7.44609375 -4.65640625 8.1421875 -5.4453125 8.859375 C-10.74332691 13.29868983 -15.63673963 15.83005364 -22.1875 17.75 C-22.89841797 17.97042969 -23.60933594 18.19085937 -24.34179688 18.41796875 C-27.32508702 19.32165589 -29.86634003 20 -33 20 C-32.67 18.68 -32.34 17.36 -32 16 C-31.29617188 15.86464844 -30.59234375 15.72929688 -29.8671875 15.58984375 C-18.73476849 13.16280201 -7.45394488 8.98858059 0 0 Z " fill="#C3C3C5" transform="translate(878,956)"/>
<path d="M0 0 C0.6290625 0.32613281 1.258125 0.65226563 1.90625 0.98828125 C2.7621875 1.42527344 3.618125 1.86226562 4.5 2.3125 C5.75296875 2.95638672 5.75296875 2.95638672 7.03125 3.61328125 C14.69365567 7.19243127 21.09430941 8.58630559 29.5 9.1875 C30.51320313 9.26935547 31.52640625 9.35121094 32.5703125 9.43554688 C35.04625549 9.63408947 37.52251095 9.8219864 40 10 C39.67 10.66 39.34 11.32 39 12 C33.34877422 13.09058743 28.66286862 12.91010388 23 12 C23 11.34 23 10.68 23 10 C21.96875 10.20625 20.9375 10.4125 19.875 10.625 C14.01468396 11.19212736 9.76615251 9.36434295 5 6 C5 5.34 5 4.68 5 4 C4.01 4 3.02 4 2 4 C2 3.34 2 2.68 2 2 C1.34 2 0.68 2 0 2 C0 1.34 0 0.68 0 0 Z " fill="#BEBDBF" transform="translate(480,963)"/>
<path d="M0 0 C-0.96099609 0.63615234 -0.96099609 0.63615234 -1.94140625 1.28515625 C-6.95114875 4.68222456 -11.32485801 8.12286406 -15.484375 12.515625 C-17 14 -17 14 -19.5625 15.5 C-21.98053802 16.9880234 -23.16438374 18.26474354 -24.9375 20.4375 C-27.67980587 23.76643316 -30.18377471 25.96467985 -34 28 C-34.99 27.67 -35.98 27.34 -37 27 C-36.35675781 26.48953125 -35.71351563 25.9790625 -35.05078125 25.453125 C-29.01070741 20.59349355 -23.25008565 15.54150256 -17.58203125 10.25756836 C-4.97695599 -1.4930868 -4.97695599 -1.4930868 0 0 Z " fill="#FC6817" transform="translate(1027,680)"/>
<path d="M0 0 C0 3 0 3 -1.3894043 4.68579102 C-2.02789307 5.28576904 -2.66638184 5.88574707 -3.32421875 6.50390625 C-4.02353516 7.16197266 -4.72285156 7.82003906 -5.44335938 8.49804688 C-6.18392578 9.17931641 -6.92449219 9.86058594 -7.6875 10.5625 C-8.40873047 11.24763672 -9.12996094 11.93277344 -9.87304688 12.63867188 C-13.47376857 15.98948047 -16.30081663 18.35204905 -21 20 C-14.92905202 12.45233495 -7.85851422 5.68174268 0 0 Z M-22 20 C-22 24.13781054 -23.71509607 25.20919996 -26.5 28.1875 C-27.3353125 29.08855469 -28.170625 29.98960937 -29.03125 30.91796875 C-30.00578125 31.94857422 -30.00578125 31.94857422 -31 33 C-31.99 32.67 -32.98 32.34 -34 32 C-30.04 28.04 -26.08 24.08 -22 20 Z " fill="#FC600D" transform="translate(763,408)"/>
<path d="M0 0 C0.66 0.33 1.32 0.66 2 1 C-1.63 4.96 -5.26 8.92 -9 13 C-9.99 12.67 -10.98 12.34 -12 12 C-12 11.34 -12 10.68 -12 10 C-13.32 9.34 -14.64 8.68 -16 8 C-13.37964982 6.63610475 -10.75443001 5.28367827 -8.125 3.9375 C-7.37863281 3.54755859 -6.63226562 3.15761719 -5.86328125 2.75585938 C-4.79013672 2.20961914 -4.79013672 2.20961914 -3.6953125 1.65234375 C-3.03547363 1.31195068 -2.37563477 0.97155762 -1.69580078 0.62084961 C-1.13618652 0.41596924 -0.57657227 0.21108887 0 0 Z " fill="#17263E" transform="translate(1022,792)"/>
<path d="M0 0 C0.99 0.33 1.98 0.66 3 1 C5.27146256 6.0671088 6.21424329 10.499703 7 16 C7.66 16.33 8.32 16.66 9 17 C9.78125 18.890625 9.78125 18.890625 10.5 21.25 C11.31339782 23.86864298 12.13412314 26.30177706 13.25 28.8125 C14.12637306 31.3685881 13.74387955 32.46549611 13 35 C0 4.74193548 0 4.74193548 0 0 Z " fill="#FB3619" transform="translate(672,671)"/>
<path d="M0 0 C0 0.99 0 1.98 0 3 C-9.22250126 8.52401746 -18.76753098 6.96651658 -29 6 C-29 5.67 -29 5.34 -29 5 C-27.72125 4.89042969 -26.4425 4.78085937 -25.125 4.66796875 C-23.41661224 4.50839407 -21.7082818 4.34820503 -20 4.1875 C-18.74123047 4.08211914 -18.74123047 4.08211914 -17.45703125 3.97460938 C-11.62192106 3.40919172 -5.53002038 0 0 0 Z " fill="#B0B1B4" transform="translate(536,967)"/>
<path d="M0 0 C0.99 0.33 1.98 0.66 3 1 C-1.24035339 5.56038006 -6.0902041 7.97104453 -11.5625 10.8125 C-12.52091797 11.32748047 -13.47933594 11.84246094 -14.46679688 12.37304688 C-15.38654297 12.85451172 -16.30628906 13.33597656 -17.25390625 13.83203125 C-18.09252197 14.27264893 -18.9311377 14.7132666 -19.79516602 15.16723633 C-22 16 -22 16 -25 15 C-24.34 15 -23.68 15 -23 15 C-23 14.34 -23 13.68 -23 13 C-19.91190305 11.23537317 -18.76687864 11 -15 11 C-15 10.34 -15 9.68 -15 9 C-12.09399739 7.74335022 -10.20395416 7 -7 7 C-7 6.34 -7 5.68 -7 5 C-5.824375 4.87625 -5.824375 4.87625 -4.625 4.75 C-1.85250896 4.27193661 -1.85250896 4.27193661 -0.6875 1.9375 C-0.460625 1.298125 -0.23375 0.65875 0 0 Z " fill="#FB3A09" transform="translate(972,699)"/>
<path d="M0 0 C1.17219543 0.78345715 2.33763668 1.57702836 3.5 2.375 C4.47453125 3.03628906 4.47453125 3.03628906 5.46875 3.7109375 C5.9740625 4.13632812 6.479375 4.56171875 7 5 C7 5.66 7 6.32 7 7 C7.639375 7.268125 8.27875 7.53625 8.9375 7.8125 C11 9 11 9 12 12 C12.99 12 13.98 12 15 12 C16.5625 14.375 16.5625 14.375 18 17 C18.66 17.66 19.32 18.32 20 19 C16.36832308 18.42214146 14.67805608 17.05312904 12.109375 14.47265625 C11.40039062 13.76302734 10.69140625 13.05339844 9.9609375 12.32226562 C9.23132813 11.57654297 8.50171875 10.83082031 7.75 10.0625 C7.00492188 9.32064453 6.25984375 8.57878906 5.4921875 7.81445312 C0 2.26694139 0 2.26694139 0 0 Z " fill="#F92D0C" transform="translate(715,748)"/>
<path d="M0 0 C0.33 0 0.66 0 1 0 C0.88480819 2.97983024 0.75809198 5.95845792 0.625 8.9375 C0.5940625 9.76830078 0.563125 10.59910156 0.53125 11.45507812 C0.26382297 17.18247369 -0.61822587 22.43358471 -2 28 C-2.66 28 -3.32 28 -4 28 C-3.86722656 26.96101562 -3.73445313 25.92203125 -3.59765625 24.8515625 C-3.41897622 23.44274567 -3.24061191 22.03388877 -3.0625 20.625 C-2.9704126 19.89780762 -2.8783252 19.17061523 -2.78344727 18.42138672 C-2.17525133 13.56120624 -1.65153736 8.70218456 -1.24609375 3.8203125 C-1 2 -1 2 0 0 Z " fill="#FA3C14" transform="translate(377,574)"/>
<path d="M0 0 C0.33 0 0.66 0 1 0 C1.43230491 7.34918342 -0.18225815 13.90215087 -2 21 C-2.66 20.34 -3.32 19.68 -4 19 C-3.828125 16.171875 -3.828125 16.171875 -3.25 12.75 C-3.06953125 11.63109375 -2.8890625 10.5121875 -2.703125 9.359375 C-2.02637498 6.12601382 -1.11127254 3.10779608 0 0 Z " fill="#FB310E" transform="translate(469,633)"/>
<path d="M0 0 C0.33 0 0.66 0 1 0 C1.08751499 4.52071021 1.1405661 9.0412007 1.1875 13.5625 C1.21263672 14.83931641 1.23777344 16.11613281 1.26367188 17.43164062 C1.31517191 24.04081154 1.32400207 29.1982641 -2 35 C-2.66 34.34 -3.32 33.68 -4 33 C-3.34 33 -2.68 33 -2 33 C-2.020625 32.030625 -2.04125 31.06125 -2.0625 30.0625 C-2 27 -2 27 -1 26 C-0.84193469 24.07521187 -0.748865 22.1450079 -0.68359375 20.21484375 C-0.64169922 19.04501953 -0.59980469 17.87519531 -0.55664062 16.66992188 C-0.49766602 14.82237305 -0.49766602 14.82237305 -0.4375 12.9375 C-0.39431641 11.70193359 -0.35113281 10.46636719 -0.30664062 9.19335938 C-0.20015802 6.12902665 -0.09814576 3.06460927 0 0 Z " fill="#ED4103" transform="translate(277,452)"/>
<path d="M0 0 C-0.33 0.99 -0.66 1.98 -1 3 C-3.984375 4.38671875 -3.984375 4.38671875 -7.75 5.6875 C-8.98234375 6.12449219 -10.2146875 6.56148437 -11.484375 7.01171875 C-14.56466351 7.87762208 -16.83923548 8.22318375 -20 8 C-16.31305306 4.88027567 -12.53651658 3.59682743 -7.875 2.5 C-5.90667551 2.04261118 -5.90667551 2.04261118 -3.875 0.9375 C-2 0 -2 0 0 0 Z " fill="#FB380A" transform="translate(946,714)"/>
<path d="M0 0 C0.74362793 0.01047363 1.48725586 0.02094727 2.25341797 0.03173828 C3.46191406 0.04140625 3.46191406 0.04140625 4.69482422 0.05126953 C5.95746094 0.07640625 5.95746094 0.07640625 7.24560547 0.10205078 C8.51984375 0.11558594 8.51984375 0.11558594 9.81982422 0.12939453 C11.9202043 0.15299431 14.02043991 0.18886595 16.12060547 0.22705078 C14.12060547 2.22705078 14.12060547 2.22705078 11.87841797 2.38720703 C11.00958984 2.35498047 10.14076172 2.32275391 9.24560547 2.28955078 C3.41222781 2.02977133 3.41222781 2.02977133 -1.56689453 4.66455078 C-2.96700047 6.20821693 -2.96700047 6.20821693 -3.87939453 8.22705078 C-4.53939453 8.22705078 -5.19939453 8.22705078 -5.87939453 8.22705078 C-3.50435935 0.42336376 -3.50435935 0.42336376 0 0 Z " fill="#FD7D14" transform="translate(825.87939453125,553.77294921875)"/>
<path d="M0 0 C0.66 0 1.32 0 2 0 C1.58169634 7.22124213 1.04538889 14.04567778 -1 21 C-1.66 20.34 -2.32 19.68 -3 19 C-2.79296875 16.42578125 -2.79296875 16.42578125 -2.1875 13.3125 C-1.98769531 12.24128906 -1.78789062 11.17007813 -1.58203125 10.06640625 C-1.38996094 9.05449219 -1.19789063 8.04257812 -1 7 C-0.63935177 4.66935931 -0.31865603 2.3368109 0 0 Z " fill="#FA2D0F" transform="translate(452,722)"/>
<path d="M0 0 C6.93 0 13.86 0 21 0 C21 0.33 21 0.66 21 1 C19.2984375 1.2165625 19.2984375 1.2165625 17.5625 1.4375 C14.19222799 1.61171478 14.19222799 1.61171478 13 3 C11.33382885 3.04063832 9.66611905 3.042721 8 3 C8 2.34 8 1.68 8 1 C7.01 1.495 7.01 1.495 6 2 C3.6670134 2.04022391 1.33293334 2.04320247 -1 2 C-0.67 1.34 -0.34 0.68 0 0 Z " fill="#D7D6D6" transform="translate(829,973)"/>
<path d="M0 0 C0.66 0.99 1.32 1.98 2 3 C0.57282151 4.67551353 -0.86708482 6.34019309 -2.3125 8 C-3.51326172 9.3921875 -3.51326172 9.3921875 -4.73828125 10.8125 C-7 13 -7 13 -10 13 C-8.4373676 9.16444775 -5.93550032 6.86390275 -3 4 C-1.97186389 2.68824014 -0.95915568 1.3630107 0 0 Z " fill="#CECFD2" transform="translate(555,949)"/>
<path d="M0 0 C0 0.66 0 1.32 0 2 C-1.32 2.33 -2.64 2.66 -4 3 C-4 3.66 -4 4.32 -4 5 C-6.97 6.32 -9.94 7.64 -13 9 C-13 8.34 -13 7.68 -13 7 C-13.66 6.67 -14.32 6.34 -15 6 C-12.87717331 4.99539469 -10.75166979 3.99644398 -8.625 3 C-7.44164062 2.443125 -6.25828125 1.88625 -5.0390625 1.3125 C-2 0 -2 0 0 0 Z " fill="#FC6F2B" transform="translate(968,722)"/>
<path d="M0 0 C2.64465038 3.1254959 3.84414715 6.08788267 5 10 C5.66 10 6.32 10 7 10 C7 10.66 7 11.32 7 12 C8.98 12 10.96 12 13 12 C12.67 12.66 12.34 13.32 12 14 C9.3125 14.375 9.3125 14.375 6 14 C3.39652377 11.76844894 1.53410547 9.06821093 0 6 C-0.039992 4.00039988 -0.04346799 1.99952758 0 0 Z " fill="#FB4625" transform="translate(475,738)"/>
<path d="M0 0 C5.61 0 11.22 0 17 0 C16.67 0.66 16.34 1.32 16 2 C10.34877422 3.09058743 5.66286862 2.91010388 0 2 C0 1.34 0 0.68 0 0 Z " fill="#D9D8D7" transform="translate(503,973)"/>
<path d="M0 0 C0 0.33 0 0.66 0 1 C-0.99580078 1.09087891 -0.99580078 1.09087891 -2.01171875 1.18359375 C-7.48336256 1.67951753 -7.48336256 1.67951753 -12.875 2.6875 C-15.55370571 3.08142731 -16.67199201 2.2711508 -19 1 C-12.26718787 -0.700773 -6.86747109 -1.10765663 0 0 Z " fill="#FD8823" transform="translate(881,357)"/>
<path d="M0 0 C1.125 1.625 1.125 1.625 2 4 C1.05873112 9.0201007 -0.83786531 11.15222363 -5 14 C-5 10.46620115 -3.73793374 8.68901846 -1.95703125 5.71875 C-0.9155797 3.84838803 -0.33828768 2.11429802 0 0 Z " fill="#18263B" transform="translate(532,922)"/>
<path d="M0 0 C0 0.66 0 1.32 0 2 C-0.66 2 -1.32 2 -2 2 C-3.58255197 6.32564205 -4.45144652 10.428721 -5 15 C-7 13 -7 13 -7.1171875 10.9765625 C-6.46153846 4.61042184 -6.46153846 4.61042184 -4.0625 1.4375 C-2 0 -2 0 0 0 Z " fill="#F74125" transform="translate(474,777)"/>
<path d="M0 0 C3.04386724 -0.08226668 5.07175348 0.02391783 8 1 C8 1.66 8 2.32 8 3 C9.65 3 11.3 3 13 3 C13.33 3.99 13.66 4.98 14 6 C9.15311808 5.21824485 4.6233633 3.60155722 0 2 C0 1.34 0 0.68 0 0 Z " fill="#FB4019" transform="translate(840,716)"/>
<path d="M0 0 C0.66 0.33 1.32 0.66 2 1 C0.7319533 4.80414011 -0.57913212 5.09067839 -4 7 C-4.70125 7.5775 -5.4025 8.155 -6.125 8.75 C-7.053125 9.36875 -7.053125 9.36875 -8 10 C-8.99 9.67 -9.98 9.34 -11 9 C-7.67149253 5.40521193 -4.01028669 2.77635232 0 0 Z " fill="#FC6D20" transform="translate(988,708)"/>
<path d="M0 0 C-0.33 0.66 -0.66 1.32 -1 2 C-3.87109375 2.37890625 -3.87109375 2.37890625 -7.4375 2.5625 C-11.8784668 2.66007452 -11.8784668 2.66007452 -16 4 C-16.66 3.34 -17.32 2.68 -18 2 C-12.12116651 -0.61281488 -6.29268272 -0.18328202 0 0 Z " fill="#FC7F2E" transform="translate(469,290)"/>
<path d="M0 0 C1.76141726 2.64212589 3.23818698 5.2427764 4.6875 8.0625 C5.14511719 8.94035156 5.60273437 9.81820312 6.07421875 10.72265625 C6.37972656 11.47417969 6.68523438 12.22570312 7 13 C6.67 13.66 6.34 14.32 6 15 C3.00701346 12.43458297 1.49360038 9.6273152 0 6 C-0.1875 2.625 -0.1875 2.625 0 0 Z " fill="#FD5F31" transform="translate(763,658)"/>
<path d="M0 0 C-0.33 4.29 -0.66 8.58 -1 13 C-2.90318884 10.14521674 -3.4619099 8.58058692 -4.125 5.3125 C-4.29257812 4.50425781 -4.46015625 3.69601562 -4.6328125 2.86328125 C-4.75398438 2.24839844 -4.87515625 1.63351562 -5 1 C-1.125 0 -1.125 0 0 0 Z " fill="#F5E9E6" transform="translate(369,629)"/>
<path d="M0 0 C-2.48503465 2.48503465 -4.67561404 2.93619649 -8 4 C-9.34721283 4.63815344 -10.68747118 5.29325371 -12 6 C-12.66 5.34 -13.32 4.68 -14 4 C-4.80508475 -1.77966102 -4.80508475 -1.77966102 0 0 Z " fill="#FC7A28" transform="translate(451,294)"/>
<path d="M0 0 C0.33 0 0.66 0 1 0 C1.20190089 6.35987804 0.6277833 11.85221129 -1 18 C-1.33 18 -1.66 18 -2 18 C-2.20852314 11.59370576 -2.1583195 6.07027358 0 0 Z " fill="#FB370C" transform="translate(666,579)"/>
<path d="M0 0 C4.95 2.31 9.9 4.62 15 7 C14.01 7.66 13.02 8.32 12 9 C8.04 7.02 4.08 5.04 0 3 C0 2.01 0 1.02 0 0 Z " fill="#FD7B11" transform="translate(1004,371)"/>
<path d="M0 0 C7.425 0.99 7.425 0.99 15 2 C15 2.33 15 2.66 15 3 C8.565 3.495 8.565 3.495 2 4 C1.34 2.68 0.68 1.36 0 0 Z " fill="#C7C6C7" transform="translate(492,970)"/>
<path d="M0 0 C0.33 0.66 0.66 1.32 1 2 C1.99 2.33 2.98 2.66 4 3 C4.70211894 4.65204456 5.36971413 6.31923769 6 8 C6.66 8.33 7.32 8.66 8 9 C7.67 10.32 7.34 11.64 7 13 C0 4.55172414 0 4.55172414 0 0 Z " fill="#FA3414" transform="translate(693,717)"/>
<path d="M0 0 C0.66 0.4125 1.32 0.825 2 1.25 C5.5865203 3.34213684 9.27127492 5.17727335 13 7 C12.67 7.66 12.34 8.32 12 9 C7.50985376 7.50328459 3.52151236 5.16631659 0 2 C0 1.34 0 0.68 0 0 Z " fill="#FB451B" transform="translate(815,701)"/>
<path d="M0 0 C5.00918744 1.47329042 7.51807722 4.27515238 11 8 C10.67 8.99 10.34 9.98 10 11 C8.33035479 9.35718838 6.6643536 7.71067239 5 6.0625 C4.071875 5.14597656 3.14375 4.22945312 2.1875 3.28515625 C0 1 0 1 0 0 Z " fill="#DC270F" transform="translate(802,690)"/>
<path d="M0 0 C0.66 0 1.32 0 2 0 C1.85930804 2.12534659 1.71229079 4.25027529 1.5625 6.375 C1.48128906 7.55835938 1.40007812 8.74171875 1.31640625 9.9609375 C1 13 1 13 0 15 C-0.66 15 -1.32 15 -2 15 C-1.855625 14.38125 -1.71125 13.7625 -1.5625 13.125 C-0.77943337 8.77462983 -0.40153341 4.39978093 0 0 Z " fill="#FC350B" transform="translate(471,617)"/>
<path d="M0 0 C-2.22825644 2.22825644 -3.65761628 2.69239369 -6.625 3.625 C-7.44226563 3.88539063 -8.25953125 4.14578125 -9.1015625 4.4140625 C-9.72804688 4.60742188 -10.35453125 4.80078125 -11 5 C-11 4.01 -11 3.02 -11 2 C-3.57142857 -1.57142857 -3.57142857 -1.57142857 0 0 Z " fill="#FC831B" transform="translate(840,367)"/>
<path d="M0 0 C0.99 0 1.98 0 3 0 C3.433125 1.3303125 3.433125 1.3303125 3.875 2.6875 C4.92182758 5.93037045 4.92182758 5.93037045 6.1875 8.6875 C7 11 7 11 6 14 C4.02 9.38 2.04 4.76 0 0 Z " fill="#19263A" transform="translate(368,807)"/>
<path d="M0 0 C-1.1487362 3.44620861 -2.07581642 4.09169196 -4.9375 6.1875 C-5.64777344 6.71730469 -6.35804687 7.24710938 -7.08984375 7.79296875 C-9 9 -9 9 -11 9 C-9.45353161 4.36059483 -5.22034582 0 0 0 Z " fill="#FB4A1B" transform="translate(1041,761)"/>
<path d="M0 0 C0.99 0.33 1.98 0.66 3 1 C-0.40712181 4.97497544 -4.32760855 6.86793788 -9 9 C-9.33 8.34 -9.66 7.68 -10 7 C-9.01 7 -8.02 7 -7 7 C-7 6.34 -7 5.68 -7 5 C-5.824375 4.87625 -5.824375 4.87625 -4.625 4.75 C-1.85250896 4.27193661 -1.85250896 4.27193661 -0.6875 1.9375 C-0.460625 1.298125 -0.23375 0.65875 0 0 Z " fill="#FC4810" transform="translate(972,699)"/>
<path d="M0 0 C6.0546875 -0.1953125 6.0546875 -0.1953125 8 0 C8.66 0.66 9.32 1.32 10 2 C5.05 3.485 5.05 3.485 0 5 C0 3.33333333 0 1.66666667 0 0 Z " fill="#C8C8C8" transform="translate(846,972)"/>
<path d="M0 0 C0.33 0 0.66 0 1 0 C1 4.29 1 8.58 1 13 C0.67 11.68 0.34 10.36 0 9 C-0.66 9 -1.32 9 -2 9 C-1.125 1.125 -1.125 1.125 0 0 Z " fill="#F3541B" transform="translate(820,562)"/>
<path d="M0 0 C0.33 0.66 0.66 1.32 1 2 C-0.54442235 5.63393495 -1.48567857 6.78822059 -5.1875 8.3125 C-6.5796875 8.6528125 -6.5796875 8.6528125 -8 9 C-7.67 8.01 -7.34 7.02 -7 6 C-6.195625 5.690625 -5.39125 5.38125 -4.5625 5.0625 C-1.85842507 4.23391841 -1.85842507 4.23391841 -0.6875 1.875 C-0.460625 1.25625 -0.23375 0.6375 0 0 Z " fill="#FD8B1D" transform="translate(647,697)"/>
<path d="M0 0 C0.66 0.33 1.32 0.66 2 1 C-1.66666667 4.66666667 -5.33333333 8.33333333 -9 12 C-9 9 -9 9 -7.03125 6.73828125 C-5.77828125 5.53751953 -5.77828125 5.53751953 -4.5 4.3125 C-3.6646875 3.50425781 -2.829375 2.69601562 -1.96875 1.86328125 C-1.3190625 1.24839844 -0.669375 0.63351562 0 0 Z " fill="#FEE7DD" transform="translate(813,483)"/>
<path d="M0 0 C0.66 0 1.32 0 2 0 C1.91291331 1.45945288 1.80473093 2.91765868 1.6875 4.375 C1.62949219 5.18710937 1.57148438 5.99921875 1.51171875 6.8359375 C1 9 1 9 -2 11 C-1.85957123 9.35369672 -1.71250671 7.70795821 -1.5625 6.0625 C-1.48128906 5.14597656 -1.40007812 4.22945313 -1.31640625 3.28515625 C-1 1 -1 1 0 0 Z " fill="#FC6113" transform="translate(508,401)"/>
<path d="M0 0 C3.63 0 7.26 0 11 0 C8.09907498 1.93395001 7.10325263 2.30131941 3.8125 2.625 C2.554375 2.74875 1.29625 2.8725 0 3 C0 2.01 0 1.02 0 0 Z " fill="#CAC9C9" transform="translate(820,972)"/>
<path d="M0 0 C0.66 0.33 1.32 0.66 2 1 C0.35 2.98 -1.3 4.96 -3 7 C-3.33 6.34 -3.66 5.68 -4 5 C-6.02463255 4.34786708 -6.02463255 4.34786708 -8 4 C-6.71349294 3.30289269 -5.42059335 2.61757124 -4.125 1.9375 C-3.40570312 1.55464844 -2.68640625 1.17179688 -1.9453125 0.77734375 C-1.30335938 0.52082031 -0.66140625 0.26429688 0 0 Z " fill="#2E3648" transform="translate(1022,792)"/>
<path d="M0 0 C0.66 0 1.32 0 2 0 C2.25 6.625 2.25 6.625 0 10 C-0.99 9.67 -1.98 9.34 -3 9 C-2.34 8.34 -1.68 7.68 -1 7 C-0.59952556 4.67724823 -0.2602896 2.34260643 0 0 Z " fill="#FC2A0B" transform="translate(442,779)"/>
<path d="M0 0 C3.49695404 0.64758408 6.12552877 1.90241288 9 4 C9.8125 6.1875 9.8125 6.1875 10 8 C6.25718301 5.61820737 3.02272532 3.25524265 0 0 Z " fill="#FC4222" transform="translate(733,767)"/>
<path d="M0 0 C-0.33 0.99 -0.66 1.98 -1 3 C-6.41538462 4.23076923 -6.41538462 4.23076923 -9.375 3.0625 C-9.91125 2.711875 -10.4475 2.36125 -11 2 C-3.375 0 -3.375 0 0 0 Z " fill="#FD5E18" transform="translate(935,736)"/>
<path d="M0 0 C1.98 0.99 1.98 0.99 4 2 C3.67 4.31 3.34 6.62 3 9 C2.34 8.67 1.68 8.34 1 8 C0.40644386 5.35139573 0.25790731 2.70802678 0 0 Z " fill="#F76D17" transform="translate(954,597)"/>
<path d="M0 0 C0.33 0 0.66 0 1 0 C1.75540408 4.2806231 2.35628667 7.81811611 1 12 C0.01 13.32 -0.98 14.64 -2 16 C-1.34 10.72 -0.68 5.44 0 0 Z " fill="#FDCBB6" transform="translate(501,451)"/>
<path d="M0 0 C1.48206495 0.254496 2.96068615 0.52911762 4.4375 0.8125 C5.67306641 1.03873047 5.67306641 1.03873047 6.93359375 1.26953125 C7.95646484 1.63111328 7.95646484 1.63111328 9 2 C9.33 2.99 9.66 3.98 10 5 C6.7 4.01 3.4 3.02 0 2 C0 1.34 0 0.68 0 0 Z " fill="#FB4325" transform="translate(788,800)"/>
<path d="M0 0 C0.33 0.99 0.66 1.98 1 3 C-2.9813783 4.3271261 -6.85045227 4.06915913 -11 4 C-11 3.67 -11 3.34 -11 3 C-7.35206816 1.72746564 -3.8063457 0.67170806 0 0 Z " fill="#FA3409" transform="translate(922,721)"/>
<path d="M0 0 C0.66 0.33 1.32 0.66 2 1 C1.67 3.31 1.34 5.62 1 8 C0.34 8 -0.32 8 -1 8 C-1.33 8.66 -1.66 9.32 -2 10 C-1.54177532 6.53058454 -1.10868317 3.32604951 0 0 Z " fill="#F96431" transform="translate(675,534)"/>
<path d="M0 0 C0.99 0.33 1.98 0.66 3 1 C0.83328568 3.27505004 -1.39563231 5.23575092 -4 7 C-4.66 7 -5.32 7 -6 7 C-4.75686537 3.27059611 -3.23014784 2.15343189 0 0 Z " fill="#FC6015" transform="translate(831,467)"/>
<path d="M0 0 C0.99 0.33 1.98 0.66 3 1 C1.54744301 4.82946843 -0.42895561 6.12050295 -4 8 C-2.66666667 5.33333333 -1.33333333 2.66666667 0 0 Z " fill="#CCCCCD" transform="translate(536,967)"/>
<path d="M0 0 C0.66 0.99 1.32 1.98 2 3 C2.87072072 4.23220174 3.74584102 5.46130459 4.625 6.6875 C5.07101562 7.31011719 5.51703125 7.93273437 5.9765625 8.57421875 C6.31429687 9.04472656 6.65203125 9.51523437 7 10 C6.01 10 5.02 10 4 10 C2.578125 8.57421875 2.578125 8.57421875 1.25 6.6875 C0.80140625 6.07261719 0.3528125 5.45773437 -0.109375 4.82421875 C-1 3 -1 3 0 0 Z " fill="#FB2F13" transform="translate(707,736)"/>
<path d="M0 0 C0 3.69418201 -1.28179295 5.77836178 -3 9 C-3.66 8.01 -4.32 7.02 -5 6 C-2.25 1.125 -2.25 1.125 0 0 Z " fill="#FC7022" transform="translate(938,625)"/>
<path d="M0 0 C0.95465783 2.16967689 1.14401212 3.56328793 0.3984375 5.82421875 C-0.35870385 7.5684743 -1.17609198 9.28627131 -2 11 C-2.66 10.34 -3.32 9.68 -4 9 C-3.34 9 -2.68 9 -2 9 C-2.04125 8.071875 -2.0825 7.14375 -2.125 6.1875 C-2 3 -2 3 0 0 Z " fill="#E52A06" transform="translate(277,476)"/>
<path d="M0 0 C0 4.38968456 -2.12805101 5.76905739 -5 9 C-5.66 8.34 -6.32 7.68 -7 7 C-4.69 4.69 -2.38 2.38 0 0 Z " fill="#FC6A1B" transform="translate(752,417)"/>
<path d="M0 0 C2.25 -0.25 2.25 -0.25 5 0 C7.3125 2 7.3125 2 9 4 C5.625 3.6875 5.625 3.6875 2 3 C1.34 2.01 0.68 1.02 0 0 Z " fill="#FA3417" transform="translate(426,785)"/>
<path d="M0 0 C3.36720387 1.39332574 4.9859524 2.9789286 7 6 C6.67 6.66 6.34 7.32 6 8 C1.125 3.375 1.125 3.375 0 0 Z " fill="#FD9230" transform="translate(661,731)"/>
<path d="M0 0 C0.99 0.495 0.99 0.495 2 1 C2 1.99 2 2.98 2 4 C2.639375 4.12375 3.27875 4.2475 3.9375 4.375 C4.618125 4.58125 5.29875 4.7875 6 5 C6.33 5.66 6.66 6.32 7 7 C2.25 6.25 2.25 6.25 0 4 C0 2.68 0 1.36 0 0 Z " fill="#F73010" transform="translate(485,698)"/>
<path d="M0 0 C1 2 1 2 0.44140625 4.1640625 C0.15136719 4.97617187 -0.13867188 5.78828125 -0.4375 6.625 C-0.72496094 7.44226563 -1.01242187 8.25953125 -1.30859375 9.1015625 C-1.53675781 9.72804688 -1.76492188 10.35453125 -2 11 C-2.33 11 -2.66 11 -3 11 C-3.125 4.375 -3.125 4.375 -2 1 C-1.34 0.67 -0.68 0.34 0 0 Z " fill="#FB6133" transform="translate(761,559)"/>
<path d="M0 0 C2.0625 0.4375 2.0625 0.4375 4 1 C3.360625 1.61875 2.72125 2.2375 2.0625 2.875 C-0.03883584 4.82597612 -0.03883584 4.82597612 -1 7 C-1.66 7 -2.32 7 -3 7 C-1.125 1.125 -1.125 1.125 0 0 Z " fill="#FB7010" transform="translate(823,555)"/>
<path d="M0 0 C0.33 0 0.66 0 1 0 C1 2.97 1 5.94 1 9 C0.34 9 -0.32 9 -1 9 C-1.33 9.66 -1.66 10.32 -2 11 C-1.125 3.375 -1.125 3.375 0 0 Z " fill="#FA6938" transform="translate(672,544)"/>
<path d="M0 0 C-0.33 1.32 -0.66 2.64 -1 4 C-3.97 3.505 -3.97 3.505 -7 3 C-2.5 0 -2.5 0 0 0 Z " fill="#B3B4B7" transform="translate(865,967)"/>
<path d="M0 0 C0.66 0 1.32 0 2 0 C0.68775452 3.93673644 -0.91910327 6.22719294 -4 9 C-3.35494404 5.51669784 -2.01782732 2.90567134 0 0 Z " fill="#192435" transform="translate(557,943)"/>
<path d="M0 0 C0.66 0.66 1.32 1.32 2 2 C1.625 5.125 1.625 5.125 1 8 C0.34 8 -0.32 8 -1 8 C-1.125 2.25 -1.125 2.25 0 0 Z " fill="#FA3711" transform="translate(463,663)"/>
<path d="M0 0 C0.66 0.99 1.32 1.98 2 3 C0.68 5.31 -0.64 7.62 -2 10 C-2.66 10 -3.32 10 -4 10 C-2.8905928 6.51329166 -1.73662334 3.22515763 0 0 Z " fill="#FDDDCF" transform="translate(772,534)"/>
<path d="M0 0 C0.66 0.33 1.32 0.66 2 1 C2 1.66 2 2.32 2 3 C0.03852126 4.38938077 -1.96166576 5.7260411 -4 7 C-4 4 -4 4 -2 1.8125 C-1.34 1.214375 -0.68 0.61625 0 0 Z " fill="#1B293F" transform="translate(869,497)"/>
<path d="M0 0 C0.33 0.66 0.66 1.32 1 2 C-1.3125 4.5 -1.3125 4.5 -4 7 C-4.99 7 -5.98 7 -7 7 C-4.69 4.69 -2.38 2.38 0 0 Z " fill="#FEEFE6" transform="translate(802,494)"/>
<path d="M0 0 C0.99 0 1.98 0 3 0 C2.67 2.97 2.34 5.94 2 9 C-0.29013653 5.5647952 -0.17842973 4.014669 0 0 Z " fill="#FD5A13" transform="translate(500,442)"/>
<path d="M0 0 C-1 3 -1 3 -3.375 4.3125 C-4.24125 4.539375 -5.1075 4.76625 -6 5 C-6.99 4.34 -7.98 3.68 -9 3 C-2.25 0 -2.25 0 0 0 Z " fill="#FC8520" transform="translate(828,370)"/>
<path d="M0 0 C4.455 0.99 4.455 0.99 9 2 C5 4 5 4 2.25 3.125 C1.5075 2.75375 0.765 2.3825 0 2 C0 1.34 0 0.68 0 0 Z " fill="#FC8216" transform="translate(969,359)"/>
<path d="M0 0 C3.465 1.98 3.465 1.98 7 4 C6.67 4.99 6.34 5.98 6 7 C1.2 4.53846154 1.2 4.53846154 0.1875 1.8125 C0.125625 1.214375 0.06375 0.61625 0 0 Z " fill="#C6C6C6" transform="translate(808,963)"/>
<path d="M0 0 C0.66 0.33 1.32 0.66 2 1 C1.34 2.65 0.68 4.3 0 6 C-0.99 6 -1.98 6 -3 6 C-2.01 4.02 -1.02 2.04 0 0 Z " fill="#DCDEE1" transform="translate(559,943)"/>
<path d="M0 0 C3 0 3 0 4.5625 1.375 C5.036875 1.91125 5.51125 2.4475 6 3 C6.66 3.66 7.32 4.32 8 5 C7.01 5.495 7.01 5.495 6 6 C3.96166576 4.7260411 1.96147874 3.38938077 0 2 C0 1.34 0 0.68 0 0 Z " fill="#FB3618" transform="translate(746,776)"/>
<path d="M0 0 C0.66 0.33 1.32 0.66 2 1 C0.35 2.65 -1.3 4.3 -3 6 C-3.99 5.67 -4.98 5.34 -6 5 C-4.02 3.35 -2.04 1.7 0 0 Z " fill="#FB6D20" transform="translate(996,702)"/>
<path d="M0 0 C0.99 0.66 1.98 1.32 3 2 C-0.96 3.98 -0.96 3.98 -5 6 C-5 5.01 -5 4.02 -5 3 C-3.35 2.67 -1.7 2.34 0 2 C0 1.34 0 0.68 0 0 Z " fill="#FE7B1F" transform="translate(632,561)"/>
<path d="M0 0 C2.625 0.9375 2.625 0.9375 5 2 C3.1875 3.0625 3.1875 3.0625 1 4 C0.01 3.67 -0.98 3.34 -2 3 C-2 2.34 -2 1.68 -2 1 C-1.34 0.67 -0.68 0.34 0 0 Z " fill="#312C3D" transform="translate(268,492)"/>
<path d="M0 0 C0 0.66 0 1.32 0 2 C-2.90567134 4.01782732 -5.51669784 5.35494404 -9 6 C-3.15384615 0 -3.15384615 0 0 0 Z " fill="#FD7722" transform="translate(165,439)"/>
<path d="M0 0 C0.99 0.33 1.98 0.66 3 1 C1.68 2.32 0.36 3.64 -1 5 C-1.99 4.67 -2.98 4.34 -4 4 C-2.68 2.68 -1.36 1.36 0 0 Z " fill="#FB6318" transform="translate(733,436)"/>
<path d="M0 0 C-0.33 0.99 -0.66 1.98 -1 3 C-3.5625 4.1875 -3.5625 4.1875 -6 5 C-6.66 4.34 -7.32 3.68 -8 3 C-2.25 0 -2.25 0 0 0 Z " fill="#FC8326" transform="translate(813,377)"/>
</svg>
