<?xml version="1.0" encoding="UTF-8"?>
<svg version="1.1" xmlns="http://www.w3.org/2000/svg" width="1254" height="1254">
<path d="M0 0 C413.82 0 827.64 0 1254 0 C1254 413.82 1254 827.64 1254 1254 C840.18 1254 426.36 1254 0 1254 C0 840.18 0 426.36 0 0 Z " fill="#6FC208" transform="translate(0,0)"/>
<path d="M0 0 C1.03817871 0.21414551 2.07635742 0.42829102 3.14599609 0.64892578 C20.00106055 4.13123775 36.80833235 8.51438816 52.74487305 15.08105469 C55.0011396 16.00046438 57.27453108 16.85054311 59.5625 17.6875 C63 19 63 19 64 20 C64.11411284 22.38601317 64.16388329 24.74185795 64.16796875 27.12890625 C64.1721582 27.86147141 64.17634766 28.59403656 64.18066406 29.34880066 C64.19053222 31.75342034 64.19043654 34.1578632 64.1875 36.5625 C64.18709213 37.7912384 64.18709213 37.7912384 64.18667603 39.0447998 C64.1656501 52.78734344 63.55479896 66.33792398 62 80 C61.84724609 81.41104004 61.84724609 81.41104004 61.69140625 82.85058594 C60.91797645 89.91887491 59.99153079 96.95928032 59 104 C58.84724609 105.12051758 58.69449219 106.24103516 58.53710938 107.39550781 C54.05069963 139.59577535 46.13939311 176.03073935 31 205 C30.39033815 206.46851089 29.80242563 207.94651451 29.25 209.4375 C16.25999235 242.41600778 -3.8644928 272.32695348 -27 299 C-27.6703125 299.78375 -28.340625 300.5675 -29.03125 301.375 C-40.64299385 314.6455644 -53.16767876 327.34473327 -67.39111328 337.80126953 C-69.00406127 339.00302593 -70.58064844 340.24098488 -72.15234375 341.49609375 C-85.48719988 352.10613574 -99.98553155 360.97924161 -115 369 C-115.61601074 369.33064453 -116.23202148 369.66128906 -116.86669922 370.00195312 C-129.18863227 376.55194766 -142.06741455 381.79091521 -155 387 C-155.76376953 387.31243652 -156.52753906 387.62487305 -157.31445312 387.94677734 C-166.89458712 391.85138041 -176.54078587 394.56065165 -186.6015625 396.921875 C-189.1923642 397.53186122 -191.60860146 398.20944389 -194.1328125 399.078125 C-197.50494817 400.16235391 -200.73350987 400.58802626 -204.25 401 C-208.47597968 401.5162753 -212.65342896 402.07415462 -216.8125 403 C-232.14739748 406.19017952 -247.77458523 406.43538925 -263.375 406.4375 C-264.44662384 406.43989685 -265.51824768 406.4422937 -266.62234497 406.44476318 C-294.6765099 406.44528148 -324.92423714 405.03380506 -352 397 C-355.38838912 396.17635859 -358.78908053 395.40609821 -362.1875 394.625 C-369.18981934 393.00337184 -375.92097399 391.21533455 -382.625 388.6015625 C-385.58219201 387.85253689 -387.10564708 388.02372798 -390 389 C-391.89434232 391.2680699 -391.89434232 391.2680699 -393.3828125 394.23046875 C-394.28978882 395.88429565 -394.28978882 395.88429565 -395.21508789 397.5715332 C-395.85244207 398.77647659 -396.48906309 399.98180802 -397.125 401.1875 C-397.78858692 402.4174753 -398.45322935 403.64688169 -399.11889648 404.87573242 C-408.77825091 422.79744718 -417.96157344 440.87208819 -425 460 C-425.33032227 460.89734863 -425.66064453 461.79469727 -426.00097656 462.71923828 C-431.44143806 477.64255638 -435.89318905 492.41910891 -439 508 C-444.38698918 508.28498911 -448.60614993 507.41254065 -453.5625 505.4375 C-454.59588501 505.03857544 -454.59588501 505.03857544 -455.65014648 504.6315918 C-461.5520613 502.29827664 -467.19404391 499.54932881 -472.81640625 496.61328125 C-475.74478895 495.04904092 -475.74478895 495.04904092 -477.92138672 494.30224609 C-479.83984375 493.60546875 -479.83984375 493.60546875 -483 492 C-484.14765446 488.94503248 -484.11007918 487.34943526 -483.12646484 484.22705078 C-482.42577881 482.72634033 -482.42577881 482.72634033 -481.7109375 481.1953125 C-481.18790039 480.06577148 -480.66486328 478.93623047 -480.12597656 477.77246094 C-479.54332713 476.55615656 -478.95964321 475.34034728 -478.375 474.125 C-477.78086183 472.86754262 -477.18678705 471.61005529 -476.59277344 470.35253906 C-471.38451979 459.4271433 -465.54123986 448.90166156 -459.42675781 438.45849609 C-457.79272239 435.64283274 -456.22202782 432.79654568 -454.65844727 429.94140625 C-444.34667152 411.19360891 -432.52127478 393.33277825 -420 376 C-419.49452637 375.3002002 -418.98905273 374.60040039 -418.46826172 373.87939453 C-415.74300249 370.11826563 -412.99386737 366.37569642 -410.22314453 362.64794922 C-409.06931377 361.09338681 -407.92308034 359.53319378 -406.77734375 357.97265625 C-400.92657088 350.06190164 -394.74375273 342.44105383 -388.50439453 334.83642578 C-387.19454414 333.2374815 -385.8915859 331.63289606 -384.58984375 330.02734375 C-375.93950617 319.36749036 -367.0136722 308.96974963 -357.66796875 298.9140625 C-355.65119482 296.71126111 -353.69235276 294.48609379 -351.74609375 292.22265625 C-347.6647105 287.54017339 -343.2892086 283.17912592 -338.875 278.8125 C-338.08996094 278.03197266 -337.30492187 277.25144531 -336.49609375 276.44726562 C-334.33247137 274.29641336 -332.16644213 272.14801125 -330 270 C-326.86204869 266.87687365 -323.74964081 263.72992671 -320.64453125 260.57421875 C-319.03397359 258.94519442 -317.42329347 257.31629116 -315.8125 255.6875 C-314.99330078 254.85154297 -314.17410156 254.01558594 -313.33007812 253.15429688 C-312.54697266 252.36474609 -311.76386719 251.57519531 -310.95703125 250.76171875 C-310.24522705 250.03944092 -309.53342285 249.31716309 -308.80004883 248.57299805 C-307 247 -307 247 -305 247 C-305 246.34 -305 245.68 -305 245 C-303.7421875 243.6953125 -303.7421875 243.6953125 -301.875 242.125 C-301.14410156 241.50367188 -300.41320312 240.88234375 -299.66015625 240.2421875 C-298.78230469 239.50226563 -297.90445313 238.76234375 -297 238 C-295.93518932 237.08711264 -294.87145175 236.1729726 -293.80859375 235.2578125 C-290.81136638 232.6775055 -287.80688053 230.10584571 -284.79931641 227.53759766 C-283.6391774 226.54620614 -282.47992905 225.55377096 -281.32177734 224.56005859 C-250.02006247 197.70444948 -215.13214048 170.12003852 -178 152 C-190.32144955 155.49202372 -202.2413062 159.94593683 -214 165 C-215.60276135 165.67081962 -217.20563605 166.34136846 -218.80859375 167.01171875 C-261.50502348 185.04021211 -302.30289348 208.25777104 -338.28710938 237.60644531 C-340.1876522 239.15266801 -342.10111321 240.68205013 -344.015625 242.2109375 C-351.08754346 247.87957262 -357.98052507 253.65370571 -364.6328125 259.8125 C-366.68310095 261.707156 -368.76190274 263.55124801 -370.875 265.375 C-380.01644505 273.35533409 -388.78086177 281.68492577 -397.375 290.25 C-398.12378418 290.99419189 -398.87256836 291.73838379 -399.64404297 292.50512695 C-403.74056409 296.61305518 -407.66366505 300.81340804 -411.44970703 305.20898438 C-413.49223162 307.56866317 -415.6217593 309.84264532 -417.75 312.125 C-422.45775642 317.28720048 -426.76308713 322.68899242 -431.04296875 328.20703125 C-434.35306631 332.47063622 -437.73103182 336.67799679 -441.125 340.875 C-441.69387939 341.58358154 -442.26275879 342.29216309 -442.84887695 343.0222168 C-444.20913819 344.70075295 -445.60137137 346.35329657 -447 348 C-447.33 348 -447.66 348 -448 348 C-449.13600088 309.12352552 -442.54036566 267.46103579 -428.76977539 231.03955078 C-428.01562475 229.04139839 -427.27370656 227.0391208 -426.53515625 225.03515625 C-426.04427083 223.7109375 -425.55338542 222.38671875 -425.0625 221.0625 C-424.82337891 220.41087891 -424.58425781 219.75925781 -424.33789062 219.08789062 C-422.43069417 213.96009857 -420.26555421 208.9786571 -418 204 C-417.6397876 203.19731689 -417.2795752 202.39463379 -416.90844727 201.56762695 C-404.16609982 173.37440061 -388.0173973 146.63922211 -368 123 C-366.66220053 121.31603842 -365.3288529 119.62853045 -364 117.9375 C-352.33581338 103.39130618 -339.06208101 89.34389484 -324.3515625 77.85546875 C-322.07002379 76.05525133 -319.94714883 74.15825258 -317.8125 72.1875 C-274.96623984 33.82338408 -217.83166602 9.40797567 -162 -2 C-161.05366699 -2.19577637 -160.10733398 -2.39155273 -159.13232422 -2.59326172 C-106.66936257 -13.21573583 -52.14518637 -11.11839213 0 0 Z " fill="#FDFDFC" transform="translate(907,455)"/>
<path d="M0 0 C1.08871147 -0.0062162 1.08871147 -0.0062162 2.19941711 -0.01255798 C4.55226734 -0.02221627 6.90494551 -0.02221564 9.2578125 -0.01953125 C10.46432968 -0.01962189 10.46432968 -0.01962189 11.69522095 -0.01971436 C25.34522434 -0.00511851 38.8102027 0.66048058 52.3828125 2.16796875 C54.02339386 2.33766198 55.6640175 2.50694717 57.3046875 2.67578125 C63.54794775 3.34154426 69.74838389 4.04127645 75.84594727 5.58740234 C79.06467946 6.32401529 82.30565332 6.86275174 85.55859375 7.4296875 C93.77963385 8.92719069 101.75728473 11.05302822 109.77441406 13.39208984 C112.01115594 14.04394313 114.251288 14.68291628 116.4921875 15.3203125 C128.2827144 18.70254196 140.03169925 22.20875886 150.94140625 27.90625 C157.20069469 31.14105027 163.61880216 34.15704676 170.3828125 36.16796875 C170.3828125 36.82796875 170.3828125 37.48796875 170.3828125 38.16796875 C171.63964844 38.55082031 171.63964844 38.55082031 172.921875 38.94140625 C200.3844278 48.67418456 225.80039995 69.98142596 247.3828125 89.16796875 C248.36507813 90.03808594 249.34734375 90.90820312 250.359375 91.8046875 C262.54283129 102.78950186 274.2927878 114.21044147 284.3828125 127.16796875 C285.33186241 128.33039452 286.28388209 129.49039966 287.23828125 130.6484375 C292.50342648 137.0668042 297.51119453 143.58023509 302.1328125 150.48046875 C302.77851196 151.44098145 302.77851196 151.44098145 303.43725586 152.42089844 C306.3828125 156.90901743 306.3828125 156.90901743 306.3828125 159.16796875 C304.92488281 159.80798828 304.92488281 159.80798828 303.4375 160.4609375 C272.7367957 174.25373327 244.60272495 193.99670843 219.3828125 216.16796875 C218.47015625 216.96847656 217.5575 217.76898437 216.6171875 218.59375 C209.89056103 224.6345612 203.47428135 230.97594919 197.0703125 237.35546875 C196.22202881 238.19907959 195.37374512 239.04269043 194.49975586 239.91186523 C190.04725333 244.37576309 185.78041348 248.89636104 181.76879883 253.76293945 C181.31142334 254.22659912 180.85404785 254.69025879 180.3828125 255.16796875 C179.7228125 255.16796875 179.0628125 255.16796875 178.3828125 255.16796875 C177.92132812 254.33136719 177.45984375 253.49476563 176.984375 252.6328125 C165.74718142 232.48437208 152.46595416 213.7357773 136.3828125 197.16796875 C135.52816406 196.27335938 134.67351562 195.37875 133.79296875 194.45703125 C128.02275579 188.53185206 121.91642688 183.2336412 115.3828125 178.16796875 C114.85655273 177.75466309 114.33029297 177.34135742 113.78808594 176.91552734 C102.65471732 168.22391631 90.62805436 161.17076363 78.3828125 154.16796875 C81.61647989 157.97991727 84.88473977 161.7231761 88.3203125 165.35546875 C116.36160559 196.46525351 137.04568797 234.4679915 152.3828125 273.16796875 C152.71925781 273.99425781 153.05570313 274.82054687 153.40234375 275.671875 C155.07335126 279.87820424 155.91729213 283.69897325 156.3828125 288.16796875 C155.7228125 288.16796875 155.0628125 288.16796875 154.3828125 288.16796875 C154.113479 288.88694336 153.84414551 289.60591797 153.56665039 290.34667969 C152.38238892 293.16897822 151.00665034 295.68032553 149.44140625 298.30859375 C148.86237549 299.28755615 148.28334473 300.26651855 147.68676758 301.27514648 C147.0708374 302.31227783 146.45490723 303.34940918 145.8203125 304.41796875 C119.44873702 349.34794081 100.30193016 398.9452429 95.3828125 451.16796875 C86.05126837 447.92147526 78.08137365 440.12302003 70.9296875 433.50390625 C68.92644847 431.66657966 66.89625732 429.89543043 64.83203125 428.12890625 C59.68205135 423.63365621 54.8506538 418.8218649 50.01977539 413.99023438 C48.45672516 412.42936548 46.88583885 410.87668987 45.31445312 409.32421875 C38.88476023 402.92990809 33.02525352 396.27925202 27.3828125 389.16796875 C26.5195929 388.14027703 25.65120365 387.116858 24.7734375 386.1015625 C10.99819255 370.03882249 -0.02196794 352.44040008 -10.6171875 334.16796875 C-11.11943848 333.31074219 -11.62168945 332.45351563 -12.13916016 331.5703125 C-17.92790031 321.6640163 -22.79219863 311.67860306 -26.91943359 300.97167969 C-27.85005799 298.56599283 -28.82923068 296.18076652 -29.8046875 293.79296875 C-31.47077363 289.61363406 -32.98679561 285.38671562 -34.49682617 281.14892578 C-35.5735143 278.28417048 -36.78289927 275.51780959 -38.02734375 272.72265625 C-40.8953979 265.86227493 -42.5606159 258.92290991 -44.1171875 251.66796875 C-44.4147742 250.31009975 -44.71254796 248.95227173 -45.01049805 247.59448242 C-46.96795961 238.58618671 -48.76812981 229.54811591 -50.4296875 220.48046875 C-50.62433594 219.43375 -50.81898438 218.38703125 -51.01953125 217.30859375 C-54.07869633 199.923057 -54.99465363 182.60538565 -54.9296875 164.98046875 C-54.92852936 163.99994537 -54.92737122 163.019422 -54.92617798 162.00918579 C-54.89088549 146.85823049 -54.19509672 132.12666699 -51.6171875 117.16796875 C-51.40941619 115.83735493 -51.20232522 114.5066346 -50.99609375 113.17578125 C-50.31029332 109.1461713 -49.49639551 105.15863001 -48.6171875 101.16796875 C-48.36388672 100.01441895 -48.11058594 98.86086914 -47.84960938 97.67236328 C-47.10715279 94.31106227 -46.35032222 90.95319973 -45.58508301 87.59701538 C-45.27601907 86.24023436 -44.9689331 84.88300108 -44.66394043 83.52529907 C-44.2294065 81.59964798 -43.78283437 79.67672581 -43.3359375 77.75390625 C-43.07748047 76.63032715 -42.81902344 75.50674805 -42.55273438 74.34912109 C-41.57988524 71.04112939 -40.21101665 68.2174606 -38.6171875 65.16796875 C-38.06517942 62.97781922 -38.06517942 62.97781922 -37.8046875 60.79296875 C-36.04334525 51.00937861 -31.8206876 41.53979406 -27.66796875 32.55078125 C-26.55720799 30.03195574 -25.55437985 27.47893173 -24.55859375 24.9128418 C-22.23994429 18.96980085 -19.81053345 13.07664589 -17.1171875 7.29296875 C-16.59125 6.14054687 -16.0653125 4.988125 -15.5234375 3.80078125 C-13.6171875 1.16796875 -13.6171875 1.16796875 -10.97412109 0.51391602 C-7.30701827 0.1360044 -3.6823232 0.00651382 0 0 Z " fill="#FDFDFC" transform="translate(347.6171875,303.83203125)"/>
<path d="M0 0 C-3.02063887 1.75033581 -6.04154673 3.50020688 -9.0625 5.25 C-9.91005859 5.74113281 -10.75761719 6.23226562 -11.63085938 6.73828125 C-16.41206406 9.50731871 -21.19960483 12.26436096 -26 15 C-25.95875 14.21625 -25.9175 13.4325 -25.875 12.625 C-25.71271266 9.83883881 -25.71271266 9.83883881 -28 8 C-27.09121094 7.74476563 -27.09121094 7.74476563 -26.1640625 7.484375 C-19.02644831 5.41995736 -12.16059035 2.89004329 -5.39453125 -0.18359375 C-3 -1 -3 -1 0 0 Z " fill="#79C721" transform="translate(730,607)"/>
<path d="M0 0 C1.79398267 0.95399078 3.58511655 1.91334026 5.375 2.875 C6.37273437 3.40867187 7.37046875 3.94234375 8.3984375 4.4921875 C11 6 11 6 13 8 C11.35 8.66 9.7 9.32 8 10 C6.66070495 8.71451591 5.32871357 7.42141845 4 6.125 C2.88625 5.04605469 2.88625 5.04605469 1.75 3.9453125 C0 2 0 2 0 0 Z " fill="#7CC42E" transform="translate(425,457)"/>
<path d="M0 0 C0.66 0.66 1.32 1.32 2 2 C1.55269531 2.36351562 1.10539063 2.72703125 0.64453125 3.1015625 C-2.43475332 5.66216161 -5.22900689 8.13950733 -7.6875 11.3125 C-10.07234147 14.08407252 -10.62626229 14.39627851 -14 15 C-9.59156563 9.70987876 -4.92440206 4.81191572 0 0 Z " fill="#75C417" transform="translate(552,533)"/>
<path d="M0 0 C-1.95519384 1.17192047 -3.9142539 2.3373929 -5.875 3.5 C-6.96554687 4.1496875 -8.05609375 4.799375 -9.1796875 5.46875 C-12 7 -12 7 -14 7 C-14 6.34 -14 5.68 -14 5 C-14.99 4.67 -15.98 4.34 -17 4 C-14.73291675 3.1344953 -12.46224921 2.28240685 -10.1875 1.4375 C-9.54490234 1.19064453 -8.90230469 0.94378906 -8.24023438 0.68945312 C-3.33984375 -1.11328125 -3.33984375 -1.11328125 0 0 Z " fill="#92DC50" transform="translate(730,607)"/>
<path d="M0 0 C0.66 0.33 1.32 0.66 2 1 C-1.3 4.63 -4.6 8.26 -8 12 C-8.99 11.67 -9.98 11.34 -11 11 C-7.37 7.37 -3.74 3.74 0 0 Z " fill="#84CB2E" transform="translate(527,727)"/>
<path d="M0 0 C0.66 0.33 1.32 0.66 2 1 C-0.97 4.3 -3.94 7.6 -7 11 C-7.99 10.67 -8.98 10.34 -10 10 C-6.7 6.7 -3.4 3.4 0 0 Z " fill="#7BC81F" transform="translate(563,522)"/>
<path d="M0 0 C-1.38188453 3.21043882 -2.92421903 5.04936365 -5.625 7.25 C-6.57246094 8.03117188 -6.57246094 8.03117188 -7.5390625 8.828125 C-8.02117188 9.21484375 -8.50328125 9.6015625 -9 10 C-9 7 -9 7 -7.5390625 5.17578125 C-6.90742187 4.56089844 -6.27578125 3.94601562 -5.625 3.3125 C-4.68527344 2.37857422 -4.68527344 2.37857422 -3.7265625 1.42578125 C-2 0 -2 0 0 0 Z " fill="#81CB28" transform="translate(577,724)"/>
<path d="M0 0 C0.66 0.33 1.32 0.66 2 1 C-0.31 3.64 -2.62 6.28 -5 9 C-5.99 8.67 -6.98 8.34 -8 8 C-5.36 5.36 -2.72 2.72 0 0 Z " fill="#7CC81D" transform="translate(538,717)"/>
<path d="M0 0 C0.66 0.33 1.32 0.66 2 1 C0.59447701 2.03612271 -0.82491694 3.05344925 -2.25 4.0625 C-3.43335938 4.91521484 -3.43335938 4.91521484 -4.640625 5.78515625 C-7 7 -7 7 -9.296875 6.68359375 C-9.85890625 6.45800781 -10.4209375 6.23242188 -11 6 C-9.21385682 4.96953278 -7.42089982 3.95086764 -5.625 2.9375 C-4.62726562 2.36902344 -3.62953125 1.80054688 -2.6015625 1.21484375 C-1.74304688 0.81394531 -0.88453125 0.41304688 0 0 Z " fill="#DFF3C9" transform="translate(655,484)"/>
<path d="M0 0 C0.33 0.99 0.66 1.98 1 3 C-1.45906075 6.87774964 -3.61740632 8.66087415 -8 10 C-7.04367001 8.70684939 -6.08486149 7.41553147 -5.125 6.125 C-4.59132813 5.40570312 -4.05765625 4.68640625 -3.5078125 3.9453125 C-2 2 -2 2 0 0 Z " fill="#83CC2A" transform="translate(537,548)"/>
<path d="M0 0 C0.66 0 1.32 0 2 0 C0.72278474 4.99275057 -1.17330957 7.57611908 -5 11 C-3.78065514 6.96678237 -2.44045073 3.45730521 0 0 Z " fill="#E4F4D5" transform="translate(503,631)"/>
<path d="M0 0 C0.66 0.33 1.32 0.66 2 1 C-1.32307692 5.8 -1.32307692 5.8 -4.75 6.8125 C-5.4925 6.874375 -6.235 6.93625 -7 7 C-4.66666667 4.66666667 -2.33333333 2.33333333 0 0 Z " fill="#7CCA1F" transform="translate(564,695)"/>
<path d="M0 0 C0.33 0 0.66 0 1 0 C1.25 5.625 1.25 5.625 -1 9 C-1.66 9 -2.32 9 -3 9 C-2.01 6.03 -1.02 3.06 0 0 Z " fill="#92CC46" transform="translate(487,900)"/>
<path d="M0 0 C0.33 0.99 0.66 1.98 1 3 C-0.40445835 5.2636564 -2.1967913 7.0208685 -4 9 C-4.66 8.67 -5.32 8.34 -6 8 C-4.02 5.36 -2.04 2.72 0 0 Z " fill="#E1F5D3" transform="translate(485,834)"/>
<path d="M0 0 C0.66 0.99 1.32 1.98 2 3 C1.3125 5.625 1.3125 5.625 0 8 C-0.99 8.33 -1.98 8.66 -3 9 C-2.01 6.03 -1.02 3.06 0 0 Z " fill="#E4F3D6" transform="translate(494,648)"/>
<path d="M0 0 C0.66 0 1.32 0 2 0 C0.55746343 3.36591866 -1.33264727 5.51047079 -4 8 C-4 4.06830895 -2.60580385 2.83572772 0 0 Z " fill="#F0F8E8" transform="translate(543,573)"/>
<path d="M0 0 C0.95904856 3.83619425 0.91892116 5.32431536 0 9 C-0.99 9.33 -1.98 9.66 -3 10 C-2.01 6.7 -1.02 3.4 0 0 Z " fill="#D2EEBC" transform="translate(315,348)"/>
</svg>
