<?xml version="1.0" encoding="UTF-8"?>
<svg version="1.1" xmlns="http://www.w3.org/2000/svg" width="1254" height="1254">
<path d="M0 0 C413.82 0 827.64 0 1254 0 C1254 413.82 1254 827.64 1254 1254 C840.18 1254 426.36 1254 0 1254 C0 840.18 0 426.36 0 0 Z " fill="#6BBF05" transform="translate(0,0)"/>
<path d="M0 0 C0.90492188 -0.00979385 1.80984375 -0.01958771 2.7421875 -0.02967834 C40.39162526 -0.35342966 40.39162526 -0.35342966 57.5 4.23828125 C58.39557617 4.47385742 59.29115234 4.70943359 60.21386719 4.95214844 C69.32080291 7.40093783 77.93730841 10.28239607 86.5 14.23828125 C87.97904548 14.89610589 89.45821265 15.55365696 90.9375 16.2109375 C122.97779739 30.75222285 149.07708005 52.9768355 168.5 82.23828125 C169.49966797 80.73201172 169.49966797 80.73201172 170.51953125 79.1953125 C195.42291196 42.07526509 229.97489072 16.99379388 273.25 5.42578125 C273.93223633 5.24313721 274.61447266 5.06049316 275.31738281 4.87231445 C277.70227432 4.27332488 280.09438932 3.74831749 282.5 3.23828125 C283.69197998 2.97861572 284.88395996 2.7189502 286.11206055 2.45141602 C296.77635225 0.26760257 307.18647872 -0.25885493 318.05541992 -0.20776367 C320.8000824 -0.19925724 323.5426505 -0.22814687 326.28710938 -0.25976562 C363.25907405 -0.4060297 397.80208494 14.00260557 425.5 38.23828125 C426.23863281 38.88434326 426.23863281 38.88434326 426.9921875 39.54345703 C447.64616703 57.72708432 464.37763366 80.13632791 473.5 106.23828125 C473.98035081 107.52315636 474.46361492 108.80694473 474.94921875 110.08984375 C481.77408853 128.2751525 487.11615295 147.63987787 486.5 167.23828125 C487.5415625 167.32464844 488.583125 167.41101563 489.65625 167.5 C529.45555792 171.22034972 565.87067336 194.23435354 591.28027344 224.34814453 C594.58875269 228.49239654 597.59249847 232.80658288 600.5 237.23828125 C601.18835937 238.2540625 601.87671875 239.26984375 602.5859375 240.31640625 C628.98032112 281.00340076 636.18928074 330.33710068 626.375 377.42578125 C615.1299252 428.26805671 586.68919606 472.80477698 554.4140625 512.859375 C553.15128078 514.42883229 551.89588184 516.00426229 550.6484375 517.5859375 C541.88584282 528.67440608 532.60131848 539.30665767 522.97460938 549.65039062 C521.40945978 551.33577688 519.85300816 553.02894382 518.296875 554.72265625 C511.87019455 561.69263266 505.316872 568.5221793 498.625 575.23828125 C497.93583496 575.93203857 497.24666992 576.6257959 496.53662109 577.34057617 C492.61333132 581.25206303 488.5832268 584.97625665 484.38867188 588.59472656 C481.58894715 591.03109508 478.89405501 593.57457792 476.1875 596.11328125 C471.3935086 600.57332481 466.47489004 604.80137678 461.3671875 608.90234375 C458.08420967 611.57703141 454.88746861 614.34047473 451.6875 617.11328125 C445.4132106 622.52589132 438.97073195 627.68112392 432.41748047 632.75048828 C430.36710005 634.3413997 428.32563094 635.94328126 426.28515625 637.546875 C400.93562982 657.43456531 374.60943196 675.88637527 347.50732422 693.30224609 C345.56722121 694.55123269 343.63103216 695.80633015 341.69970703 697.06884766 C339.2269967 698.68415611 336.74147848 700.27712968 334.25 701.86328125 C333.54190186 702.33096924 332.83380371 702.79865723 332.10424805 703.28051758 C329.11882017 705.14645567 327.16574571 706.28655047 323.59741211 706.02783203 C320.35708115 705.20185029 318.1489197 704.1008701 315.33203125 702.31640625 C314.36587891 701.70958008 313.39972656 701.10275391 312.40429688 700.47753906 C311.38400391 699.82108398 310.36371094 699.16462891 309.3125 698.48828125 C308.24966797 697.8137793 307.18683594 697.13927734 306.09179688 696.44433594 C297.14474696 690.73248352 288.35959868 684.80137997 279.65234375 678.73193359 C277.58936637 677.30029843 275.5162415 675.88518339 273.4375 674.4765625 C263.71617162 667.88011818 254.23669431 660.98252497 244.81640625 653.96386719 C242.58861851 652.30429681 240.35707293 650.6498937 238.125 648.99609375 C231.42670624 644.01932409 224.82028031 638.97287586 218.3984375 633.640625 C215.51600897 631.25155014 212.61022072 628.89397612 209.69873047 626.54052734 C202.43655413 620.66683398 195.25011274 614.71490158 188.15039062 608.64599609 C186.38061802 607.13645337 184.60460722 605.63445152 182.828125 604.1328125 C177.43597614 599.5615157 172.09375269 595.02869435 167.18579102 589.9309082 C161.74076639 584.46380383 155.714607 579.76365386 149.4375 575.30078125 C148.6751001 574.75429932 147.9127002 574.20781738 147.12719727 573.64477539 C138.82279892 567.71377459 130.43245001 561.90514903 122.046875 556.08984375 C73.92042903 522.70438654 73.92042903 522.70438654 54.9375 507.21484375 C52.47919243 505.22140845 49.9893231 503.27441889 47.49145508 501.33105469 C40.56885587 495.93837895 33.8195458 490.37485046 27.16064453 484.66064453 C25.44376033 483.19011125 23.72051318 481.72731202 21.99609375 480.265625 C15.25192659 474.53595238 8.64803941 468.68527865 2.15234375 462.67578125 C0.02509466 460.72084247 -2.12272252 458.8094608 -4.3125 456.92578125 C-17.19742431 445.70776329 -29.27745155 433.62017917 -41.33691406 421.53173828 C-44.02033856 418.84290167 -46.70913792 416.15952169 -49.3984375 413.4765625 C-51.13052943 411.7438105 -52.86231154 410.01074872 -54.59375 408.27734375 C-55.38551636 407.48760162 -56.17728271 406.6978595 -56.99304199 405.88418579 C-61.16420318 401.69553768 -65.18076039 397.42908967 -69.03237915 392.9440155 C-71.09020137 390.55232296 -73.23420824 388.24317031 -75.375 385.92578125 C-79.46437787 381.44165197 -83.34619021 376.83560887 -87.15625 372.11328125 C-89.25016189 369.54474933 -91.38170686 367.01796518 -93.53662109 364.50097656 C-99.44075539 357.59875753 -105.0472664 350.5016698 -110.5 343.23828125 C-111.28697266 342.19824951 -111.28697266 342.19824951 -112.08984375 341.13720703 C-125.29586731 323.65752515 -137.2702807 305.62326355 -147.5 286.23828125 C-148.03101318 285.24199707 -148.03101318 285.24199707 -148.57275391 284.22558594 C-158.32471765 265.81995563 -166.24740441 246.16174451 -170.1875 225.67578125 C-170.50557617 224.10666992 -170.50557617 224.10666992 -170.83007812 222.50585938 C-175.87551589 196.86484916 -175.36305914 168.66117072 -169.5 143.23828125 C-169.32871582 142.45855957 -169.15743164 141.67883789 -168.98095703 140.87548828 C-158.51432814 94.37389499 -128.05986369 54.07035847 -88.5 28.23828125 C-83.2949201 25.00139712 -77.93649754 22.06572243 -72.5 19.23828125 C-71.82066406 18.88491699 -71.14132812 18.53155273 -70.44140625 18.16748047 C-53.32436409 9.40268124 -35.43154238 4.37170949 -16.5 1.23828125 C-15.45038086 1.06248535 -14.40076172 0.88668945 -13.31933594 0.70556641 C-8.85942859 0.15990911 -4.4886249 0.03986134 0 0 Z " fill="#FDFDFC" transform="translate(425.5,276.76171875)"/>
<path d="M0 0 C22.73407067 -0.44038689 22.73407067 -0.44038689 33.17675781 2.05761719 C34.80544316 2.4153951 36.43437464 2.77205343 38.06347656 3.12792969 C65.7512336 9.30187208 90.10063632 21.49798404 110.94628906 40.98339844 C112.98836101 42.88241806 115.09127364 44.65599373 117.23925781 46.43261719 C122.19912797 50.76377141 126.16507906 55.85938556 130.17675781 61.05761719 C130.84707031 61.92386719 131.51738281 62.79011719 132.20800781 63.68261719 C147.04511571 83.46542771 159.692439 107.12876289 162.17675781 132.05761719 C161.55969971 132.09725586 160.9426416 132.13689453 160.30688477 132.17773438 C109.04269058 135.60766475 67.96352117 154.90524773 33.17675781 193.05761719 C28.51846364 198.47782961 24.14194904 204.10983035 20.17675781 210.05761719 C19.51675781 210.05761719 18.85675781 210.05761719 18.17675781 210.05761719 C17.28693952 208.74068611 16.40565874 207.41764732 15.55175781 206.07714844 C-3.53196891 178.04792482 -30.96526858 157.3668913 -61.82324219 144.05761719 C-62.44392578 143.78675293 -63.06460937 143.51588867 -63.70410156 143.23681641 C-75.07562799 138.3612008 -86.65162933 136.05004687 -98.82324219 134.05761719 C-99.74758057 133.88254639 -100.67191895 133.70747559 -101.62426758 133.52709961 C-105.29758675 132.98800224 -108.9191224 132.84121265 -112.62402344 132.78417969 C-113.36924759 132.77160629 -114.11447174 132.7590329 -114.88227844 132.74607849 C-160.04921639 132.13310886 -200.00811571 145.22058688 -232.82324219 177.05761719 C-233.68433594 177.91871094 -234.54542969 178.77980469 -235.43261719 179.66699219 C-236.83515678 181.06953178 -238.25421975 182.4564722 -239.70996094 183.80371094 C-269.49919678 211.78362226 -283.80706219 257.22502423 -285.08105469 297.01855469 C-285.41709613 313.11525171 -284.38107979 328.3525609 -280.82324219 344.05761719 C-280.58718262 345.10900879 -280.35112305 346.16040039 -280.10791016 347.24365234 C-276.60617158 362.36818279 -271.6615497 376.3831034 -265.05664062 390.42041016 C-263.89603025 392.90198443 -262.77928452 395.39832037 -261.67480469 397.90527344 C-253.22719445 416.79419297 -241.8928435 434.29340091 -229.82324219 451.05761719 C-229.25541016 451.84716797 -228.68757812 452.63671875 -228.10253906 453.45019531 C-226.2674043 455.99190603 -224.42284921 458.52642115 -222.57324219 461.05761719 C-222.00669922 461.83524414 -221.44015625 462.61287109 -220.85644531 463.4140625 C-217.08587071 468.52435701 -213.07811452 473.34353976 -208.82324219 478.05761719 C-209.15324219 478.71761719 -209.48324219 479.37761719 -209.82324219 480.05761719 C-211.03947266 479.02314453 -211.03947266 479.02314453 -212.28027344 477.96777344 C-217.57207487 473.47437003 -222.87105788 468.99621908 -228.26074219 464.62011719 C-237.5948949 457.01400732 -246.70185497 449.14329104 -255.61621094 441.04980469 C-257.5595022 439.29568337 -259.52683667 437.57789025 -261.51074219 435.87011719 C-265.5485578 432.3514493 -269.4673611 428.70797661 -273.38574219 425.05761719 C-274.0111792 424.4760083 -274.63661621 423.89439941 -275.28100586 423.29516602 C-279.00293571 419.81572628 -282.64110503 416.2705316 -286.21166992 412.63574219 C-287.85508313 411.02643708 -289.56271311 409.53706851 -291.32324219 408.05761719 C-300.14487323 400.44442876 -308.51276292 391.98399958 -316.02246094 383.07714844 C-318.5095187 380.2879752 -321.16578416 377.68353508 -323.82324219 375.05761719 C-328.37321902 370.55066943 -332.67466008 365.93928208 -336.82324219 361.05761719 C-337.76199365 359.98091547 -338.70224284 358.9055187 -339.64355469 357.83105469 C-352.30141308 343.36325907 -364.51318134 328.60801023 -375.82324219 313.05761719 C-376.3153418 312.38263184 -376.80744141 311.70764648 -377.31445312 311.01220703 C-389.37189304 294.4008674 -400.08549356 277.11963676 -409.82324219 259.05761719 C-410.58746737 257.65261611 -411.35178833 256.24766712 -412.11621094 254.84277344 C-417.96445899 244.02481414 -422.25069689 233.23452737 -426.01171875 221.57080078 C-426.547787 219.91066645 -427.08871544 218.25209274 -427.63476562 216.59521484 C-439.88459311 179.25922549 -439.54656296 139.01047848 -422.82324219 103.05761719 C-422.54109863 102.45095215 -422.25895508 101.84428711 -421.96826172 101.21923828 C-413.4609363 83.11921666 -402.50374601 67.67281382 -388.82324219 53.05761719 C-388.36884766 52.56390625 -387.91445313 52.07019531 -387.44628906 51.56152344 C-374.90023453 38.01921424 -360.08483192 27.68582539 -343.82324219 19.05761719 C-342.78941406 18.4659375 -341.75558594 17.87425781 -340.69042969 17.26464844 C-326.08391288 9.29265794 -308.30938722 3.91491223 -291.63574219 3.88964844 C-290.85618164 3.88632004 -290.07662109 3.88299164 -289.2734375 3.87956238 C-287.62614528 3.87451734 -285.97884291 3.8721533 -284.33154297 3.87231445 C-281.85854345 3.87014811 -279.38600552 3.85202267 -276.91308594 3.83300781 C-261.87106245 3.77859808 -248.2999567 5.94750897 -233.82324219 10.05761719 C-232.66953125 10.34378906 -231.51582031 10.62996094 -230.32714844 10.92480469 C-188.79098899 21.57993753 -158.53728268 54.64470635 -135.82324219 89.05761719 C-134.94925781 87.49527344 -134.94925781 87.49527344 -134.05761719 85.90136719 C-125.29920802 70.48939528 -115.10770118 56.82268881 -102.82324219 44.05761719 C-102.19546875 43.36667969 -101.56769531 42.67574219 -100.92089844 41.96386719 C-90.76978832 31.12416973 -77.8593477 22.96304776 -64.82324219 16.05761719 C-63.79070312 15.48140625 -63.79070312 15.48140625 -62.73730469 14.89355469 C-43.50513254 4.56361069 -21.59440015 0.44070204 0 0 Z " fill="#6BBF05" transform="translate(730.8232421875,310.9423828125)"/>
<path d="M0 0 C4.82443525 4.52290805 9.26793732 9.53618615 13 15 C13 15.99 13 16.98 13 18 C10.89441606 16.2308289 8.79049842 14.4597399 6.6875 12.6875 C6.09259766 12.18798828 5.49769531 11.68847656 4.88476562 11.17382812 C4.30791016 10.68720703 3.73105469 10.20058594 3.13671875 9.69921875 C2.60780029 9.25408936 2.07888184 8.80895996 1.53393555 8.3503418 C-0.04528627 6.96013395 -1.52812987 5.50273504 -3 4 C-2.01 3.67 -1.02 3.34 0 3 C0 2.01 0 1.02 0 0 Z " fill="#84C92C" transform="translate(508,773)"/>
<path d="M0 0 C0.66 0.33 1.32 0.66 2 1 C-2.38211382 6.63414634 -2.38211382 6.63414634 -5.375 8.40625 C-8.31177976 10.18929485 -10.42268041 12.22634252 -12.8125 14.6875 C-13.99779297 15.89986328 -13.99779297 15.89986328 -15.20703125 17.13671875 C-16.09455078 18.05904297 -16.09455078 18.05904297 -17 19 C-17.66 18.67 -18.32 18.34 -19 18 C-6.51480638 5.33029613 -6.51480638 5.33029613 0 0 Z " fill="#EBF7DF" transform="translate(319,318)"/>
<path d="M0 0 C0.33 0 0.66 0 1 0 C2.13016601 5.02296004 1.77916092 8.97874074 1 14 C0.34 14 -0.32 14 -1 14 C-1 15.65 -1 17.3 -1 19 C-1.33 19 -1.66 19 -2 19 C-2.21432579 12.35590042 -1.51233701 6.46794133 0 0 Z " fill="#8ECC45" transform="translate(298,443)"/>
<path d="M0 0 C0.66 0.66 1.32 1.32 2 2 C-0.85276137 4.93200474 -3.65079784 7.64315404 -7 10 C-7.66 9.67 -8.32 9.34 -9 9 C-6.03 6.03 -3.06 3.06 0 0 Z " fill="#F5FAEE" transform="translate(775,492)"/>
<path d="M0 0 C4.1424367 1.38081223 5.32203099 3.59825558 8 7 C7.67 7.66 7.34 8.32 7 9 C5.82460004 8.07347299 4.65989423 7.13336613 3.5 6.1875 C2.52546875 5.40439453 2.52546875 5.40439453 1.53125 4.60546875 C0 3 0 3 0 0 Z " fill="#91D250" transform="translate(514,782)"/>
<path d="M0 0 C4 4.625 4 4.625 4 8 C3.34 8 2.68 8 2 8 C0.3125 5.6875 0.3125 5.6875 -1 3 C-0.67 2.01 -0.34 1.02 0 0 Z " fill="#7BC91D" transform="translate(496,756)"/>
<path d="M0 0 C2.475 0.495 2.475 0.495 5 1 C4.34 2.65 3.68 4.3 3 6 C1.5 4.6875 1.5 4.6875 0 3 C0 2.01 0 1.02 0 0 Z " fill="#F2F9EC" transform="translate(592,395)"/>
<path d="M0 0 C0.66 0.99 1.32 1.98 2 3 C-0.97 5.475 -0.97 5.475 -4 8 C-4.66 7.67 -5.32 7.34 -6 7 C-4.02 4.69 -2.04 2.38 0 0 Z " fill="#ECF7E0" transform="translate(299,337)"/>
<path d="M0 0 C2.64 1.65 5.28 3.3 8 5 C7.34 5.66 6.68 6.32 6 7 C3.69 5.35 1.38 3.7 -1 2 C-0.67 1.34 -0.34 0.68 0 0 Z " fill="#75C615" transform="translate(499,798)"/>
<path d="M0 0 C0.66 0.33 1.32 0.66 2 1 C0.38405168 3.04119788 -1.2856382 5.04072937 -3 7 C-3.66 7 -4.32 7 -5 7 C-3.70700306 4.11562221 -2.34058637 2.12780579 0 0 Z " fill="#F1F9E8" transform="translate(319,318)"/>
<path d="M0 0 C0 0.33 0 0.66 0 1 C-5.16569441 2.79217969 -8.51053913 3.12029814 -14 2 C-14 1.67 -14 1.34 -14 1 C-9.27685687 0.22887459 -4.78478822 -0.09764874 0 0 Z " fill="#D6EEB6" transform="translate(732,277)"/>
</svg>
