<?xml version="1.0" encoding="UTF-8"?>
<svg version="1.1" xmlns="http://www.w3.org/2000/svg" width="836" height="768">
<path d="M0 0 C275.88 0 551.76 0 836 0 C836 253.44 836 506.88 836 768 C560.12 768 284.24 768 0 768 C0 514.56 0 261.12 0 0 Z " fill="#FCFCFB" transform="translate(0,0)"/>
<path d="M0 0 C3.84160776 0.01308659 7.68320271 0.00856209 11.52482653 0.00629318 C18.16313888 0.00472833 24.80136204 0.0140544 31.43965197 0.03100669 C41.03721516 0.05550003 50.63473569 0.06321247 60.23232675 0.06697067 C75.80782753 0.07351904 91.3832809 0.09343613 106.95875597 0.1218785 C122.07919628 0.14946104 137.19962367 0.17067403 152.3200841 0.18340194 C153.25379713 0.18419011 154.18751017 0.18497828 155.14951754 0.18579034 C159.83418568 0.18970576 164.51885391 0.19349681 169.20352221 0.19722605 C208.00119841 0.22827162 246.7988217 0.28106314 285.59645128 0.34819686 C284.58244173 9.12622332 284.58244173 9.12622332 282.53395128 13.34819686 C282.0866466 14.2750328 281.63934191 15.20186874 281.17848253 16.15679061 C280.65641222 17.20995468 280.13434191 18.26311874 279.59645128 19.34819686 C278.9743694 20.65111095 278.35333357 21.95452484 277.73317003 23.25835311 C267.12119 45.32353858 251.52011836 61.71650155 230.59645128 74.34819686 C229.384088 75.12550155 229.384088 75.12550155 228.14723253 75.91850936 C224.9375824 77.71748631 221.60297324 79.01940832 218.15895128 80.28569686 C217.45520372 80.54512069 216.75145617 80.80454452 216.02638292 81.07182968 C197.36675623 87.84189542 180.01810819 89.64754853 160.36988878 89.63530624 C158.37905651 89.64134384 156.38822676 89.64827143 154.39740038 89.65601242 C150.14148772 89.67079832 145.88562115 89.67962432 141.62968493 89.68372238 C134.89712464 89.69048153 128.1646626 89.71228497 121.43214464 89.73625839 C105.93849696 89.7891781 90.44481916 89.82277922 74.95111895 89.85601699 C60.7202817 89.88672497 46.48948722 89.921541 32.25870562 89.97232759 C25.56781197 89.99564202 18.87698782 90.00940793 12.18605757 90.01582229 C8.02844232 90.02176235 3.87088363 90.03585856 -0.28670263 90.05216682 C-2.21238613 90.05803889 -4.13808346 90.06051585 -6.06377554 90.05932701 C-8.69465006 90.05816584 -11.32520757 90.06919997 -13.95603895 90.08318222 C-14.71527977 90.07988324 -15.47452059 90.07658427 -16.2567687 90.07318532 C-20.95999392 90.11436301 -24.94311471 90.88519228 -29.40354872 92.34819686 C-30.29300184 92.5944078 -31.18245497 92.84061874 -32.09886122 93.09429061 C-36.64828703 94.38890214 -40.41036179 95.75802156 -44.40354872 98.34819686 C-45.95042372 98.93600936 -45.95042372 98.93600936 -47.52854872 99.53569686 C-57.22203561 103.63272618 -64.55081666 110.77536246 -70.40354872 119.34819686 C-70.94753309 120.13323593 -71.49151747 120.91827499 -72.05198622 121.72710311 C-81.6502792 137.29387778 -82.64699245 158.11972018 -85.40354872 175.34819686 C-14.78354872 175.34819686 55.83645128 175.34819686 128.59645128 175.34819686 C128.59645128 177.98819686 128.59645128 180.62819686 128.59645128 183.34819686 C127.93645128 183.34819686 127.27645128 183.34819686 126.59645128 183.34819686 C126.49848253 183.90507186 126.40051378 184.46194686 126.29957628 185.03569686 C125.3401035 189.93231659 123.9922059 194.04658295 121.59645128 198.42632186 C120.5240698 200.3961467 120.5240698 200.3961467 119.67067003 202.78569686 C117.72315182 207.43141305 114.55827943 211.30218213 111.59645128 215.34819686 C111.05891222 216.10616561 110.52137316 216.86413436 109.96754503 217.64507186 C98.30171238 233.49936009 80.88972541 243.91880725 62.53395128 250.41069686 C61.88490831 250.65368515 61.23586535 250.89667343 60.56715441 251.14702499 C47.08467909 255.94673528 33.90612048 256.78876926 19.75660753 256.78960311 C17.97790513 256.80141774 16.19921248 256.81479166 14.4205327 256.82962692 C9.77603432 256.86548399 5.13162239 256.88590929 0.48701525 256.90117538 C-6.93900086 256.92617718 -14.36482596 256.96640023 -21.7906661 257.02307594 C-24.35161186 257.03910684 -26.91236855 257.04315423 -29.47335768 257.0460881 C-42.42390666 257.1037805 -56.01511265 257.22953646 -68.15354872 262.22319686 C-68.81097059 262.46682968 -69.46839247 262.71046249 -70.14573622 262.96147811 C-74.1044081 264.50808474 -76.49100719 266.32551721 -79.40354872 269.34819686 C-80.18987684 269.65757186 -80.97620497 269.96694686 -81.78636122 270.28569686 C-85.2055727 271.67379466 -87.61682025 273.86519663 -90.27854872 276.34819686 C-90.80448622 276.83586532 -91.33042372 277.32353378 -91.87229872 277.82598007 C-101.12313296 286.63677309 -106.84355864 297.06922195 -110.02854872 309.34819686 C-110.23222059 310.10358749 -110.43589247 310.85897811 -110.64573622 311.63725936 C-111.61279689 315.24513956 -112.53481309 318.86272505 -113.43089247 322.48882186 C-114.32891175 326.05204699 -115.29217746 329.57668533 -116.34104872 333.09819686 C-116.65944715 334.18616561 -116.97784559 335.27413436 -117.30589247 336.39507186 C-118.36012699 339.23137541 -119.53992317 341.00620754 -121.40354872 343.34819686 C-122.73999913 346.71837617 -123.96954216 350.10627042 -125.16526747 353.52788436 C-127.56204201 359.96989377 -130.78381611 365.80059594 -134.23020887 371.72710311 C-135.84282478 374.50997829 -137.32130538 377.13667172 -138.48948622 380.14116561 C-139.48875244 382.55392379 -140.54821263 383.54650905 -142.40354872 385.34819686 C-143.7484026 387.38974788 -145.05591728 389.45603351 -146.34104872 391.53569686 C-150.73792948 398.53300269 -155.62107502 405.08901693 -160.61839247 411.66460311 C-164.01459958 416.13497002 -167.2273106 420.71975979 -170.40354872 425.34819686 C-171.21030797 426.51393009 -172.01764044 427.67926674 -172.82542372 428.84429061 C-175.02068085 432.01050239 -177.21282328 435.17884804 -179.40354872 438.34819686 C-181.23948622 437.79350936 -181.23948622 437.79350936 -183.40354872 436.34819686 C-184.47171464 433.93449597 -185.28625624 431.73331749 -186.02854872 429.22319686 C-186.23222059 428.58382186 -186.43589247 427.94444686 -186.64573622 427.28569686 C-187.67977057 423.98474105 -188.58005102 420.67317424 -189.38401747 417.30913436 C-190.32997793 413.44740093 -191.65083594 409.80723799 -193.09104872 406.09819686 C-195.53426394 399.71203179 -197.88151163 393.29730979 -200.15354872 386.84819686 C-200.44705214 386.02416366 -200.74055555 385.20013046 -201.04295301 384.35112655 C-202.78122917 379.39495518 -204.20700328 374.46284206 -205.40354872 369.34819686 C-206.06354872 369.34819686 -206.72354872 369.34819686 -207.40354872 369.34819686 C-211.35989916 358.87550452 -207.80756705 347.79389408 -205.56535292 337.21929061 C-202.79903635 324.11924562 -200.52148707 311.07853305 -198.82444715 297.79326522 C-197.76848386 289.64459771 -196.40291556 281.60197405 -194.84104872 273.53569686 C-193.00490036 264.04284429 -191.60686431 254.58632237 -190.49485731 244.98369491 C-189.5240277 236.80768019 -188.04919334 228.79192975 -186.45042372 220.71929061 C-185.28145545 214.79835608 -184.23074298 208.85983768 -183.21604872 202.91069686 C-183.04919569 201.96452499 -182.88234266 201.01835311 -182.71043348 200.04350936 C-181.83401066 194.84535323 -181.25707991 189.72455263 -180.93479872 184.46147811 C-180.4887507 177.51234457 -179.39474719 170.8069659 -178.09104872 163.97319686 C-177.63660677 161.51901327 -177.1835051 159.06458117 -176.73167372 156.60991561 C-176.50673231 155.39352401 -176.2817909 154.17713241 -176.05003309 152.92388046 C-175.07938765 147.55527277 -174.21228144 142.17114093 -173.34104872 136.78569686 C-166.62924825 96.08327778 -166.62924825 96.08327778 -158.61448622 85.35210311 C-157.44359769 83.41447146 -156.77526432 81.66992428 -156.03245497 79.53960311 C-154.5708484 75.51509717 -152.51067137 72.15228967 -149.96604872 68.72319686 C-149.53574354 68.13272567 -149.10543837 67.54225448 -148.66209364 66.93389022 C-143.60302655 60.10148603 -138.08342026 53.66826645 -132.40354872 47.34819686 C-131.50056044 46.33499374 -131.50056044 46.33499374 -130.57932997 45.30132186 C-119.25610164 33.32208786 -103.42050217 21.79505455 -87.82542372 16.27397811 C-84.89340259 15.15318939 -82.18611815 13.73701163 -79.40354872 12.28569686 C-70.49157308 7.80154225 -61.86240909 5.95113709 -52.05760145 4.52519882 C-51.30293592 4.41522567 -50.5482704 4.30525253 -49.77073622 4.19194686 C-48.97040464 4.07744092 -48.17007307 3.96293497 -47.34548903 3.84495914 C-44.38754526 3.38302356 -44.38754526 3.38302356 -41.45661879 2.62152278 C-27.79396905 -0.54399089 -13.9425277 -0.05968623 0 0 Z " fill="#5CC50D" transform="translate(487.4035487174988,69.65180313587189)"/>
<path d="M0 0 C0.91038025 -0.00189835 1.8207605 -0.00379669 2.75872803 -0.00575256 C5.73580848 -0.00942443 8.71263889 0.00119454 11.68969727 0.01245117 C13.77897615 0.01364539 15.86825558 0.01409562 17.95753479 0.01383972 C22.32410065 0.01539854 26.69058384 0.02364087 31.05712891 0.03710938 C36.62940666 0.05408749 42.20159371 0.05792354 47.77389431 0.05716419 C52.08495434 0.05743731 56.3959949 0.06294142 60.70704842 0.07016563 C62.7605684 0.0733279 64.81409056 0.07531394 66.86761284 0.07605934 C94.67674892 0.09720849 94.67674892 0.09720849 100.31860352 3.24291992 C100.31860352 3.90291992 100.31860352 4.56291992 100.31860352 5.24291992 C101.52516602 5.49041992 101.52516602 5.49041992 102.75610352 5.74291992 C112.86560841 9.99955356 118.54793787 18.77803342 122.72485352 28.52416992 C124.44420634 32.8825294 126.02451697 37.2124592 127.31079102 41.71948242 C128.30277857 45.18759394 129.45795184 48.54221579 130.69360352 51.93041992 C132.37018139 56.5870279 134.03362743 61.24600605 135.63110352 65.93041992 C135.95723633 66.88303711 136.28336914 67.8356543 136.61938477 68.81713867 C137.31860352 71.24291992 137.31860352 71.24291992 137.31860352 74.24291992 C137.97860352 74.24291992 138.63860352 74.24291992 139.31860352 74.24291992 C139.64860352 76.55291992 139.97860352 78.86291992 140.31860352 81.24291992 C140.97860352 81.24291992 141.63860352 81.24291992 142.31860352 81.24291992 C142.56610352 82.48041992 142.81360352 83.71791992 143.06860352 84.99291992 C144.55714783 91.6649767 146.2301596 98.80797927 149.80297852 104.68432617 C151.58023179 107.6845862 152.56796708 110.60948857 153.63110352 113.93041992 C154.06074813 115.25074638 154.49043775 116.57105819 154.92016602 117.89135742 C155.38667779 119.3417606 155.8528042 120.79228777 156.31860352 122.24291992 C157.37285087 125.51649649 158.43710226 128.78663558 159.50610352 132.05541992 C159.75593994 132.83812256 160.00577637 133.6208252 160.26318359 134.42724609 C161.61970555 138.71962895 161.61970555 138.71962895 164.31860352 142.24291992 C164.84594727 144.19604492 164.84594727 144.19604492 165.25610352 146.49291992 C166.07271985 150.4866842 167.36229797 153.64331772 169.31860352 157.24291992 C171.87950536 162.87111663 173.84223598 168.61724142 175.75610352 174.49291992 C177.82893432 180.7841338 179.92283676 187.05355117 182.23266602 193.26245117 C183.14760303 195.77359124 184.03245785 198.29094677 184.90454102 200.81713867 C187.59748797 208.61262947 190.30761067 216.36308165 193.44360352 223.99291992 C195.81395198 229.7864046 197.75040887 235.61193051 199.56079102 241.59521484 C201.50773995 247.98996231 203.92180748 254.08549177 206.62329102 260.19213867 C209.05981508 265.87812338 211.16447998 271.69579333 213.31860352 277.49291992 C213.75688477 278.65694336 214.19516602 279.8209668 214.64672852 281.02026367 C221.31860352 298.96599974 221.31860352 298.96599974 221.31860352 305.24291992 C221.97860352 305.24291992 222.63860352 305.24291992 223.31860352 305.24291992 C223.86387695 306.72791992 223.86387695 306.72791992 224.42016602 308.24291992 C228.97851692 320.34945836 234.244033 330.21454751 246.35645652 336.26004356 C253.09621441 339.2273458 258.86120545 339.81427841 266.17071533 339.75758362 C267.9021828 339.76800191 267.9021828 339.76800191 269.66862941 339.77863067 C273.51602091 339.796849 277.36279221 339.78665007 281.21020508 339.77636719 C283.97712205 339.78123702 286.74400922 339.79203821 289.51091003 339.80247498 C296.23467797 339.82406381 302.95827631 339.82400094 309.68206748 339.81584943 C315.15130976 339.80953579 320.62050279 339.81069895 326.08974457 339.81712151 C327.25978988 339.81847399 327.25978988 339.81847399 328.45347248 339.81985379 C330.03840792 339.82170511 331.62334334 339.82356767 333.20827875 339.82544135 C348.05589066 339.84200286 362.90340743 339.83331561 377.75101361 339.81645577 C391.31100917 339.80176953 404.87078293 339.81637493 418.43074992 339.84522594 C432.3777713 339.87467775 446.32469053 339.88557481 460.27174163 339.87604374 C461.8518942 339.87502126 463.43204679 339.87402665 465.0121994 339.87306023 C466.17818444 339.87234564 466.17818444 339.87234564 467.36772473 339.87161662 C472.82305257 339.86945961 478.27828293 339.87921873 483.73358917 339.89383125 C490.39274617 339.91142047 497.05162089 339.9111439 503.71076712 339.8884796 C507.1031541 339.87739465 510.49463974 339.87678307 513.88706779 339.8927803 C533.26685755 340.40508092 533.26685755 340.40508092 551.31860352 334.24291992 C551.64860352 333.58291992 551.97860352 332.92291992 552.31860352 332.24291992 C553.79240526 331.4621559 555.29889719 330.74257108 556.81860352 330.05541992 C571.11421371 323.02876406 582.48426239 310.1610148 592.24438477 297.82104492 C594.34967945 295.20429446 596.55368507 292.72224545 598.81860352 290.24291992 C602.84586626 285.82706165 606.63213929 281.25025439 610.37329102 276.59057617 C613.49961132 272.81764745 613.49961132 272.81764745 615.31860352 271.24291992 C615.97860352 271.24291992 616.63860352 271.24291992 617.31860352 271.24291992 C616.98860352 273.88291992 616.65860352 276.52291992 616.31860352 279.24291992 C615.65860352 279.24291992 614.99860352 279.24291992 614.31860352 279.24291992 C614.18067383 280.25354492 614.04274414 281.26416992 613.90063477 282.30541992 C612.39811337 292.47012839 610.09127027 302.33543118 607.36938477 312.23510742 C605.41658391 319.50417349 603.90276211 326.88669413 602.31860352 334.24291992 C601.65860352 334.24291992 600.99860352 334.24291992 600.31860352 334.24291992 C600.23610352 335.43916992 600.15360352 336.63541992 600.06860352 337.86791992 C599.02959719 347.00251718 596.72652602 356.0615606 591.40454102 363.64135742 C590.16285976 365.33622725 590.16285976 365.33622725 589.31860352 367.93041992 C587.9176766 371.17006343 585.92843728 372.85519967 583.31860352 375.24291992 C582.71274414 375.84104492 582.10688477 376.43916992 581.48266602 377.05541992 C566.87814064 390.95415039 548.32942179 397.57308192 528.40606689 397.50361633 C527.23304732 397.50744188 526.06002775 397.51126743 524.85146213 397.5152089 C521.61723685 397.5237051 518.38315785 397.52331932 515.14892888 397.51902831 C511.65170823 397.51655206 508.15451378 397.52558682 504.65730286 397.5330658 C497.81143892 397.54579386 490.96561424 397.54760852 484.11974046 397.54526553 C478.54709499 397.54347864 472.97446138 397.54523998 467.40181732 397.54948997 C466.60702051 397.55008516 465.81222371 397.55068035 464.99334215 397.55129358 C463.37830331 397.55250543 461.76326447 397.55371956 460.14822564 397.55493595 C445.00952791 397.56580603 429.87085248 397.56365262 414.73215351 397.55755111 C400.92468399 397.55239299 387.11728526 397.56360907 373.30982974 397.58264933 C359.09953081 397.6020931 344.88926524 397.61027165 330.67895293 397.60652608 C322.71443464 397.60462255 314.74997642 397.60701724 306.78546906 397.62124062 C299.99809556 397.63323971 293.21081904 397.63446563 286.423444 397.62245045 C282.96966243 397.61661836 279.51605742 397.61530134 276.06228828 397.62745285 C263.82199481 397.66188584 251.71015963 397.61512843 239.56732178 395.92668152 C238.33994919 395.75620866 238.33994919 395.75620866 237.08778119 395.5822919 C225.77572544 393.77458889 214.11797877 388.62525292 205.31860352 381.24291992 C204.98860352 380.58291992 204.65860352 379.92291992 204.31860352 379.24291992 C202.66347061 378.22394354 200.9950224 377.2264836 199.31860352 376.24291992 C191.63554151 370.55072435 186.19100081 363.37510076 181.31860352 355.24291992 C181.31860352 354.58291992 181.31860352 353.92291992 181.31860352 353.24291992 C180.65860352 353.24291992 179.99860352 353.24291992 179.31860352 353.24291992 C178.88547852 352.21166992 178.45235352 351.18041992 178.00610352 350.11791992 C177.01451458 347.77926677 175.97302181 345.60704958 174.75610352 343.36791992 C173.26545066 340.12737023 172.61481469 337.21034265 171.91235352 333.73901367 C170.22726495 326.65499004 167.24413115 319.89184636 164.31860352 313.24291992 C163.65193685 311.57625326 162.98527018 309.90958659 162.31860352 308.24291992 C161.82360352 307.12916992 161.32860352 306.01541992 160.81860352 304.86791992 C158.19030887 298.51620785 156.74674851 291.94304696 155.31860352 285.24291992 C154.65860352 285.24291992 153.99860352 285.24291992 153.31860352 285.24291992 C152.31155992 282.14099352 151.31419546 279.03603895 150.31860352 275.93041992 C150.03243164 275.0493457 149.74625977 274.16827148 149.45141602 273.26049805 C149.18071289 272.41293945 148.91000977 271.56538086 148.63110352 270.69213867 C148.25405273 269.52171021 148.25405273 269.52171021 147.86938477 268.32763672 C147.31860352 266.24291992 147.31860352 266.24291992 147.31860352 263.24291992 C146.65860352 263.24291992 145.99860352 263.24291992 145.31860352 263.24291992 C143.30724303 257.3845884 141.36802463 251.58587723 139.93579102 245.55541992 C139.0698652 242.31093837 138.04845301 239.12144077 137.00610352 235.93041992 C136.6180957 234.73803711 136.23008789 233.5456543 135.83032227 232.31713867 C134.7158697 229.1363053 133.35695136 226.12479453 131.92407227 223.07495117 C129.0931603 216.94770701 127.00481257 210.66269365 124.94360352 204.24291992 C122.05248291 195.39598239 119.05321546 186.61977753 115.77661133 177.90869141 C113.52832187 171.90166599 111.47475653 165.84254714 109.53466797 159.72900391 C108.19790482 155.59633822 106.65784787 151.60867734 104.95922852 147.61010742 C101.55434982 139.55961071 98.75223824 131.30580217 95.89282227 123.04956055 C95.2644043 121.26001953 95.2644043 121.26001953 94.62329102 119.43432617 C94.25187988 118.36384033 93.88046875 117.29335449 93.49780273 116.19042969 C92.34710982 113.31417387 90.92521706 110.88287262 89.31860352 108.24291992 C88.68613214 106.68730326 88.10071795 105.1116923 87.56469727 103.52026367 C87.26756836 102.65208008 86.97043945 101.78389648 86.66430664 100.8894043 C86.36459961 99.99543945 86.06489258 99.10147461 85.75610352 98.18041992 C85.15310539 96.39703056 84.54772114 94.61444583 83.93969727 92.83276367 C83.67600342 92.04764404 83.41230957 91.26252441 83.140625 90.45361328 C82.3365562 88.29120077 81.35725295 86.30012465 80.31860352 84.24291992 C79.94035898 82.77459564 79.60752825 81.29389822 79.31860352 79.80541992 C78.61322504 76.42180756 77.63187465 73.44401832 76.31860352 70.24291992 C75.8003813 68.27124633 75.33012433 66.29394067 74.88110352 64.30541992 C74.21515335 61.86360263 73.2718974 59.58562999 72.31860352 57.24291992 C71.24420517 57.23705368 70.16980682 57.23118744 69.06285095 57.22514343 C58.92546169 57.16786925 48.78828597 57.09508295 38.65111446 57.00720501 C33.43978873 56.9625246 28.22854075 56.92326323 23.01708984 56.89648438 C17.98542438 56.87042833 12.95405852 56.83000935 7.92257881 56.77973366 C6.00534359 56.76308056 4.08805656 56.7515566 2.1707592 56.74530602 C-0.5199417 56.73564804 -3.20987882 56.70756852 -5.90039062 56.67529297 C-7.08291161 56.6774456 -7.08291161 56.6774456 -8.2893219 56.67964172 C-15.15173982 56.56362806 -20.84623467 54.67540039 -26.13061523 50.03198242 C-32.11855904 43.12397672 -35.99918386 35.4789669 -35.82983398 26.31713867 C-35.29211793 18.8032643 -31.93531029 12.52255637 -26.70483398 7.25073242 C-18.82117055 0.53708265 -10.06803505 -0.06775039 0 0 Z " fill="#0E941D" transform="translate(66.681396484375,203.757080078125)"/>
<path d="M0 0 C2.15457332 1.88336829 3.39908269 3.57280278 5 6 C5 6.66 5 7.32 5 8 C5.66 8 6.32 8 7 8 C8.49821059 11.37097383 9 13.20442119 9 17 C9.66 17 10.32 17 11 17 C11.21914063 16.26265625 11.43828125 15.5253125 11.6640625 14.765625 C13.33687603 11.30260751 15.24314315 9.94985655 18.375 7.75 C19.80972656 6.72132813 19.80972656 6.72132813 21.2734375 5.671875 C27.0110331 2.15369317 33.42376066 2.25738828 40 3 C45.03851694 4.86060448 49.63507963 7.75727431 53 12 C53 12.66 53 13.32 53 14 C53.66 14 54.32 14 55 14 C55.33 15.65 55.66 17.3 56 19 C56.66 19 57.32 19 58 19 C60.27488803 28.38391314 58.65045386 38.52808623 54 47 C54.56332031 46.84015625 55.12664062 46.6803125 55.70703125 46.515625 C62.95735239 44.8852291 70.34598187 45.70580168 77 49 C80.16003068 51.50169095 81.69371803 52.93979317 82.8125 56.8125 C82.9053125 57.8953125 82.9053125 57.8953125 83 59 C83.66 59 84.32 59 85 59 C86.71599213 66.07846752 86.47367856 71.51580001 83 78 C78.33400983 85.17607729 71.6553861 88.95655139 63.375 90.8125 C62.199375 90.9053125 62.199375 90.9053125 61 91 C61.33 91.66 61.66 92.32 62 93 C62.39231417 97.70777 62.47336758 100.07079697 60.3125 104.3125 C57.40051676 107.69669674 55.22647168 109.77751322 50.62768555 110.23706055 C47.80838383 110.29522976 45.00638214 110.26133237 42.1875 110.1875 C41.20845703 110.17396484 40.22941406 110.16042969 39.22070312 110.14648438 C36.81323375 110.11125312 34.40690436 110.06199265 32 110 C32 110.66 32 111.32 32 112 C30.515 112.495 30.515 112.495 29 113 C28.67 113.66 28.34 114.32 28 115 C28.598125 115.103125 29.19625 115.20625 29.8125 115.3125 C32.40356448 116.12683455 33.33337224 116.86728143 35 119 C35.36328125 121.375 35.36328125 121.375 35.3125 124 C35.30863281 124.86625 35.30476563 125.7325 35.30078125 126.625 C35 129 35 129 33 132 C30.94140625 132.6171875 30.94140625 132.6171875 28.5625 132.875 C27.78003906 132.97554687 26.99757813 133.07609375 26.19140625 133.1796875 C24 133 24 133 22.2578125 131.80078125 C20.69829986 129.56806285 20.50827237 128.01415867 20.3125 125.3125 C20.24675781 124.50425781 20.18101562 123.69601562 20.11328125 122.86328125 C20.07589844 122.24839844 20.03851562 121.63351562 20 121 C13.45504337 120.77813706 9.5540573 121.29729514 4 125 C3.67 125.99 3.34 126.98 3 128 C3.556875 128.0825 4.11375 128.165 4.6875 128.25 C8.96840948 129.63840308 11.54684877 132.32027316 14 136 C15.7235374 136.74795019 17.4489601 137.49253796 19.19140625 138.1953125 C24.45096264 140.5354175 26.83456082 143.80537904 29 149 C29.46875 152.69140625 29.46875 152.69140625 29.5 156.5625 C29.54640625 158.48255859 29.54640625 158.48255859 29.59375 160.44140625 C28.8470822 164.91650073 27.43107635 166.12154799 24 169 C23.17242188 169.80179688 22.34484375 170.60359375 21.4921875 171.4296875 C12.00182783 180.29679967 3.4109658 186.12090875 -9.2265625 189.2734375 C-11.8901256 189.72184922 -11.8901256 189.72184922 -13 191 C-15.89518589 191.09795178 -18.76652079 191.12992093 -21.66212463 191.12025452 C-23.04160519 191.12153615 -23.04160519 191.12153615 -24.44895405 191.12284368 C-27.55526277 191.1245013 -30.66151845 191.11897252 -33.76782227 191.11352539 C-35.98469034 191.11324355 -38.2015585 191.11340118 -40.41842651 191.1139679 C-46.45743901 191.11425601 -52.49643183 191.1083571 -58.53543973 191.10139394 C-64.83888733 191.09516264 -71.14233532 191.09455678 -77.44578552 191.09336853 C-88.03246395 191.09060883 -98.61913589 191.08435332 -109.20581055 191.07543945 C-120.11206018 191.06626603 -131.01830784 191.05918486 -141.92456055 191.05493164 C-142.59637183 191.05466892 -143.26818311 191.05440619 -143.96035231 191.05413551 C-147.33049769 191.05283051 -150.70064309 191.05156679 -154.0707885 191.05032361 C-182.04719739 191.03985771 -210.02359819 191.02225698 -238 191 C-239.13551389 188.94377433 -240.26491944 186.88456499 -241.39111328 184.82324219 C-242.02058868 183.67668152 -242.65006409 182.53012085 -243.2986145 181.34881592 C-245.4671404 177.08053336 -246.78326237 172.88988491 -247.875 168.25 C-248.72944873 163.22924077 -248.72944873 163.22924077 -251 159 C-251.89928264 145.59722986 -250.10457028 135.84201822 -242 125 C-241.360625 124.0925 -240.72125 123.185 -240.0625 122.25 C-233.99976662 115.63610904 -227.01471852 112.67286073 -218.13671875 111.6796875 C-208.15707099 111.29926891 -198.64437489 113.71875399 -189 116 C-189 113.03 -189 110.06 -189 107 C-189.68964844 107.05800781 -190.37929688 107.11601562 -191.08984375 107.17578125 C-199.39573586 107.57455522 -204.55902173 105.75281015 -210.890625 100.40234375 C-212.5625 98.8125 -212.5625 98.8125 -215 96 C-215 95.34 -215 94.68 -215 94 C-215.66 94 -216.32 94 -217 94 C-220.26889853 87.14115041 -221.58179863 81.59570439 -221 74 C-210.12718933 74.70147166 -201.48687165 77.81922317 -194 86 C-193.484375 86.969375 -192.96875 87.93875 -192.4375 88.9375 C-191.963125 89.618125 -191.48875 90.29875 -191 91 C-187.37400578 91.41725678 -187.37400578 91.41725678 -184 91 C-183.34 92.32 -182.68 93.64 -182 95 C-181.5978125 94.14728516 -181.5978125 94.14728516 -181.1875 93.27734375 C-177.71438553 86.43393729 -173.45364678 80.81718645 -166.17578125 77.84765625 C-162.77834716 76.94083805 -159.63207206 76.5897187 -156.125 76.375 C-154.39636719 76.26285156 -154.39636719 76.26285156 -152.6328125 76.1484375 C-151.76398438 76.09945312 -150.89515625 76.05046875 -150 76 C-149.64347414 85.64045933 -151.04808731 91.97783461 -157.34765625 99.421875 C-163.46800098 105.37095824 -169.08151697 108.31425188 -177.6875 108.375 C-179.46021701 108.28039503 -181.23259151 108.16656206 -183 108 C-183 110.64 -183 113.28 -183 116 C-182.0821875 115.79503906 -181.164375 115.59007812 -180.21875 115.37890625 C-156.55811609 110.18450238 -156.55811609 110.18450238 -146 113 C-146.33 112.01 -146.66 111.02 -147 110 C-147.77695084 102.34512369 -146.80989137 95.75769054 -143 89 C-142.34 88.67 -141.68 88.34 -141 88 C-140.608125 87.278125 -140.21625 86.55625 -139.8125 85.8125 C-136.91601354 81.31795205 -133.11017579 77.70339193 -128 76 C-127.65317916 72.77448308 -127.65317916 72.77448308 -130.4375 70.46875 C-134.26713701 67.46617075 -138.32029514 66.54250851 -143 65.5 C-150.42370481 63.84620437 -154.93226194 61.91988753 -159.7578125 55.75390625 C-160.20898438 55.03074219 -160.66015625 54.30757813 -161.125 53.5625 C-162.8024078 50.89189022 -164.46147359 48.39279791 -166.375 45.875 C-168.35753484 42.36743836 -168.31731524 39.96644047 -168 36 C-162.60444437 34.44577672 -156.30821817 33.84713609 -150.9375 35.71875 C-146.91997567 37.94273668 -143.43698131 40.98216276 -140 44 C-140.61875 43.13375 -141.2375 42.2675 -141.875 41.375 C-145.4134012 35.75518634 -146.24968685 31.23340304 -146.125 24.625 C-146.10695313 23.37976563 -146.08890625 22.13453125 -146.0703125 20.8515625 C-146.04710937 19.91054688 -146.02390625 18.96953125 -146 18 C-145.34 18 -144.68 18 -144 18 C-143.93941406 17.36191406 -143.87882812 16.72382813 -143.81640625 16.06640625 C-143.69072266 14.82697266 -143.69072266 14.82697266 -143.5625 13.5625 C-143.44068359 12.32693359 -143.44068359 12.32693359 -143.31640625 11.06640625 C-143 9 -143 9 -142 8 C-138.05361638 7.7290037 -134.43068606 8.08459121 -131.05859375 10.2421875 C-125.86919337 15.09491538 -120.79628005 22.14688265 -119.62890625 29.26171875 C-119.625 31.1875 -119.625 31.1875 -120 34 C-119.34 34 -118.68 34 -118 34 C-117.979375 33.175 -117.95875 32.35 -117.9375 31.5 C-116.46319247 25.99591855 -112.91952886 21.91748717 -108.15625 18.7890625 C-104.49690881 17.03964062 -101.83766222 16.72077926 -98 18 C-95.40030055 27.91135413 -94.24404217 38.48808434 -99 48 C-99.99 48.33 -100.98 48.66 -102 49 C-102.28875 49.5775 -102.5775 50.155 -102.875 50.75 C-104 53 -104 53 -106.4375 55.3125 C-111.07362228 60.17477458 -112.33076049 65.44145278 -113 72 C-111.906875 71.938125 -110.81375 71.87625 -109.6875 71.8125 C-104.20359577 71.78296371 -99.19957538 73.39424878 -94 75 C-94 75.66 -94 76.32 -94 77 C-93.46375 77.226875 -92.9275 77.45375 -92.375 77.6875 C-85.03802662 81.74214318 -80.71158444 87.09729439 -78.3125 95.125 C-76.8173749 101.03236927 -76.30733798 106.92742537 -76 113 C-75.34 113 -74.68 113 -74 113 C-73.9071875 112.40445313 -73.814375 111.80890625 -73.71875 111.1953125 C-72.36726105 107.06739516 -68.63405299 105.08712503 -65 103 C-56.9916749 100.05249145 -49.01247564 100.32917479 -41 103 C-40.8453125 101.2675 -40.8453125 101.2675 -40.6875 99.5 C-40.32860126 96.47575035 -39.68855427 94.08016251 -38.4375 91.3125 C-36.23537097 85.70205067 -35.94505498 79.90916754 -37 74 C-38.90878188 70.77797618 -41.26810877 68.52129576 -44 66 C-48.048057 60.94929925 -48.62222438 56.45704547 -48 50 C-46.79771083 44.10988607 -44.25239746 40.77613214 -39.62109375 37.03125 C-38 36 -38 36 -36 36 C-36.165 35.071875 -36.33 34.14375 -36.5 33.1875 C-37.91159848 22.93265224 -36.96337967 15.16316246 -32 6 C-31.34 6 -30.68 6 -30 6 C-29.79375 5.4225 -29.5875 4.845 -29.375 4.25 C-27.23105121 0.74172016 -23.99133438 -1.38449665 -20.06640625 -2.59765625 C-13.18826187 -3.93687907 -6.24502091 -3.27350226 0 0 Z " fill="#FA7505" transform="translate(611,337)"/>
<path d="M0 0 C2.15457332 1.88336829 3.39908269 3.57280278 5 6 C5 6.66 5 7.32 5 8 C5.66 8 6.32 8 7 8 C8.49821059 11.37097383 9 13.20442119 9 17 C9.66 17 10.32 17 11 17 C11.21914063 16.26265625 11.43828125 15.5253125 11.6640625 14.765625 C13.33687603 11.30260751 15.24314315 9.94985655 18.375 7.75 C19.80972656 6.72132813 19.80972656 6.72132813 21.2734375 5.671875 C27.0110331 2.15369317 33.42376066 2.25738828 40 3 C45.03851694 4.86060448 49.63507963 7.75727431 53 12 C53 12.66 53 13.32 53 14 C53.66 14 54.32 14 55 14 C55.33 15.65 55.66 17.3 56 19 C56.66 19 57.32 19 58 19 C60.27488803 28.38391314 58.65045386 38.52808623 54 47 C54.56332031 46.84015625 55.12664062 46.6803125 55.70703125 46.515625 C62.95735239 44.8852291 70.34598187 45.70580168 77 49 C80.16003068 51.50169095 81.69371803 52.93979317 82.8125 56.8125 C82.874375 57.534375 82.93625 58.25625 83 59 C83.66 59 84.32 59 85 59 C86.71599213 66.07846752 86.47367856 71.51580001 83 78 C78.33400983 85.17607729 71.6553861 88.95655139 63.375 90.8125 C62.199375 90.9053125 62.199375 90.9053125 61 91 C61.33 91.66 61.66 92.32 62 93 C62.39231417 97.70777 62.47336758 100.07079697 60.3125 104.3125 C57.40051676 107.69669674 55.22647168 109.77751322 50.62768555 110.23706055 C47.80838383 110.29522976 45.00638214 110.26133237 42.1875 110.1875 C41.20845703 110.17396484 40.22941406 110.16042969 39.22070312 110.14648438 C36.81323375 110.11125312 34.40690436 110.06199265 32 110 C32 110.66 32 111.32 32 112 C30.515 112.495 30.515 112.495 29 113 C28.67 113.66 28.34 114.32 28 115 C28.598125 115.103125 29.19625 115.20625 29.8125 115.3125 C32.40356448 116.12683455 33.33337224 116.86728143 35 119 C35.36328125 121.375 35.36328125 121.375 35.3125 124 C35.30863281 124.86625 35.30476562 125.7325 35.30078125 126.625 C35 129 35 129 33 132 C30.94140625 132.6171875 30.94140625 132.6171875 28.5625 132.875 C27.78003906 132.97554687 26.99757813 133.07609375 26.19140625 133.1796875 C24 133 24 133 22.2578125 131.80078125 C20.69829986 129.56806285 20.50827237 128.01415867 20.3125 125.3125 C20.24675781 124.50425781 20.18101562 123.69601562 20.11328125 122.86328125 C20.05720703 121.94095703 20.05720703 121.94095703 20 121 C11.59178777 120.71497586 7.18180759 122.23967929 1 128 C0.67 128.99 0.34 129.98 0 131 C0.804375 131.226875 1.60875 131.45375 2.4375 131.6875 C3.283125 132.120625 4.12875 132.55375 5 133 C5.8125 135.625 5.8125 135.625 6 138 C0.7854136 139.73819547 -4.16274443 139.89988028 -9.0625 137.5 C-12.75359281 134.35864442 -16.31718476 131.06390948 -19 127 C-19 125.68 -19 124.36 -19 123 C-17.33388095 122.957279 -15.66617115 122.95936168 -14 123 C-13.67 123.33 -13.34 123.66 -13 124 C-11.33382885 124.04063832 -9.66611905 124.042721 -8 124 C-8.47772907 119.70043841 -10.83509377 117.76396123 -14 115 C-16.46404364 113.83825649 -18.61226839 112.96124859 -21.1875 112.1875 C-21.87658447 111.9802832 -22.56566895 111.77306641 -23.27563477 111.55957031 C-31.97430525 109.18374776 -42.49409803 107.52307049 -50.9609375 111.33203125 C-54.72354502 114.10086037 -56.96176479 116.84489284 -59.125 120.9375 C-60.20703125 122.6875 -60.20703125 122.6875 -62 124 C-67.06624055 124.60947255 -71.92395576 124.40225256 -77 124 C-76.67 120.37 -76.34 116.74 -76 113 C-75.34 113 -74.68 113 -74 113 C-73.86078125 112.10667969 -73.86078125 112.10667969 -73.71875 111.1953125 C-72.36726105 107.06739516 -68.63405299 105.08712503 -65 103 C-56.9916749 100.05249145 -49.01247564 100.32917479 -41 103 C-40.896875 101.845 -40.79375 100.69 -40.6875 99.5 C-40.32860126 96.47575035 -39.68855427 94.08016251 -38.4375 91.3125 C-36.23537097 85.70205067 -35.94505498 79.90916754 -37 74 C-38.90878188 70.77797618 -41.26810877 68.52129576 -44 66 C-48.048057 60.94929925 -48.62222438 56.45704547 -48 50 C-46.79771083 44.10988607 -44.25239746 40.77613214 -39.62109375 37.03125 C-38 36 -38 36 -36 36 C-36.2475 34.6078125 -36.2475 34.6078125 -36.5 33.1875 C-37.91159848 22.93265224 -36.96337967 15.16316246 -32 6 C-31.34 6 -30.68 6 -30 6 C-29.79375 5.4225 -29.5875 4.845 -29.375 4.25 C-27.23105121 0.74172016 -23.99133438 -1.38449665 -20.06640625 -2.59765625 C-13.18826187 -3.93687907 -6.24502091 -3.27350226 0 0 Z " fill="#5CC513" transform="translate(611,337)"/>
<path d="M0 0 C0.91038025 -0.00189835 1.8207605 -0.00379669 2.75872803 -0.00575256 C5.73580848 -0.00942443 8.71263889 0.00119454 11.68969727 0.01245117 C13.77897615 0.01364539 15.86825558 0.01409562 17.95753479 0.01383972 C22.32410065 0.01539854 26.69058384 0.02364087 31.05712891 0.03710938 C36.62940666 0.05408749 42.20159371 0.05792354 47.77389431 0.05716419 C52.08495434 0.05743731 56.3959949 0.06294142 60.70704842 0.07016563 C62.7605684 0.0733279 64.81409056 0.07531394 66.86761284 0.07605934 C94.67674892 0.09720849 94.67674892 0.09720849 100.31860352 3.24291992 C100.31860352 3.90291992 100.31860352 4.56291992 100.31860352 5.24291992 C101.52516602 5.49041992 101.52516602 5.49041992 102.75610352 5.74291992 C112.86560841 9.99955356 118.54793787 18.77803342 122.72485352 28.52416992 C124.44420634 32.8825294 126.02451697 37.2124592 127.31079102 41.71948242 C128.30277857 45.18759394 129.45795184 48.54221579 130.69360352 51.93041992 C132.37018139 56.5870279 134.03362743 61.24600605 135.63110352 65.93041992 C135.95723633 66.88303711 136.28336914 67.8356543 136.61938477 68.81713867 C137.31860352 71.24291992 137.31860352 71.24291992 137.31860352 74.24291992 C137.97860352 74.24291992 138.63860352 74.24291992 139.31860352 74.24291992 C139.64860352 76.55291992 139.97860352 78.86291992 140.31860352 81.24291992 C140.97860352 81.24291992 141.63860352 81.24291992 142.31860352 81.24291992 C142.56610352 82.48041992 142.81360352 83.71791992 143.06860352 84.99291992 C144.37023358 90.89239432 146.34121431 96.54187572 148.31860352 102.24291992 C148.64860352 103.23291992 148.97860352 104.22291992 149.31860352 105.24291992 C147.96835083 105.48413574 147.96835083 105.48413574 146.59082031 105.73022461 C121.88902253 110.15046603 121.88902253 110.15046603 97.31860352 115.24291992 C97.31860352 118.54291992 97.31860352 121.84291992 97.31860352 125.24291992 C95.44641544 122.43463781 94.48022276 120.15343951 93.38110352 116.99291992 C91.86759515 112.65460443 90.13828759 108.46189116 88.31860352 104.24291992 C83.20693253 91.79671294 78.46121915 79.19615897 75.30688477 66.09448242 C74.50564286 62.97185586 73.54882481 60.20531072 72.31860352 57.24291992 C71.24420517 57.23705368 70.16980682 57.23118744 69.06285095 57.22514343 C58.92546169 57.16786925 48.78828597 57.09508295 38.65111446 57.00720501 C33.43978873 56.9625246 28.22854075 56.92326323 23.01708984 56.89648438 C17.98542438 56.87042833 12.95405852 56.83000935 7.92257881 56.77973366 C6.00534359 56.76308056 4.08805656 56.7515566 2.1707592 56.74530602 C-0.5199417 56.73564804 -3.20987882 56.70756852 -5.90039062 56.67529297 C-7.08291161 56.6774456 -7.08291161 56.6774456 -8.2893219 56.67964172 C-15.15173982 56.56362806 -20.84623467 54.67540039 -26.13061523 50.03198242 C-32.11855904 43.12397672 -35.99918386 35.4789669 -35.82983398 26.31713867 C-35.29211793 18.8032643 -31.93531029 12.52255637 -26.70483398 7.25073242 C-18.82117055 0.53708265 -10.06803505 -0.06775039 0 0 Z " fill="#5CC40E" transform="translate(66.681396484375,203.757080078125)"/>
<path d="M0 0 C10.87281067 0.70147166 19.51312835 3.81922317 27 12 C27.515625 12.969375 28.03125 13.93875 28.5625 14.9375 C29.036875 15.618125 29.51125 16.29875 30 17 C33.62599422 17.41725678 33.62599422 17.41725678 37 17 C37.99 18.98 37.99 18.98 39 21 C39.4021875 20.14728516 39.4021875 20.14728516 39.8125 19.27734375 C43.28561447 12.43393729 47.54635322 6.81718645 54.82421875 3.84765625 C58.22165284 2.94083805 61.36792794 2.5897187 64.875 2.375 C66.02742188 2.30023438 67.17984375 2.22546875 68.3671875 2.1484375 C69.67042969 2.07496094 69.67042969 2.07496094 71 2 C71.35652586 11.64045933 69.95191269 17.97783461 63.65234375 25.421875 C57.53199902 31.37095824 51.91848303 34.31425188 43.3125 34.375 C41.53978299 34.28039503 39.76740849 34.16656206 38 34 C38 36.64 38 39.28 38 42 C38.9178125 41.79503906 39.835625 41.59007812 40.78125 41.37890625 C50.70577716 39.20009724 59.82968933 37.8124328 70 38 C70 38.66 70 39.32 70 40 C71.11375 39.855625 72.2275 39.71125 73.375 39.5625 C79.47714881 39.54086117 83.4304425 43.35350837 88 47 C88.63808594 47.45117188 89.27617187 47.90234375 89.93359375 48.3671875 C92.87136771 50.52296408 93.93122907 51.73965291 94.875 55.3125 C94.91625 56.199375 94.9575 57.08625 95 58 C95.66 58 96.32 58 97 58 C100.33553195 64.7604085 101.38707925 70.92965121 101.375 78.375 C101.37628906 79.14763184 101.37757813 79.92026367 101.37890625 80.71630859 C101.29765254 84.96089175 100.78867983 88.09623891 99 92 C98.47013412 93.9922957 97.97103511 95.99298084 97.5 98 C96.60133927 101.82907617 95.54387685 105.37987497 94 109 C93.34 109 92.68 109 92 109 C91.67 110.65 91.34 112.3 91 114 C90.34 114 89.68 114 89 114 C89 114.66 89 115.32 89 116 C75.3788415 116.09260095 61.75775765 116.16371487 48.13634872 116.20724869 C41.8116521 116.2281407 35.48717051 116.25648834 29.16259766 116.30175781 C23.06125011 116.34515716 16.96010965 116.36912494 10.85861969 116.37950897 C8.52854399 116.38691091 6.19847987 116.4013648 3.86849213 116.42292023 C0.60966829 116.45187487 -2.6482952 116.45595922 -5.90722656 116.45410156 C-6.874673 116.46848267 -7.84211945 116.48286377 -8.83888245 116.49768066 C-15.38953549 116.45716277 -15.38953549 116.45716277 -18.55760193 114.08467102 C-22.75056767 108.02465586 -24.87951342 101.66073668 -26.6875 94.5625 C-27.62683931 89.37468728 -27.62683931 89.37468728 -30 85 C-30.89928264 71.59722986 -29.10457028 61.84201822 -21 51 C-20.360625 50.0925 -19.72125 49.185 -19.0625 48.25 C-12.99976662 41.63610904 -6.01471852 38.67286073 2.86328125 37.6796875 C12.84292901 37.29926891 22.35562511 39.71875399 32 42 C32 39.03 32 36.06 32 33 C31.31035156 33.05800781 30.62070312 33.11601562 29.91015625 33.17578125 C21.60426414 33.57455522 16.44097827 31.75281015 10.109375 26.40234375 C8.4375 24.8125 8.4375 24.8125 6 22 C6 21.34 6 20.68 6 20 C5.34 20 4.68 20 4 20 C0.73110147 13.14115041 -0.58179863 7.59570439 0 0 Z " fill="#EE0514" transform="translate(390,411)"/>
<path d="M0 0 C1.00869141 -0.020625 2.01738281 -0.04125 3.05664062 -0.0625 C16.95985238 -0.13411989 27.47932244 4.61768021 37.5 14.1875 C42.39043946 19.29290384 45.0625 22.99570988 45.0625 30.25 C45.7225 30.25 46.3825 30.25 47.0625 30.25 C50.92233493 40.38206668 50.09892108 52.29444553 46.0625 62.25 C39.44831632 75.82018563 30.79944411 83.65710687 17 89.625 C5.4628695 93.5417247 -7.52851795 92.15559356 -18.41015625 87.1015625 C-31.52720412 80.08688157 -39.0751489 68.0198865 -43.59765625 54.23828125 C-45.63238992 42.3339199 -43.64399021 31.07424133 -37.3984375 20.69140625 C-31.26258175 12.30185941 -23.8048327 5.25365657 -13.87109375 1.90625 C-9.09521689 0.28534634 -5.40734433 0.02671943 0 0 Z " fill="#14960C" transform="translate(325.9375,618.75)"/>
<path d="M0 0 C0 0.66 0 1.32 0 2 C1.0828125 2.3403125 1.0828125 2.3403125 2.1875 2.6875 C5.62334482 4.29089425 7.44616836 6.19701405 10 9 C10.50917969 9.54011719 11.01835938 10.08023438 11.54296875 10.63671875 C15.05960976 14.50068232 17.22626265 18.01664269 19 23 C19.2784375 23.69351563 19.556875 24.38703125 19.84375 25.1015625 C23.69008426 35.75021012 23.48381291 48.58532547 19 59 C17.4375 62.125 17.4375 62.125 16 64 C15.34 64 14.68 64 14 64 C13.77054688 64.72703125 13.54109375 65.4540625 13.3046875 66.203125 C11.74252152 69.55195985 9.88548618 71.30897662 7.125 73.75 C6.26132812 74.52859375 5.39765625 75.3071875 4.5078125 76.109375 C2.19161916 77.85553945 0.82638654 78.60562048 -2 79 C-2 79.66 -2 80.32 -2 81 C-3.53836708 81.65365399 -5.08088766 82.29753603 -6.625 82.9375 C-7.48351562 83.29714844 -8.34203125 83.65679688 -9.2265625 84.02734375 C-14.92659388 86.02636884 -20.41361693 86.13257051 -26.375 86.0625 C-27.11105469 86.05798828 -27.84710937 86.05347656 -28.60546875 86.04882812 C-30.40368158 86.03715142 -32.20185197 86.01922011 -34 86 C-34 85.34 -34 84.68 -34 84 C-35.12535156 83.92265625 -35.12535156 83.92265625 -36.2734375 83.84375 C-46.0443929 82.76082295 -51.68773128 78.97131356 -58.0703125 71.61328125 C-59.78066314 69.44850691 -61.40513669 67.25057634 -63 65 C-63.78697266 63.99646484 -63.78697266 63.99646484 -64.58984375 62.97265625 C-71.20007279 53.72565994 -71.02611405 40.50401666 -69.55078125 29.71484375 C-69.0805262 27.13010852 -68.5753103 24.56321285 -68 22 C-67.34 22 -66.68 22 -66 22 C-65.76410156 20.95972656 -65.52820313 19.91945313 -65.28515625 18.84765625 C-62.92129348 10.62687365 -54.68206403 3.56349134 -47.53515625 -0.78515625 C-31.13584866 -8.64368423 -16.12110362 -6.93308423 0 0 Z " fill="#14960C" transform="translate(605,624)"/>
<path d="M0 0 C2.19072373 0.53312383 4.33280163 1.13856239 6.48339844 1.81494141 C7.13397217 2.01933838 7.7845459 2.22373535 8.45483398 2.43432617 C13.86975448 4.31508914 17.49341535 6.79871678 20.67089844 11.56494141 C20.29589844 13.75244141 20.29589844 13.75244141 19.67089844 15.56494141 C15.58371149 15.80536417 12.49410401 14.98752953 8.67089844 13.56494141 C10.2790777 19.28291211 14.59495663 24.50340594 19.50683594 27.79541016 C22.38958788 28.82050426 24.87040495 28.75625648 27.92089844 28.68994141 C29.53738281 28.66287109 29.53738281 28.66287109 31.18652344 28.63525391 C32.41628906 28.60044922 32.41628906 28.60044922 33.67089844 28.56494141 C32.44808458 24.77106016 32.44808458 24.77106016 29.54589844 22.25244141 C28.92714844 22.02556641 28.30839844 21.79869141 27.67089844 21.56494141 C28.04589844 19.62744141 28.04589844 19.62744141 28.67089844 17.56494141 C29.66089844 17.06994141 29.66089844 17.06994141 30.67089844 16.56494141 C30.67089844 17.22494141 30.67089844 17.88494141 30.67089844 18.56494141 C31.22777344 18.64744141 31.78464844 18.72994141 32.35839844 18.81494141 C36.63930792 20.20334448 39.21774721 22.88521456 41.67089844 26.56494141 C43.39443583 27.3128916 45.11985854 28.05747937 46.86230469 28.76025391 C52.12186108 31.10035891 54.50545926 34.37032045 56.67089844 39.56494141 C57.13964844 43.25634766 57.13964844 43.25634766 57.17089844 47.12744141 C57.21730469 49.0475 57.21730469 49.0475 57.26464844 51.00634766 C56.51798064 55.48144214 55.10197479 56.6864894 51.67089844 59.56494141 C50.42953125 60.76763672 50.42953125 60.76763672 49.16308594 61.99462891 C39.67272627 70.86174107 31.08186424 76.68585015 18.44433594 79.83837891 C15.78077284 80.28679063 15.78077284 80.28679063 14.67089844 81.56494141 C11.77571255 81.66289319 8.90437764 81.69486234 6.0087738 81.68519592 C4.62929324 81.68647756 4.62929324 81.68647756 3.22194439 81.68778509 C0.11563566 81.68944271 -2.99062001 81.68391393 -6.09692383 81.6784668 C-8.3137919 81.67818496 -10.53066006 81.67834259 -12.74752808 81.6789093 C-18.78654057 81.67919741 -24.82553339 81.67329851 -30.86454129 81.66633534 C-37.16798889 81.66010405 -43.47143688 81.65949819 -49.77488708 81.65830994 C-60.36156551 81.65555024 -70.94823745 81.64929473 -81.53491211 81.64038086 C-92.44116174 81.63120744 -103.3474094 81.62412626 -114.25366211 81.61987305 C-114.92547339 81.61961032 -115.59728467 81.6193476 -116.28945387 81.61907692 C-119.65959926 81.61777192 -123.02974466 81.6165082 -126.39989007 81.61526501 C-154.37629895 81.60479911 -182.35269975 81.58719839 -210.32910156 81.56494141 C-209.83410156 80.57494141 -209.83410156 80.57494141 -209.32910156 79.56494141 C-125.17910156 80.05994141 -125.17910156 80.05994141 -39.32910156 80.56494141 C-40.31910156 71.65494141 -40.31910156 71.65494141 -41.32910156 62.56494141 C-41.49807246 58.30339592 -41.61853375 54.1308833 -41.57910156 49.87744141 C-41.57450928 48.81871826 -41.56991699 47.75999512 -41.56518555 46.66918945 C-41.47087042 38.48750871 -40.77117843 30.61741441 -39.32910156 22.56494141 C-38.99539503 20.56500364 -38.66194862 18.56502239 -38.32910156 16.56494141 C-41.95910156 16.23494141 -45.58910156 15.90494141 -49.32910156 15.56494141 C-49.32910156 15.23494141 -49.32910156 14.90494141 -49.32910156 14.56494141 C-47.77449219 14.56107422 -47.77449219 14.56107422 -46.18847656 14.55712891 C-44.81864204 14.51959919 -43.44885118 14.48045156 -42.07910156 14.43994141 C-41.05623047 14.44380859 -41.05623047 14.44380859 -40.01269531 14.44775391 C-37.70270701 14.4171455 -37.70270701 14.4171455 -34.32910156 13.56494141 C-31.98809499 10.77479856 -31.98809499 10.77479856 -30.32910156 7.56494141 C-28.51269531 5.73681641 -28.51269531 5.73681641 -26.76660156 4.31494141 C-26.1878125 3.83541016 -25.60902344 3.35587891 -25.01269531 2.86181641 C-18.2163958 -2.37338414 -8.24219866 -1.5395805 0 0 Z " fill="#F9B60B" transform="translate(583.3291015625,446.43505859375)"/>
<path d="M0 0 C2.96787035 2.49570916 4.72775457 4.05761199 5.8125 7.8125 C5.874375 8.534375 5.93625 9.25625 6 10 C6.66 10 7.32 10 8 10 C9.71599213 17.07846752 9.47367856 22.51580001 6 29 C1.33400983 36.17607729 -5.3446139 39.95655139 -13.625 41.8125 C-14.800625 41.9053125 -14.800625 41.9053125 -16 42 C-15.67 42.66 -15.34 43.32 -15 44 C-14.60768583 48.70777 -14.52663242 51.07079697 -16.6875 55.3125 C-19.59948324 58.69669674 -21.77352832 60.77751322 -26.37231445 61.23706055 C-29.19161617 61.29522976 -31.99361786 61.26133237 -34.8125 61.1875 C-35.79154297 61.17396484 -36.77058594 61.16042969 -37.77929688 61.14648438 C-40.18676625 61.11125312 -42.59309564 61.06199265 -45 61 C-45 61.66 -45 62.32 -45 63 C-45.99 63.33 -46.98 63.66 -48 64 C-48.33 64.66 -48.66 65.32 -49 66 C-48.401875 66.103125 -47.80375 66.20625 -47.1875 66.3125 C-44.59643552 67.12683455 -43.66662776 67.86728143 -42 70 C-41.63671875 72.375 -41.63671875 72.375 -41.6875 75 C-41.69136719 75.86625 -41.69523438 76.7325 -41.69921875 77.625 C-42 80 -42 80 -44 83 C-46.05859375 83.6171875 -46.05859375 83.6171875 -48.4375 83.875 C-49.21996094 83.97554688 -50.00242187 84.07609375 -50.80859375 84.1796875 C-53 84 -53 84 -54.7421875 82.80078125 C-56.30170014 80.56806285 -56.49172763 79.01415867 -56.6875 76.3125 C-56.78611328 75.10013672 -56.78611328 75.10013672 -56.88671875 73.86328125 C-56.94279297 72.94095703 -56.94279297 72.94095703 -57 72 C-65.40821223 71.71497586 -69.81819241 73.23967929 -76 79 C-76.33 79.99 -76.66 80.98 -77 82 C-76.195625 82.226875 -75.39125 82.45375 -74.5625 82.6875 C-73.716875 83.120625 -72.87125 83.55375 -72 84 C-71.1875 86.625 -71.1875 86.625 -71 89 C-76.2145864 90.73819547 -81.16274443 90.89988028 -86.0625 88.5 C-89.75359281 85.35864442 -93.31718476 82.06390948 -96 78 C-96 76.68 -96 75.36 -96 74 C-94.33388095 73.957279 -92.66617115 73.95936168 -91 74 C-90.67 74.33 -90.34 74.66 -90 75 C-88.33382885 75.04063832 -86.66611905 75.042721 -85 75 C-85.42023751 72.05833742 -85.90660282 71.08790323 -88.125 69 C-88.74375 68.34 -89.3625 67.68 -90 67 C-89.9375 65.11328125 -89.9375 65.11328125 -89 63 C-86.7421875 61.10546875 -86.7421875 61.10546875 -83.875 59.1875 C-79.68951033 56.27655944 -76.15728596 53.31550599 -72.65625 49.6328125 C-70.97010247 47.97052554 -69.23517498 46.62896771 -67.3125 45.25 C-60.84741628 40.57232178 -54.74640648 34.96628587 -49.26953125 29.16796875 C-48 28 -48 28 -46 28 C-45.7215625 27.01 -45.7215625 27.01 -45.4375 26 C-43.7507204 22.47976432 -41.55374604 20.1264779 -38.94140625 17.2578125 C-36.21358493 14.08541667 -33.90928565 10.66872654 -31.578125 7.19921875 C-30.17423601 5.2428091 -28.71206528 3.67762719 -27 2 C-26.67 1.34 -26.34 0.68 -26 0 C-17.93490439 -2.79176387 -7.82698445 -3.87992882 0 0 Z " fill="#14A111" transform="translate(688,386)"/>
<path d="M0 0 C2.15457332 1.88336829 3.39908269 3.57280278 5 6 C5 6.66 5 7.32 5 8 C5.66 8 6.32 8 7 8 C7.55978184 9.57701982 8.09719401 11.16199242 8.625 12.75 C8.92664063 13.63171875 9.22828125 14.5134375 9.5390625 15.421875 C10.46773866 20.6161654 6.38614741 24.44759034 3.5625 28.5625 C-0.51812254 34.60082091 -4.33144986 40.76560704 -8 47.0625 C-8.46849365 47.85922119 -8.9369873 48.65594238 -9.41967773 49.47680664 C-11.78985761 53.58949717 -13.57874499 57.45065568 -15 62 C-16.1484375 63.984375 -16.1484375 63.984375 -17.375 65.75 C-20.30149675 70.23092677 -22.16298226 74.99181757 -24 80 C-24.66 79.34 -25.32 78.68 -26 78 C-28.25721149 85.2860687 -30.26807379 92.22445652 -30.78515625 99.8671875 C-31.07562358 102.75073591 -31.93989738 105.31440669 -33 108 C-35.31 107.67 -37.62 107.34 -40 107 C-39.88581333 104.41577541 -39.75907638 101.83320487 -39.625 99.25 C-39.5940625 98.52039063 -39.563125 97.79078125 -39.53125 97.0390625 C-39.31886906 93.14541196 -38.81214335 90.41109336 -37 87 C-36.20558716 81.68516717 -35.66772606 76.26914038 -38.4609375 71.51171875 C-40.21737049 69.54406914 -42.06332967 67.78737669 -44 66 C-48.048057 60.94929925 -48.62222438 56.45704547 -48 50 C-46.79771083 44.10988607 -44.25239746 40.77613214 -39.62109375 37.03125 C-38 36 -38 36 -36 36 C-36.165 35.071875 -36.33 34.14375 -36.5 33.1875 C-37.91159848 22.93265224 -36.96337967 15.16316246 -32 6 C-31.34 6 -30.68 6 -30 6 C-29.79375 5.4225 -29.5875 4.845 -29.375 4.25 C-27.23105121 0.74172016 -23.99133438 -1.38449665 -20.06640625 -2.59765625 C-13.18826187 -3.93687907 -6.24502091 -3.27350226 0 0 Z " fill="#4DBD18" transform="translate(611,337)"/>
<path d="M0 0 C4.51130502 0.24468095 7.51209356 0.86257435 10.8671875 4 C15.48414315 9.24261786 20.54001076 16.07686932 20.5546875 23.3125 C20.3690625 24.7046875 20.3690625 24.7046875 20.1796875 26.125 C20.8396875 26.125 21.4996875 26.125 22.1796875 26.125 C22.2003125 25.3 22.2209375 24.475 22.2421875 23.625 C23.71649503 18.12091855 27.26015864 14.04248717 32.0234375 10.9140625 C35.68277869 9.16464062 38.34202528 8.84577926 42.1796875 10.125 C44.77938695 20.03635413 45.93564533 30.61308434 41.1796875 40.125 C39.6946875 40.62 39.6946875 40.62 38.1796875 41.125 C37.8909375 41.7025 37.6021875 42.28 37.3046875 42.875 C36.1796875 45.125 36.1796875 45.125 33.7421875 47.4375 C28.79209519 52.62906022 27.78315742 58.24544295 27.1796875 65.125 C26.57640625 65.25777344 25.973125 65.39054687 25.3515625 65.52734375 C24.15273438 65.79224609 24.15273438 65.79224609 22.9296875 66.0625 C21.74632812 66.32353516 21.74632812 66.32353516 20.5390625 66.58984375 C18.19667503 67.0813066 18.19667503 67.0813066 16.04296875 67.83203125 C15.42808594 67.92871094 14.81320312 68.02539062 14.1796875 68.125 C11.83200368 66.06361909 9.83551697 63.87213593 7.77856445 61.52880859 C5.90693052 59.88552029 4.5740348 59.4723292 2.16015625 58.9140625 C1.38478516 58.72070312 0.60941406 58.52734375 -0.18945312 58.328125 C-1.80551844 57.94574664 -3.42270242 57.56806266 -5.04101562 57.1953125 C-12.38201602 55.34943647 -16.85273319 52.24731998 -20.9453125 45.6875 C-22.6227203 43.01689022 -24.28178609 40.51779791 -26.1953125 38 C-28.17784734 34.49243836 -28.13762774 32.09144047 -27.8203125 28.125 C-22.42475687 26.57077672 -16.12853067 25.97213609 -10.7578125 27.84375 C-6.74028817 30.06773668 -3.25729381 33.10716276 0.1796875 36.125 C-0.4390625 35.25875 -1.0578125 34.3925 -1.6953125 33.5 C-5.2337137 27.88018634 -6.06999935 23.35840304 -5.9453125 16.75 C-5.92726563 15.50476563 -5.90921875 14.25953125 -5.890625 12.9765625 C-5.86742187 12.03554688 -5.84421875 11.09453125 -5.8203125 10.125 C-5.1603125 10.125 -4.5003125 10.125 -3.8203125 10.125 C-3.72943359 9.16787109 -3.72943359 9.16787109 -3.63671875 8.19140625 C-3.55292969 7.36511719 -3.46914063 6.53882813 -3.3828125 5.6875 C-3.30160156 4.86378906 -3.22039062 4.04007812 -3.13671875 3.19140625 C-2.73965113 0.59821154 -2.63025131 0.18061812 0 0 Z " fill="#4CBC1B" transform="translate(470.8203125,344.875)"/>
<path d="M0 0 C10.87281067 0.70147166 19.51312835 3.81922317 27 12 C27.515625 12.969375 28.03125 13.93875 28.5625 14.9375 C29.036875 15.618125 29.51125 16.29875 30 17 C33.62599422 17.41725678 33.62599422 17.41725678 37 17 C37.66 18.32 38.32 19.64 39 21 C39.268125 20.43152344 39.53625 19.86304688 39.8125 19.27734375 C43.28561447 12.43393729 47.54635322 6.81718645 54.82421875 3.84765625 C58.22165284 2.94083805 61.36792794 2.5897187 64.875 2.375 C66.02742188 2.30023438 67.17984375 2.22546875 68.3671875 2.1484375 C69.67042969 2.07496094 69.67042969 2.07496094 71 2 C71.35652586 11.64045933 69.95191269 17.97783461 63.65234375 25.421875 C57.53199902 31.37095824 51.91848303 34.31425188 43.3125 34.375 C41.53978299 34.28039503 39.76740849 34.16656206 38 34 C38 36.64 38 39.28 38 42 C38.99 42.495 38.99 42.495 40 43 C39.01 43 38.02 43 37 43 C37 46.63 37 50.26 37 54 C35.68 54 34.36 54 33 54 C33 50.37 33 46.74 33 43 C31.35 43 29.7 43 28 43 C29.98 42.505 29.98 42.505 32 42 C32 39.03 32 36.06 32 33 C31.31035156 33.05800781 30.62070312 33.11601562 29.91015625 33.17578125 C21.60426414 33.57455522 16.44097827 31.75281015 10.109375 26.40234375 C8.4375 24.8125 8.4375 24.8125 6 22 C6 21.34 6 20.68 6 20 C5.34 20 4.68 20 4 20 C0.73110147 13.14115041 -0.58179863 7.59570439 0 0 Z " fill="#64C61C" transform="translate(390,411)"/>
<path d="M0 0 C0.99 0.33 1.98 0.66 3 1 C3 1.66 3 2.32 3 3 C3.598125 3.103125 4.19625 3.20625 4.8125 3.3125 C7.40356448 4.12683455 8.33337224 4.86728143 10 7 C10.36328125 9.375 10.36328125 9.375 10.3125 12 C10.30863281 12.86625 10.30476562 13.7325 10.30078125 14.625 C10 17 10 17 8 20 C5.94140625 20.6171875 5.94140625 20.6171875 3.5625 20.875 C2.38880859 21.02582031 2.38880859 21.02582031 1.19140625 21.1796875 C-1 21 -1 21 -2.7421875 19.80078125 C-4.30170014 17.56806285 -4.49172763 16.01415867 -4.6875 13.3125 C-4.78611328 12.10013672 -4.78611328 12.10013672 -4.88671875 10.86328125 C-4.94279297 9.94095703 -4.94279297 9.94095703 -5 9 C-13.40821223 8.71497586 -17.81819241 10.23967929 -24 16 C-24.33 16.99 -24.66 17.98 -25 19 C-24.195625 19.226875 -23.39125 19.45375 -22.5625 19.6875 C-21.716875 20.120625 -20.87125 20.55375 -20 21 C-19.1875 23.625 -19.1875 23.625 -19 26 C-24.2145864 27.73819547 -29.16274443 27.89988028 -34.0625 25.5 C-37.75359281 22.35864442 -41.31718476 19.06390948 -44 15 C-44 13.68 -44 12.36 -44 11 C-42.33388095 10.957279 -40.66617115 10.95936168 -39 11 C-38.67 11.33 -38.34 11.66 -38 12 C-36.33382885 12.04063832 -34.66611905 12.042721 -33 12 C-33.33 10.35 -33.66 8.7 -34 7 C-33.27941406 6.9175 -32.55882812 6.835 -31.81640625 6.75 C-28.37704639 5.83410944 -26.61756687 4.31968694 -23.9375 2 C-16.1601669 -4.71079589 -9.09131166 -3.81439815 0 0 Z " fill="#2AA818" transform="translate(636,449)"/>
<path d="M0 0 C0.66 0 1.32 0 2 0 C0.3833897 3.58206808 -1.79058003 6.53405471 -4.125 9.6875 C-11.30859814 19.551096 -17.74227711 29.9241062 -24.25439453 40.23706055 C-25.34347565 41.9608551 -26.43738585 43.68161955 -27.53857422 45.39770508 C-28.20590576 46.44414185 -28.20590576 46.44414185 -28.88671875 47.51171875 C-29.45265747 48.39283325 -29.45265747 48.39283325 -30.0300293 49.29174805 C-31.41023282 51.72247647 -32.26938521 54.26698416 -33.17578125 56.90234375 C-34.70980889 60.80648046 -36.884116 64.38710717 -39 68 C-40.11375 67.67 -41.2275 67.34 -42.375 67 C-50.62813422 65.23147124 -61.09043037 63.83080453 -68.98828125 67.3203125 C-72.71619414 70.11468082 -74.96600187 72.85290893 -77.125 76.9375 C-78.20703125 78.6875 -78.20703125 78.6875 -80 80 C-85.06624055 80.60947255 -89.92395576 80.40225256 -95 80 C-94.67 76.37 -94.34 72.74 -94 69 C-93.34 69 -92.68 69 -92 69 C-91.86078125 68.10667969 -91.86078125 68.10667969 -91.71875 67.1953125 C-90.36726105 63.06739516 -86.63405299 61.08712503 -83 59 C-74.9916749 56.05249145 -67.01247564 56.32917479 -59 59 C-58.67 56.36 -58.34 53.72 -58 51 C-57.67 51 -57.34 51 -57 51 C-56.86607143 59.03571429 -56.86607143 59.03571429 -58 63 C-57.26394531 63.04898438 -56.52789063 63.09796875 -55.76953125 63.1484375 C-54.79371094 63.22320312 -53.81789063 63.29796875 -52.8125 63.375 C-51.84957031 63.44460938 -50.88664063 63.51421875 -49.89453125 63.5859375 C-46.98491062 64.00215853 -44.67109226 64.79874096 -42 66 C-41.566875 64.63875 -41.566875 64.63875 -41.125 63.25 C-40.23468224 60.67797092 -39.28505587 58.38653234 -38 56 C-37.34 56 -36.68 56 -36 56 C-35.91621094 55.31679688 -35.83242188 54.63359375 -35.74609375 53.9296875 C-34.80836365 50.24750123 -33.04664859 47.31929107 -31.0625 44.125 C-30.66281006 43.47152588 -30.26312012 42.81805176 -29.85131836 42.14477539 C-10.95631585 11.50413165 -10.95631585 11.50413165 0 0 Z " fill="#74D01F" transform="translate(629,381)"/>
<path d="M0 0 C0.36019358 9.73963454 -1.12230387 15.9741992 -7.47265625 23.48828125 C-12.71210137 28.69533413 -17.09697428 31.23889623 -24.5625 31.3125 C-26.04323034 31.23361787 -27.52367061 31.13869483 -29 31 C-24.70214922 25.96836982 -20.36574458 20.97281557 -16 16 C-16.66 16 -17.32 16 -18 16 C-18 16.66 -18 17.32 -18 18 C-19.57421875 19.5859375 -19.57421875 19.5859375 -21.6875 21.375 C-22.41453125 21.99246094 -23.1415625 22.60992187 -23.890625 23.24609375 C-30.81069042 29 -30.81069042 29 -32 29 C-31.39266105 19.95274394 -30.03868768 13.18031114 -23 7 C-22.360625 6.278125 -21.72125 5.55625 -21.0625 4.8125 C-15.50608639 -0.07040893 -7.06913515 0 0 0 Z " fill="#49BC1C" transform="translate(461,413)"/>
<path d="M0 0 C2 2 2 2 2.25 4.5 C2 7 2 7 0 9 C1.258125 9.0825 2.51625 9.165 3.8125 9.25 C6.73911218 9.62361007 7.75950263 9.79594163 10.0625 11.75 C11 14 11 14 11.0625 16.4375 C9.33959014 20.59275319 6.01855278 22.99072361 2 25 C-0.6723621 25.13415472 -3.32250488 25.04318541 -6 25 C-7.66952116 21.84646004 -8.1139398 20.46525417 -7.25 16.9375 C-6.24260001 14.57011003 -5.21933347 12.26447644 -4 10 C-9.68158515 13.7766698 -9.68158515 13.7766698 -14 19 C-14.99 18.67 -15.98 18.34 -17 18 C-17.1961906 12.01618676 -16.57260376 7.8904362 -12.4375 3.375 C-8.19197171 -0.41920186 -5.55712633 -0.95812523 0 0 Z " fill="#FBC223" transform="translate(572,454)"/>
<path d="M0 0 C0.99 0.33 1.98 0.66 3 1 C3.1875 3.375 3.1875 3.375 3 6 C2.01 6.66 1.02 7.32 0 8 C-0.33 8.99 -0.66 9.98 -1 11 C-0.01 11.33 0.98 11.66 2 12 C1.01 13.65 0.02 15.3 -1 17 C-0.195625 17.226875 0.60875 17.45375 1.4375 17.6875 C2.283125 18.120625 3.12875 18.55375 4 19 C4.8125 21.625 4.8125 21.625 5 24 C-0.2145864 25.73819547 -5.16274443 25.89988028 -10.0625 23.5 C-13.75359281 20.35864442 -17.31718476 17.06390948 -20 13 C-20 11.68 -20 10.36 -20 9 C-18.33388095 8.957279 -16.66617115 8.95936168 -15 9 C-14.67 9.33 -14.34 9.66 -14 10 C-12.33382885 10.04063832 -10.66611905 10.042721 -9 10 C-9.33 8.35 -9.66 6.7 -10 5 C-8.9171875 4.87625 -8.9171875 4.87625 -7.8125 4.75 C-4.83318536 4.16020861 -4.83318536 4.16020861 -2.375 1.875 C-1.59125 1.25625 -0.8075 0.6375 0 0 Z " fill="#2FA30F" transform="translate(612,451)"/>
<path d="M0 0 C0.33 1.98 0.66 3.96 1 6 C-0.01320313 6.47179687 -0.01320313 6.47179687 -1.046875 6.953125 C-10.23645853 11.36200034 -14.41487003 15.62787455 -17.9375 25.25 C-18.23527344 26.12140625 -18.53304688 26.9928125 -18.83984375 27.890625 C-20 30 -20 30 -22.12890625 30.796875 C-22.74636719 30.86390625 -23.36382812 30.9309375 -24 31 C-26.35465446 26.29069109 -25.36415185 20.24240044 -23.9375 15.375 C-20.58661646 9.53797706 -15.72041625 2.79050271 -9.1875 0.3125 C-6.11614591 -0.12626487 -3.0969072 -0.05955591 0 0 Z " fill="#FA5A6F" transform="translate(396,458)"/>
<path d="M0 0 C0.66 0 1.32 0 2 0 C0.3833897 3.58206808 -1.79058003 6.53405471 -4.125 9.6875 C-11.30859814 19.551096 -17.74227711 29.9241062 -24.25439453 40.23706055 C-25.34347565 41.9608551 -26.43738585 43.68161955 -27.53857422 45.39770508 C-27.98346191 46.09532959 -28.42834961 46.7929541 -28.88671875 47.51171875 C-29.26401123 48.09912842 -29.64130371 48.68653809 -30.0300293 49.29174805 C-31.41023282 51.72247647 -32.26938521 54.26698416 -33.17578125 56.90234375 C-34.70980889 60.80648046 -36.884116 64.38710717 -39 68 C-39.99 68 -40.98 68 -42 68 C-41.45660208 63.43545749 -40.20536179 60.0271824 -38 56 C-37.34 56 -36.68 56 -36 56 C-35.91621094 55.31679688 -35.83242188 54.63359375 -35.74609375 53.9296875 C-34.80836365 50.24750123 -33.04664859 47.31929107 -31.0625 44.125 C-30.66281006 43.47152588 -30.26312012 42.81805176 -29.85131836 42.14477539 C-10.95631585 11.50413165 -10.95631585 11.50413165 0 0 Z " fill="#BCE89A" transform="translate(629,381)"/>
<path d="M0 0 C2 2 2 2 2.125 4.625 C2.08375 5.40875 2.0425 6.1925 2 7 C1.030625 7.12375 0.06125 7.2475 -0.9375 7.375 C-6.82611801 8.96782291 -10.31009917 14.46501984 -14 19 C-14.99 18.67 -15.98 18.34 -17 18 C-17.1961906 12.01618676 -16.57260376 7.8904362 -12.4375 3.375 C-8.19197171 -0.41920186 -5.55712633 -0.95812523 0 0 Z " fill="#FDCE59" transform="translate(572,454)"/>
<path d="M0 0 C0.66 0.33 1.32 0.66 2 1 C-0.72787103 3.90345813 -3.40295931 6.01468063 -6.8125 8.0625 C-21.32264258 17.12163982 -34.05997471 27.75980648 -46 40 C-46.33 39.34 -46.66 38.68 -47 38 C-40.81636176 28.03016246 -28.5034206 16.04839606 -17.30859375 12.03515625 C-14.45259004 10.75454545 -14.31671901 9.7418737 -13 7 C-10.72265625 5.33203125 -10.72265625 5.33203125 -8.0625 3.8125 C-7.18722656 3.30332031 -6.31195312 2.79414063 -5.41015625 2.26953125 C-3 1 -3 1 0 0 Z " fill="#64C14C" transform="translate(655,411)"/>
<path d="M0 0 C1.65 0 3.3 0 5 0 C6.50606515 3.01213029 6.12160331 6.11282622 6.09765625 9.4140625 C6.0962413 10.14370209 6.09482635 10.87334167 6.09336853 11.62509155 C6.08776531 13.95843585 6.07521235 16.29168464 6.0625 18.625 C6.05748541 20.20572778 6.05292243 21.78645707 6.04882812 23.3671875 C6.03779484 27.24482854 6.02052811 31.12239807 6 35 C4.68 35 3.36 35 2 35 C1.97494385 34.36610352 1.9498877 33.73220703 1.92407227 33.07910156 C1.29682856 16.51817657 1.29682856 16.51817657 0 0 Z " fill="#743D17" transform="translate(421,430)"/>
<path d="M0 0 C0.33 0 0.66 0 1 0 C1 4.62 1 9.24 1 14 C1.66 14 2.32 14 3 14 C3.33 12.68 3.66 11.36 4 10 C5.27351308 12.54702616 4.80191925 13.4282945 4.0625 16.125 C3.86785156 16.84945313 3.67320312 17.57390625 3.47265625 18.3203125 C3.31667969 18.87460937 3.16070313 19.42890625 3 20 C3.66 20.33 4.32 20.66 5 21 C3.74296132 25.57104976 1.79622174 29.04311662 -0.7578125 32.96484375 C-2.5263157 35.86229711 -3.75203768 38.84725308 -5 42 C-6.29833941 37.69630062 -5.51462383 34.01773652 -4.6875 29.6875 C-4.55666016 28.95337891 -4.42582031 28.21925781 -4.29101562 27.46289062 C-3.66165951 24.03639622 -2.93040681 20.76649319 -1.93359375 17.421875 C-0.93098912 13.74705637 -0.59205766 10.36100899 -0.375 6.5625 C-0.30023437 5.32628906 -0.22546875 4.09007812 -0.1484375 2.81640625 C-0.09945312 1.88699219 -0.05046875 0.95757812 0 0 Z " fill="#43B316" transform="translate(593,372)"/>
<path d="M0 0 C2.64 0 5.28 0 8 0 C8.66 1.32 9.32 2.64 10 4 C10.66 2.68 11.32 1.36 12 0 C12.33 0.66 12.66 1.32 13 2 C12.33333333 4 11.66666667 6 11 8 C10.95900903 9.66616251 10.95191589 11.3340271 11 13 C12.27200971 11.89718873 13.54255853 10.79269231 14.8125 9.6875 C15.87404297 8.76517578 15.87404297 8.76517578 16.95703125 7.82421875 C18.98244046 6.06723259 18.98244046 6.06723259 20.63671875 4.26953125 C22 3 22 3 24 3 C24 2.34 24 1.68 24 1 C24.66 1 25.32 1 26 1 C24.41332422 4.90285767 21.86649519 7.33520982 18.875 10.25 C17.96492188 11.14203125 17.05484375 12.0340625 16.1171875 12.953125 C15.06917969 13.96632813 15.06917969 13.96632813 14 15 C16.31 15.33 18.62 15.66 21 16 C21 16.33 21 16.66 21 17 C17.04 17 13.08 17 9 17 C9 19.64 9 22.28 9 25 C9.66 25.33 10.32 25.66 11 26 C10.01 26 9.02 26 8 26 C7.67 18.08 7.34 10.16 7 2 C5.35 2 3.7 2 2 2 C1.67 2.99 1.34 3.98 1 5 C0.67 3.35 0.34 1.7 0 0 Z " fill="#8CBD60" transform="translate(419,428)"/>
<path d="M0 0 C0.73046875 2.23046875 0.73046875 2.23046875 1 5 C-0.51171875 7.23828125 -0.51171875 7.23828125 -2.6875 9.3125 C-3.39261719 10.00988281 -4.09773438 10.70726562 -4.82421875 11.42578125 C-7 13 -7 13 -11 13 C-11.34731345 8.13761177 -10.52309739 5.17281491 -8 1 C-5.29120665 -0.35439668 -2.99066732 -0.06501451 0 0 Z " fill="#FD913F" transform="translate(483,422)"/>
<path d="M0 0 C0 0.66 0 1.32 0 2 C0.66 2 1.32 2 2 2 C2 3.32 2 4.64 2 6 C1.33613281 5.97679687 0.67226563 5.95359375 -0.01171875 5.9296875 C-6.51763397 5.79671989 -10.50930141 6.33953428 -16 10 C-17.32 10 -18.64 10 -20 10 C-19.6875 8.0625 -19.6875 8.0625 -19 6 C-18.01 5.67 -17.02 5.34 -16 5 C-16 4.34 -16 3.68 -16 3 C-14.27318563 2.49193553 -12.54342021 1.99389533 -10.8125 1.5 C-9.84957031 1.2215625 -8.88664063 0.943125 -7.89453125 0.65625 C-5.14654124 0.03322392 -2.80401584 -0.12302812 0 0 Z " fill="#1AA311" transform="translate(631,452)"/>
<path d="M0 0 C0 3 0 3 -2.5 5.6875 C-3.325 6.450625 -4.15 7.21375 -5 8 C-4.67 8.66 -4.34 9.32 -4 10 C-4.85722656 10.65226562 -5.71445312 11.30453125 -6.59765625 11.9765625 C-7.75277397 12.85915281 -8.9077101 13.74198081 -10.0625 14.625 C-10.65796631 15.0785083 -11.25343262 15.5320166 -11.86694336 15.99926758 C-15.05907382 18.44661115 -18.11099866 20.94959415 -21.0625 23.6875 C-22.031875 24.450625 -23.00125 25.21375 -24 26 C-26.18359375 25.64453125 -26.18359375 25.64453125 -28 25 C-23.24962337 20.69533772 -18.43654381 16.51459524 -13.4375 12.5 C-8.64025286 8.61490549 -4.25184731 4.4711403 0 0 Z " fill="#31AB1E" transform="translate(639,415)"/>
<path d="M0 0 C0.99 0 1.98 0 3 0 C3 3.63 3 7.26 3 11 C0.87363187 10.71848084 -1.25108528 10.42446737 -3.375 10.125 C-4.55835938 9.96257812 -5.74171875 9.80015625 -6.9609375 9.6328125 C-10 9 -10 9 -12 7 C-12 6.01 -12 5.02 -12 4 C-7.38 4 -2.76 4 2 4 C2 3.01 2 2.02 2 1 C1.34 0.67 0.68 0.34 0 0 Z " fill="#A70A0E" transform="translate(420,454)"/>
<path d="M0 0 C0.33 0 0.66 0 1 0 C1.40733401 7.39235805 0.5462303 13.94472729 -1.1328125 21.140625 C-2.11979366 25.53313575 -2.92077051 29.9397505 -3.6875 34.375 C-3.81874268 35.13119629 -3.94998535 35.88739258 -4.08520508 36.66650391 C-4.39229585 38.44396426 -4.69647899 40.22192659 -5 42 C-5.99 41.34 -6.98 40.68 -8 40 C-7.24849287 33.4869382 -7.24849287 33.4869382 -6.00976562 31.05957031 C-4.87658491 28.74827618 -4.54203233 26.845519 -4.21875 24.296875 C-4.09886719 23.39839844 -3.97898437 22.49992187 -3.85546875 21.57421875 C-3.73816406 20.64222656 -3.62085938 19.71023438 -3.5 18.75 C-2.68261191 12.36359419 -1.69299133 6.21736471 0 0 Z " fill="#53BC29" transform="translate(592,375)"/>
<path d="M0 0 C1.98 0.66 3.96 1.32 6 2 C6 2.99 6 3.98 6 5 C7.98 5 9.96 5 12 5 C11 8 11 8 8.25 9.6875 C5 11 5 11 0 11 C0 7.37 0 3.74 0 0 Z " fill="#BE0610" transform="translate(427,454)"/>
<path d="M0 0 C0.66 0 1.32 0 2 0 C0.23765397 3.9801298 -2.3261927 7.3750343 -4.875 10.875 C-5.74833608 12.0800483 -6.62074169 13.28577152 -7.4921875 14.4921875 C-7.9159668 15.07452148 -8.33974609 15.65685547 -8.77636719 16.25683594 C-9.96505524 17.95021836 -11.04655922 19.68518944 -12.1328125 21.4453125 C-12.74898437 22.28835938 -13.36515625 23.13140625 -14 24 C-14.99 24 -15.98 24 -17 24 C-15.30714734 20.29913593 -13.06744977 17.01646257 -10.75 13.6875 C-10.35031006 13.11298096 -9.95062012 12.53846191 -9.53881836 11.9465332 C-6.57152095 7.72551535 -3.56061819 3.73430688 0 0 Z " fill="#A6DF80" transform="translate(629,381)"/>
<path d="M0 0 C2.92283369 2.17124788 5.37114006 4.34448518 7.625 7.1875 C9.75800103 10.20866608 9.75800103 10.20866608 13 11 C13 14.96 13 18.92 13 23 C11.35 23 9.7 23 8 23 C9.32 22.67 10.64 22.34 12 22 C12 19.03 12 16.06 12 13 C10.84371094 13.03480469 10.84371094 13.03480469 9.6640625 13.0703125 C8.66117187 13.08835937 7.65828125 13.10640625 6.625 13.125 C5.62726563 13.14820313 4.62953125 13.17140625 3.6015625 13.1953125 C1 13 1 13 -1 11 C1.31 11 3.62 11 6 11 C3.98231787 7.44187721 3.98231787 7.44187721 1.3125 4.375 C0 3 0 3 0 0 Z " fill="#A6B973" transform="translate(410,431)"/>
<path d="M0 0 C1 3 1 3 0.13549805 4.86938477 C-0.31784912 5.55315186 -0.77119629 6.23691895 -1.23828125 6.94140625 C-1.97401367 8.06385742 -1.97401367 8.06385742 -2.72460938 9.20898438 C-3.51061523 10.37397461 -3.51061523 10.37397461 -4.3125 11.5625 C-4.82490234 12.34302734 -5.33730469 13.12355469 -5.86523438 13.92773438 C-9.65621014 19.65621014 -9.65621014 19.65621014 -12 22 C-12.8321619 19.65132397 -13.1853465 18.46312708 -12.24316406 16.10888672 C-11.83807617 15.47225098 -11.43298828 14.83561523 -11.015625 14.1796875 C-10.57476563 13.47972656 -10.13390625 12.77976562 -9.6796875 12.05859375 C-9.20789063 11.33800781 -8.73609375 10.61742187 -8.25 9.875 C-7.79367187 9.14667969 -7.33734375 8.41835938 -6.8671875 7.66796875 C-4.72373636 4.31650323 -3.37211603 2.24807736 0 0 Z " fill="#B6E593" transform="translate(613,404)"/>
<path d="M0 0 C1.66611905 -0.042721 3.33382885 -0.04063832 5 0 C5.33 0.33 5.66 0.66 6 1 C7.99958364 1.04080783 10.00045254 1.04254356 12 1 C12 1.66 12 2.32 12 3 C11.01 3.66 10.02 4.32 9 5 C8.27034634 7.56282742 8.27034634 7.56282742 8 10 C4.9054129 9.6684371 3.97195314 8.97117406 1.75 6.6875 C0 4 0 4 0 0 Z " fill="#3B9F0A" transform="translate(592,460)"/>
<path d="M0 0 C0.66 0.33 1.32 0.66 2 1 C-0.93638941 4.15209574 -3.97033067 6.4168766 -7.625 8.6875 C-8.58664062 9.28949219 -9.54828125 9.89148438 -10.5390625 10.51171875 C-13 12 -13 12 -15 13 C-15.66 12.34 -16.32 11.68 -17 11 C-16.34 11 -15.68 11 -15 11 C-14.77183594 10.40574219 -14.54367187 9.81148438 -14.30859375 9.19921875 C-12.64081768 6.39635927 -10.88031043 5.42208628 -8.0625 3.8125 C-6.74958984 3.04873047 -6.74958984 3.04873047 -5.41015625 2.26953125 C-3 1 -3 1 0 0 Z " fill="#4EB533" transform="translate(655,411)"/>
<path d="M0 0 C0.33 0 0.66 0 1 0 C1.125 5.75 1.125 5.75 0 8 C-0.039992 9.99960012 -0.04346799 12.00047242 0 14 C0.99 13.34 1.98 12.68 3 12 C2.690625 12.845625 2.38125 13.69125 2.0625 14.5625 C0.98461179 18.0497854 0.43418696 21.38177535 0 25 C-0.33 25 -0.66 25 -1 25 C-1 22.03 -1 19.06 -1 16 C-1.66 16 -2.32 16 -3 16 C-3.33 16.66 -3.66 17.32 -4 18 C-3.61020794 11.44074057 -2.57886807 6.05473373 0 0 Z " fill="#6EC957" transform="translate(498,384)"/>
<path d="M0 0 C0.33 0 0.66 0 1 0 C1.08150744 2.06183633 1.1394194 4.12461349 1.1875 6.1875 C1.22230469 7.33605469 1.25710938 8.48460937 1.29296875 9.66796875 C0.97436317 13.29157624 0.21947332 15.14639144 -2 18 C-2.66 18 -3.32 18 -4 18 C-3.48914188 11.56318772 -2.27057103 6.04057576 0 0 Z " fill="#6FCE49" transform="translate(585,412)"/>
<path d="M0 0 C1.32 0.66 2.64 1.32 4 2 C4 3.98 4 5.96 4 8 C4.66 8 5.32 8 6 8 C6 8.66 6 9.32 6 10 C4.02 10.33 2.04 10.66 0 11 C-0.66 9.02 -1.32 7.04 -2 5 C-1.34 5 -0.68 5 0 5 C0 3.35 0 1.7 0 0 Z " fill="#32B514" transform="translate(488,400)"/>
<path d="M0 0 C0.33 0 0.66 0 1 0 C1.33605296 7.35582595 1.46656922 14.30538697 -2 21 C-2.66 21.33 -3.32 21.66 -4 22 C-2 2 -2 2 0 0 Z " fill="#29A710" transform="translate(591,392)"/>
<path d="M0 0 C0.66 0 1.32 0 2 0 C1.67 2.64 1.34 5.28 1 8 C0.34 8 -0.32 8 -1 8 C-1 9.65 -1 11.3 -1 13 C-1.33 13 -1.66 13 -2 13 C-2.33 11.35 -2.66 9.7 -3 8 C-4.32 8.99 -5.64 9.98 -7 11 C-7.66 10.67 -8.32 10.34 -9 10 C-7.5484451 8.32742645 -6.08855591 6.66208242 -4.625 5 C-3.81289063 4.071875 -3.00078125 3.14375 -2.1640625 2.1875 C-1.44992187 1.465625 -0.73578125 0.74375 0 0 Z " fill="#4EBB57" transform="translate(682,475)"/>
<path d="M0 0 C0.70125 0.721875 1.4025 1.44375 2.125 2.1875 C6.69931854 6.72316233 10.63272195 10.33237956 17 12 C17 12.33 17 12.66 17 13 C13.03448273 13.59060896 11.02478511 13.64151877 7.56640625 11.4765625 C4.94698355 9.4229351 2.35619125 7.35619125 0 5 C-0.04063832 3.33382885 -0.042721 1.66611905 0 0 Z " fill="#D7A108" transform="translate(592,464)"/>
<path d="M0 0 C2.64 0 5.28 0 8 0 C8.66 1.32 9.32 2.64 10 4 C10.66 2.68 11.32 1.36 12 0 C13.39460991 2.78921982 12.58060045 4.12077103 11.6875 7.0625 C11.29111328 8.41021484 11.29111328 8.41021484 10.88671875 9.78515625 C10 12 10 12 8 13 C7.67 9.37 7.34 5.74 7 2 C5.35 2 3.7 2 2 2 C1.67 2.99 1.34 3.98 1 5 C0.67 3.35 0.34 1.7 0 0 Z " fill="#A8B47D" transform="translate(419,428)"/>
<path d="M0 0 C0.93423645 3.01031744 1.04449911 3.86650268 0 7 C-0.66 7 -1.32 7 -2 7 C-2 8.32 -2 9.64 -2 11 C-2.66 11 -3.32 11 -4 11 C-4.33 17.27 -4.66 23.54 -5 30 C-5.33 30 -5.66 30 -6 30 C-6.38916112 19.18996893 -6.44907676 9.21296681 0 0 Z " fill="#F5666F" transform="translate(366,466)"/>
<path d="M0 0 C0.99 0 1.98 0 3 0 C3 1.98 3 3.96 3 6 C-0.63 6 -4.26 6 -8 6 C-8 6.99 -8 7.98 -8 9 C-9.32 8.34 -10.64 7.68 -12 7 C-12 6.01 -12 5.02 -12 4 C-7.38 4 -2.76 4 2 4 C2 3.01 2 2.02 2 1 C1.34 0.67 0.68 0.34 0 0 Z " fill="#C90B16" transform="translate(420,454)"/>
<path d="M0 0 C0.66 0.33 1.32 0.66 2 1 C-2.03523352 5.81123996 -6.04467233 10.13242719 -11 14 C-11 10.30159372 -10.17133056 9.68584567 -7.75 7 C-7.14671875 6.319375 -6.5434375 5.63875 -5.921875 4.9375 C-4.06233388 3.06284066 -2.15205789 1.52358081 0 0 Z " fill="#D1F0BD" transform="translate(431,173)"/>
<path d="M0 0 C-0.875 4.75 -0.875 4.75 -2 7 C-4.5625 7.625 -4.5625 7.625 -7 8 C-7.6875 5.6875 -7.6875 5.6875 -8 3 C-5.90994325 -0.36731366 -3.75103888 -0.30413829 0 0 Z " fill="#37B714" transform="translate(622,447)"/>
<path d="M0 0 C-0.56847656 0.12375 -1.13695312 0.2475 -1.72265625 0.375 C-7.7085565 1.97390491 -10.6739449 4.22693435 -14.39453125 9.16015625 C-16.11923428 11.13664074 -17.60012597 11.99528051 -20 13 C-18.6396583 7.38859048 -14.48899247 4.25786954 -10 1 C-6.06100309 -0.81799857 -4.08216305 -1.18626961 0 0 Z " fill="#7CD355" transform="translate(452,415)"/>
<path d="M0 0 C0.66 0.33 1.32 0.66 2 1 C1.773125 1.763125 1.54625 2.52625 1.3125 3.3125 C1.209375 4.199375 1.10625 5.08625 1 6 C2.33378575 7.8354799 2.33378575 7.8354799 4 9 C2.75 10.5 2.75 10.5 1 12 C-0.32 12 -1.64 12 -3 12 C-3.34833144 7.12335991 -2.41685712 4.22949995 0 0 Z " fill="#FC872C" transform="translate(475,423)"/>
<path d="M0 0 C0.66 0.66 1.32 1.32 2 2 C2.66 1.67 3.32 1.34 4 1 C2.55049545 4.7910119 0.84827434 8.3874638 -1 12 C-1.99 12 -2.98 12 -4 12 C-3.45660208 7.43545749 -2.20536179 4.0271824 0 0 Z " fill="#A7DA6D" transform="translate(591,437)"/>
<path d="M0 0 C0.33 0 0.66 0 1 0 C1 1.98 1 3.96 1 6 C2.98 6 4.96 6 7 6 C6.125 9.875 6.125 9.875 5 11 C3.35 11 1.7 11 0 11 C0 7.37 0 3.74 0 0 Z " fill="#A00D10" transform="translate(427,454)"/>
<path d="M0 0 C0.66 0.66 1.32 1.32 2 2 C-1.63 5.63 -5.26 9.26 -9 13 C-9.33 12.34 -9.66 11.68 -10 11 C-7.17477391 6.32751069 -4.32239956 3.34003602 0 0 Z " fill="#48B63B" transform="translate(618,438)"/>
<path d="M0 0 C2.64 0 5.28 0 8 0 C4.81237635 2.12508244 2.73487777 2.5020163 -1 3 C-0.67 3.66 -0.34 4.32 0 5 C0.16796875 6.875 0.16796875 6.875 0.1875 9 C0.20167969 9.70125 0.21585938 10.4025 0.23046875 11.125 C0 13 0 13 -2 15 C-2 10.71 -2 6.42 -2 2 C-1.34 2 -0.68 2 0 2 C0 1.34 0 0.68 0 0 Z " fill="#4AB451" transform="translate(673,425)"/>
<path d="M0 0 C0.33 0 0.66 0 1 0 C1.33 2.97 1.66 5.94 2 9 C3.32 8.67 4.64 8.34 6 8 C6.33 6.35 6.66 4.7 7 3 C8.0326802 5.78823655 8.04509293 6.8677274 7.0625 9.75 C6.711875 10.4925 6.36125 11.235 6 12 C4.35 12 2.7 12 1 12 C0.03929566 9.11788698 -0.10581883 7.30149956 -0.0625 4.3125 C-0.05347656 3.50425781 -0.04445313 2.69601562 -0.03515625 1.86328125 C-0.02355469 1.24839844 -0.01195312 0.63351562 0 0 Z " fill="#F62A3E" transform="translate(370,480)"/>
<path d="M0 0 C3.68040867 2.32446864 5.2994906 4.07965475 6.3125 8.25 C6.6528125 10.10625 6.6528125 10.10625 7 12 C6.29875 11.38125 5.5975 10.7625 4.875 10.125 C1.94222819 7.9572991 -0.51182406 6.97344445 -4 6 C-3.360625 5.855625 -2.72125 5.71125 -2.0625 5.5625 C-0.02454854 5.18992819 -0.02454854 5.18992819 1 4 C0.34 3.01 -0.32 2.02 -1 1 C-0.67 0.67 -0.34 0.34 0 0 Z " fill="#65C145" transform="translate(475,397)"/>
<path d="M0 0 C0.67844036 2.11070334 1.11681652 3.54107796 0.5625 5.71875 C-0.17783021 8.72120031 -0.3466927 11.66703855 -0.5625 14.75 C-0.64628906 15.92046875 -0.73007812 17.0909375 -0.81640625 18.296875 C-0.87699219 19.18890625 -0.93757813 20.0809375 -1 21 C-3.96225497 15.69850401 -3.44653838 10.84569197 -2.0625 5.125 C-1 2 -1 2 0 0 Z " fill="#99DD68" transform="translate(34,219)"/>
<path d="M0 0 C0.33 0.66 0.66 1.32 1 2 C0.34 2 -0.32 2 -1 2 C-1.12117187 2.62648438 -1.24234375 3.25296875 -1.3671875 3.8984375 C-1.61855469 5.12433594 -1.61855469 5.12433594 -1.875 6.375 C-2.03742187 7.18710937 -2.19984375 7.99921875 -2.3671875 8.8359375 C-3 11 -3 11 -5 13 C-4.67 9.7 -4.34 6.4 -4 3 C-7.63 2.67 -11.26 2.34 -15 2 C-15 1.67 -15 1.34 -15 1 C-10.05 0.67 -5.1 0.34 0 0 Z " fill="#E59A07" transform="translate(549,460)"/>
<path d="M0 0 C1.01573289 3.04719867 1.0097124 3.98833004 0.44140625 7.01171875 C0.30283203 7.76904297 0.16425781 8.52636719 0.02148438 9.30664062 C-0.12998047 10.09232422 -0.28144531 10.87800781 -0.4375 11.6875 C-0.58509766 12.48478516 -0.73269531 13.28207031 -0.88476562 14.10351562 C-1.24984964 16.07025852 -1.62405289 18.03530467 -2 20 C-2.99 19.34 -3.98 18.68 -5 18 C-4.42934122 11.58008874 -2.32655091 5.98410537 0 0 Z " fill="#45B928" transform="translate(589,397)"/>
<path d="M0 0 C0 3 0 3 -2.5 5.6875 C-3.325 6.450625 -4.15 7.21375 -5 8 C-4.67 8.66 -4.34 9.32 -4 10 C-6.30368736 11.06652192 -8.64018187 12.06421005 -11 13 C-11.66 12.67 -12.32 12.34 -13 12 C-12.31292969 11.38511719 -11.62585938 10.77023437 -10.91796875 10.13671875 C-10.01691406 9.32847656 -9.11585938 8.52023437 -8.1875 7.6875 C-7.29417969 6.88699219 -6.40085937 6.08648437 -5.48046875 5.26171875 C-3.60073214 3.54775419 -1.77407253 1.82122396 0 0 Z " fill="#29B012" transform="translate(639,415)"/>
<path d="M0 0 C0.99 0 1.98 0 3 0 C3.25532751 3.06393013 3.21861333 4.63233212 1.625 7.3125 C0.820625 8.1478125 0.820625 8.1478125 0 9 C-0.66 9 -1.32 9 -2 9 C-1.125 1.125 -1.125 1.125 0 0 Z " fill="#FCA846" transform="translate(491,499)"/>
<path d="M0 0 C-0.61277612 2.96175123 -1.25372522 4.38058783 -3 7 C-4.32 7 -5.64 7 -7 7 C-6.22006468 2.47637516 -4.81844319 0 0 0 Z " fill="#FC8213" transform="translate(512,484)"/>
<path d="M0 0 C2.97 0 5.94 0 9 0 C9 0.99 9 1.98 9 3 C7.783125 2.95875 6.56625 2.9175 5.3125 2.875 C1.76657851 2.86872403 -0.788923 3.3944615 -4 5 C-4.99 5.495 -4.99 5.495 -6 6 C-6.33 4.68 -6.66 3.36 -7 2 C-4.69 2 -2.38 2 0 2 C0 1.34 0 0.68 0 0 Z " fill="#2EAA32" transform="translate(622,455)"/>
<path d="M0 0 C1.44375 0.12375 2.8875 0.2475 4.375 0.375 C5.59316406 0.47941406 5.59316406 0.47941406 6.8359375 0.5859375 C9 1 9 1 11 3 C8.03 2.67 5.06 2.34 2 2 C2 4.97 2 7.94 2 11 C1.34 10.67 0.68 10.34 0 10 C0 6.7 0 3.4 0 0 Z " fill="#87D44F" transform="translate(390,411)"/>
<path d="M0 0 C0.66 0.33 1.32 0.66 2 1 C0.8758824 2.29243468 -0.24932592 3.58392075 -1.375 4.875 C-2.00148438 5.59429687 -2.62796875 6.31359375 -3.2734375 7.0546875 C-4.47426834 8.4076598 -5.7208345 9.7208345 -7 11 C-7.99 10.67 -8.98 10.34 -10 10 C-9.34 10 -8.68 10 -8 10 C-7.79375 9.278125 -7.5875 8.55625 -7.375 7.8125 C-5.54751837 4.0744694 -3.29561194 2.50753083 0 0 Z " fill="#76D23C" transform="translate(630,344)"/>
<path d="M0 0 C-0.33 0.99 -0.66 1.98 -1 3 C-2.65 3 -4.3 3 -6 3 C-6.2475 3.639375 -6.495 4.27875 -6.75 4.9375 C-8 7 -8 7 -10.125 7.75 C-11.053125 7.87375 -11.053125 7.87375 -12 8 C-10.01351708 2.43784783 -5.71424233 0 0 0 Z " fill="#7DD150" transform="translate(593,335)"/>
<path d="M0 0 C0.33 0.99 0.66 1.98 1 3 C-2.63 6.3 -6.26 9.6 -10 13 C-10.66 12.67 -11.32 12.34 -12 12 C-8.04 8.04 -4.08 4.08 0 0 Z " fill="#4BB356" transform="translate(652,510)"/>
<path d="M0 0 C0.66 0.33 1.32 0.66 2 1 C0.92492371 2.29854721 -0.16043736 3.58858361 -1.25 4.875 C-1.85328125 5.59429688 -2.4565625 6.31359375 -3.078125 7.0546875 C-4.97087634 8.97052118 -6.53657727 9.96449045 -9 11 C-7.59155282 7.78475695 -5.89655214 5.67816132 -3.375 3.25 C-2.74335938 2.63640625 -2.11171875 2.0228125 -1.4609375 1.390625 C-0.73777344 0.70226562 -0.73777344 0.70226562 0 0 Z " fill="#42B03D" transform="translate(300,627)"/>
<path d="M0 0 C1.10085938 0.00644531 2.20171875 0.01289063 3.3359375 0.01953125 C6.50509206 0.18137644 9.50948397 0.5992228 12.625 1.1875 C12.625 1.5175 12.625 1.8475 12.625 2.1875 C11.03558594 2.17009766 11.03558594 2.17009766 9.4140625 2.15234375 C8.02604342 2.14296524 6.63802245 2.13386511 5.25 2.125 C4.20199219 2.11243164 4.20199219 2.11243164 3.1328125 2.09960938 C-0.74795376 2.0039558 -0.74795376 2.0039558 -4.375 3.1875 C-6.38300456 2.90637936 -8.38514051 2.57682033 -10.375 2.1875 C-6.87290588 0.02645168 -4.07006086 -0.05218027 0 0 Z " fill="#F13141" transform="translate(396.375,448.8125)"/>
<path d="M0 0 C1.32 0.33 2.64 0.66 4 1 C4 1.99 4 2.98 4 4 C-0.29 4 -4.58 4 -9 4 C-9 3.67 -9 3.34 -9 3 C-5.92382812 2.70703125 -5.92382812 2.70703125 -2.84765625 2.4140625 C-2.23792969 2.27742188 -1.62820313 2.14078125 -1 2 C-0.67 1.34 -0.34 0.68 0 0 Z " fill="#DC0417" transform="translate(418,454)"/>
<path d="M0 0 C2 0.0625 2 0.0625 4 1 C4.99 2.32 5.98 3.64 7 5 C3.7 4.34 0.4 3.68 -3 3 C-2.01 2.01 -1.02 1.02 0 0 Z " fill="#38A816" transform="translate(471,398)"/>
<path d="M0 0 C0.33 1.32 0.66 2.64 1 4 C-1.31 5.98 -3.62 7.96 -6 10 C-6 6.41087588 -5.33563446 5.89142971 -3 3.3125 C-2.443125 2.68988281 -1.88625 2.06726563 -1.3125 1.42578125 C-0.879375 0.95527344 -0.44625 0.48476563 0 0 Z " fill="#44B54F" transform="translate(660,500)"/>
<path d="M0 0 C0.66 0.33 1.32 0.66 2 1 C0.88200014 2.33920838 -0.24461897 3.67122556 -1.375 5 C-2.00148438 5.7425 -2.62796875 6.485 -3.2734375 7.25 C-4.12808594 8.11625 -4.12808594 8.11625 -5 9 C-5.66 9 -6.32 9 -7 9 C-5.44499019 5.18315774 -2.96404505 2.80804268 0 0 Z " fill="#F94B5E" transform="translate(382,461)"/>
<path d="M0 0 C0.86625 0.3403125 0.86625 0.3403125 1.75 0.6875 C1.13125 0.749375 0.5125 0.81125 -0.125 0.875 C-2.52761141 1.516419 -2.52761141 1.516419 -3.5 4.25 C-3.7475 5.054375 -3.995 5.85875 -4.25 6.6875 C-5.24 6.6875 -6.23 6.6875 -7.25 6.6875 C-6.87492618 3.96821483 -6.40781339 2.84531339 -4.4375 0.875 C-2.25 -0.3125 -2.25 -0.3125 0 0 Z " fill="#C7E2B6" transform="translate(621.25,458.3125)"/>
<path d="M0 0 C0.66 0.33 1.32 0.66 2 1 C-0.36292656 3.52588702 -1.66462511 4.88820837 -5 6 C-5.99 5.34 -6.98 4.68 -8 4 C-6.71349294 3.30289269 -5.42059335 2.61757124 -4.125 1.9375 C-3.40570312 1.55464844 -2.68640625 1.17179687 -1.9453125 0.77734375 C-1.30335938 0.52082031 -0.66140625 0.26429688 0 0 Z " fill="#3CAE20" transform="translate(655,411)"/>
<path d="M0 0 C0.33 0 0.66 0 1 0 C1 3.96 1 7.92 1 12 C0.01 11.67 -0.98 11.34 -2 11 C-1.85957123 9.35369672 -1.71250671 7.70795821 -1.5625 6.0625 C-1.48128906 5.14597656 -1.40007813 4.22945313 -1.31640625 3.28515625 C-1 1 -1 1 0 0 Z " fill="#35A923" transform="translate(591,392)"/>
<path d="M0 0 C0.66 0.33 1.32 0.66 2 1 C2.625 3.5625 2.625 3.5625 3 6 C1.68 6.99 0.36 7.98 -1 9 C-1.125 2.25 -1.125 2.25 0 0 Z " fill="#35AC1A" transform="translate(498,390)"/>
<path d="M0 0 C0.66 0.33 1.32 0.66 2 1 C2 3.64 2 6.28 2 9 C0.68 8.34 -0.64 7.68 -2 7 C-1.34 4.69 -0.68 2.38 0 0 Z " fill="#61AE1A" transform="translate(420,433)"/>
<path d="M0 0 C0.66 0 1.32 0 2 0 C0.4169423 4.2742558 -2.50568404 6.26531794 -6 9 C-6 6 -6 6 -4.125 3.8125 C-2 2 -2 2 0 2 C0 1.34 0 0.68 0 0 Z " fill="#6DD446" transform="translate(443,429)"/>
<path d="M0 0 C3.57410797 2.68058098 6.31941902 5.42589203 9 9 C8.67 9.66 8.34 10.32 8 11 C6.65772182 9.73861805 5.32641323 8.46555441 4 7.1875 C3.2575 6.47980469 2.515 5.77210938 1.75 5.04296875 C0 3 0 3 0 0 Z " fill="#A3E47A" transform="translate(410,431)"/>
<path d="M0 0 C0.33 0 0.66 0 1 0 C1.23509196 4.81938524 0.45184478 8.46298506 -1 13 C-3 10 -3 10 -2.79296875 8.02734375 C-2.59316406 7.33769531 -2.39335937 6.64804687 -2.1875 5.9375 C-1.99542969 5.24527344 -1.80335938 4.55304688 -1.60546875 3.83984375 C-1 2 -1 2 0 0 Z " fill="#5FC737" transform="translate(498,384)"/>
<path d="M0 0 C0.99 0 1.98 0 3 0 C3.33 3.3 3.66 6.6 4 10 C0.06153846 5.69230769 0.06153846 5.69230769 -0.25 2.1875 C-0.1675 1.465625 -0.085 0.74375 0 0 Z " fill="#34AF18" transform="translate(485,389)"/>
<path d="M0 0 C-1.44077046 3.36179774 -3.24750021 5.59156268 -6 8 C-6.66 8 -7.32 8 -8 8 C-6.48291727 4.46014029 -4.24676932 0 0 0 Z " fill="#E4BA09" transform="translate(559,450)"/>
<path d="M0 0 C1.70840281 1.63412443 2.93453047 2.86906094 4 5 C4.039992 6.99960012 4.04346799 9.00047242 4 11 C1.73030256 8.73030256 1.00868171 7.02604513 0 4 C0 2.68 0 1.36 0 0 Z " fill="#40B233" transform="translate(184,383)"/>
<path d="M0 0 C1.98 0.99 1.98 0.99 4 2 C4 5.3 4 8.6 4 12 C2.09681116 9.14521674 1.5380901 7.58058692 0.875 4.3125 C0.70742187 3.50425781 0.53984375 2.69601562 0.3671875 1.86328125 C0.24601563 1.24839844 0.12484375 0.63351562 0 0 Z " fill="#51C032" transform="translate(160,317)"/>
<path d="M0 0 C0.66 0.33 1.32 0.66 2 1 C-3.14285714 7.57142857 -3.14285714 7.57142857 -7 9 C-5.44499019 5.18315774 -2.96404505 2.80804268 0 0 Z " fill="#5DBF58" transform="translate(551,628)"/>
<path d="M0 0 C0.33 0 0.66 0 1 0 C1.29341888 5.67276511 1.00559652 8.99067246 -2 14 C-3.25127906 10.45332822 -2.72285053 8.27746562 -1.5625 4.75 C-1.27503906 3.85796875 -0.98757813 2.9659375 -0.69140625 2.046875 C-0.46324219 1.37140625 -0.23507812 0.6959375 0 0 Z " fill="#A9DFB2" transform="translate(681,483)"/>
<path d="M0 0 C0 0.66 0 1.32 0 2 C0.66 2 1.32 2 2 2 C2 2.66 2 3.32 2 4 C0.02 4.33 -1.96 4.66 -4 5 C-4.33 4.34 -4.66 3.68 -5 3 C-2.25 0 -2.25 0 0 0 Z " fill="#2FA413" transform="translate(492,406)"/>
<path d="M0 0 C1.4800841 0.11362262 2.95910074 0.24122908 4.4375 0.375 C5.26121094 0.44460938 6.08492188 0.51421875 6.93359375 0.5859375 C7.95646484 0.79089844 7.95646484 0.79089844 9 1 C9.33 1.66 9.66 2.32 10 3 C6.37 3 2.74 3 -1 3 C-0.67 2.01 -0.34 1.02 0 0 Z " fill="#7CD350" transform="translate(469,345)"/>
<path d="M0 0 C0.66 0.33 1.32 0.66 2 1 C2 1.99 2 2.98 2 4 C-1.3 3.67 -4.6 3.34 -8 3 C-8 2.67 -8 2.34 -8 2 C-6.865625 1.855625 -5.73125 1.71125 -4.5625 1.5625 C-1.19222799 1.38828522 -1.19222799 1.38828522 0 0 Z " fill="#E2A00B" transform="translate(600,457)"/>
<path d="M0 0 C0.78375 0.04125 1.5675 0.0825 2.375 0.125 C2.375 1.775 2.375 3.425 2.375 5.125 C1.715 5.125 1.055 5.125 0.375 5.125 C0.375 4.465 0.375 3.805 0.375 3.125 C-1.275 2.795 -2.925 2.465 -4.625 2.125 C-2.625 0.125 -2.625 0.125 0 0 Z " fill="#E51B2B" transform="translate(432.625,452.875)"/>
<path d="M0 0 C0.33 0.99 0.66 1.98 1 3 C-0.65 4.65 -2.3 6.3 -4 8 C-4.66 7.67 -5.32 7.34 -6 7 C-4.02 4.69 -2.04 2.38 0 0 Z " fill="#82D847" transform="translate(357,115)"/>
<path d="M0 0 C3.3 0 6.6 0 10 0 C10 0.33 10 0.66 10 1 C7.69 1 5.38 1 3 1 C3 1.99 3 2.98 3 4 C2.01 3.67 1.02 3.34 0 3 C0 2.01 0 1.02 0 0 Z " fill="#BB0811" transform="translate(409,459)"/>
<path d="M0 0 C0.66 0.33 1.32 0.66 2 1 C0.35 2.98 -1.3 4.96 -3 7 C-3.66 5.68 -4.32 4.36 -5 3 C-2.625 1.4375 -2.625 1.4375 0 0 Z " fill="#1CA51B" transform="translate(613,440)"/>
<path d="M0 0 C0.33 0.99 0.66 1.98 1 3 C-0.65 4.65 -2.3 6.3 -4 8 C-3.40138258 5.64828869 -2.73075648 3.3140622 -2 1 C-1.34 0.67 -0.68 0.34 0 0 Z " fill="#C2ECAB" transform="translate(613,404)"/>
<path d="M0 0 C3.8063457 0.67170806 7.35206816 1.72746564 11 3 C11 3.33 11 3.66 11 4 C4.6 4.49230769 4.6 4.49230769 1.5625 2 C1.046875 1.34 0.53125 0.68 0 0 Z " fill="#EBA607" transform="translate(598,473)"/>
<path d="M0 0 C0.66 0.33 1.32 0.66 2 1 C0.35 2.98 -1.3 4.96 -3 7 C-3.99 6.67 -4.98 6.34 -6 6 C-4.02 4.02 -2.04 2.04 0 0 Z " fill="#FBA255" transform="translate(477,416)"/>
<path d="M0 0 C3.37503669 1.1858237 5.64722731 2.27573689 8 5 C7.67 5.66 7.34 6.32 7 7 C5.83040013 6.02433888 4.66438823 5.044375 3.5 4.0625 C2.8503125 3.51722656 2.200625 2.97195313 1.53125 2.41015625 C1.0259375 1.94480469 0.520625 1.47945313 0 1 C0 0.67 0 0.34 0 0 Z " fill="#56C52E" transform="translate(467,391)"/>
</svg>
